<svg width="216" height="62" viewBox="0 0 216 62" fill="none" xmlns="http://www.w3.org/2000/svg">
<path d="M2.21236 34V8.54545H12.255C14.1856 8.54545 15.8304 8.91418 17.1893 9.65163C18.5482 10.3808 19.5839 11.3958 20.2965 12.6967C21.0174 13.9893 21.3778 15.4808 21.3778 17.1712C21.3778 18.8615 21.0133 20.353 20.2841 21.6456C19.5549 22.9382 18.4985 23.945 17.1147 24.6658C15.7392 25.3867 14.0737 25.7472 12.1183 25.7472H5.71733V21.4343H11.2482C12.284 21.4343 13.1374 21.2562 13.8086 20.8999C14.488 20.5353 14.9935 20.034 15.3249 19.396C15.6647 18.7496 15.8345 18.008 15.8345 17.1712C15.8345 16.326 15.6647 15.5885 15.3249 14.9588C14.9935 14.3208 14.488 13.8278 13.8086 13.4798C13.1291 13.1235 12.2674 12.9453 11.2234 12.9453H7.59411V34H2.21236ZM50.0148 21.2727C50.0148 24.0485 49.4887 26.41 48.4363 28.3572C47.3923 30.3045 45.9671 31.7918 44.1608 32.8192C42.3627 33.8384 40.3409 34.348 38.0954 34.348C35.8334 34.348 33.8033 33.8343 32.0052 32.8068C30.2072 31.7794 28.7861 30.292 27.7421 28.3448C26.6981 26.3976 26.176 24.0402 26.176 21.2727C26.176 18.4969 26.6981 16.1354 27.7421 14.1882C28.7861 12.241 30.2072 10.7578 32.0052 9.73864C33.8033 8.71117 35.8334 8.19744 38.0954 8.19744C40.3409 8.19744 42.3627 8.71117 44.1608 9.73864C45.9671 10.7578 47.3923 12.241 48.4363 14.1882C49.4887 16.1354 50.0148 18.4969 50.0148 21.2727ZM44.5585 21.2727C44.5585 19.4747 44.2892 17.9583 43.7506 16.7237C43.2203 15.4891 42.4704 14.5528 41.501 13.9148C40.5315 13.2768 39.3963 12.9577 38.0954 12.9577C36.7945 12.9577 35.6594 13.2768 34.6899 13.9148C33.7204 14.5528 32.9664 15.4891 32.4278 16.7237C31.8975 17.9583 31.6324 19.4747 31.6324 21.2727C31.6324 23.0708 31.8975 24.5871 32.4278 25.8217C32.9664 27.0563 33.7204 27.9927 34.6899 28.6307C35.6594 29.2687 36.7945 29.5877 38.0954 29.5877C39.3963 29.5877 40.5315 29.2687 41.501 28.6307C42.4704 27.9927 43.2203 27.0563 43.7506 25.8217C44.2892 24.5871 44.5585 23.0708 44.5585 21.2727ZM55.7514 34V8.54545H65.794C67.7164 8.54545 69.357 8.88932 70.7159 9.57706C72.0831 10.2565 73.123 11.2218 73.8356 12.473C74.5565 13.7159 74.9169 15.1784 74.9169 16.8604C74.9169 18.5508 74.5523 20.005 73.8232 21.223C73.094 22.4328 72.0375 23.3608 70.6538 24.0071C69.2783 24.6534 67.6128 24.9766 65.6573 24.9766H58.9332V20.6513H64.7873C65.8147 20.6513 66.6682 20.5104 67.3477 20.2287C68.0271 19.947 68.5326 19.5244 68.864 18.9609C69.2037 18.3975 69.3736 17.6973 69.3736 16.8604C69.3736 16.0153 69.2037 15.3027 68.864 14.7227C68.5326 14.1426 68.023 13.7035 67.3352 13.4052C66.6558 13.0986 65.7982 12.9453 64.7624 12.9453H61.1332V34H55.7514ZM69.4979 22.4162L75.8242 34H69.8832L63.6935 22.4162H69.4979ZM79.5007 12.9826V8.54545H100.406V12.9826H92.6133V34H87.2937V12.9826H79.5007ZM105.599 34V8.54545H122.453V12.9826H110.981V19.0479H121.334V23.4851H110.981V34H105.599ZM151.214 21.2727C151.214 24.0485 150.688 26.41 149.636 28.3572C148.592 30.3045 147.166 31.7918 145.36 32.8192C143.562 33.8384 141.54 34.348 139.295 34.348C137.033 34.348 135.003 33.8343 133.204 32.8068C131.406 31.7794 129.985 30.292 128.941 28.3448C127.897 26.3976 127.375 24.0402 127.375 21.2727C127.375 18.4969 127.897 16.1354 128.941 14.1882C129.985 12.241 131.406 10.7578 133.204 9.73864C135.003 8.71117 137.033 8.19744 139.295 8.19744C141.54 8.19744 143.562 8.71117 145.36 9.73864C147.166 10.7578 148.592 12.241 149.636 14.1882C150.688 16.1354 151.214 18.4969 151.214 21.2727ZM145.758 21.2727C145.758 19.4747 145.488 17.9583 144.95 16.7237C144.42 15.4891 143.67 14.5528 142.7 13.9148C141.731 13.2768 140.596 12.9577 139.295 12.9577C137.994 12.9577 136.859 13.2768 135.889 13.9148C134.92 14.5528 134.166 15.4891 133.627 16.7237C133.097 17.9583 132.832 19.4747 132.832 21.2727C132.832 23.0708 133.097 24.5871 133.627 25.8217C134.166 27.0563 134.92 27.9927 135.889 28.6307C136.859 29.2687 137.994 29.5877 139.295 29.5877C140.596 29.5877 141.731 29.2687 142.7 28.6307C143.67 27.9927 144.42 27.0563 144.95 25.8217C145.488 24.5871 145.758 23.0708 145.758 21.2727ZM156.951 34V8.54545H162.332V29.5629H173.245V34H156.951ZM183.941 8.54545V34H178.559V8.54545H183.941ZM213.51 21.2727C213.51 24.0485 212.984 26.41 211.931 28.3572C210.887 30.3045 209.462 31.7918 207.656 32.8192C205.858 33.8384 203.836 34.348 201.591 34.348C199.328 34.348 197.298 33.8343 195.5 32.8068C193.702 31.7794 192.281 30.292 191.237 28.3448C190.193 26.3976 189.671 24.0402 189.671 21.2727C189.671 18.4969 190.193 16.1354 191.237 14.1882C192.281 12.241 193.702 10.7578 195.5 9.73864C197.298 8.71117 199.328 8.19744 201.591 8.19744C203.836 8.19744 205.858 8.71117 207.656 9.73864C209.462 10.7578 210.887 12.241 211.931 14.1882C212.984 16.1354 213.51 18.4969 213.51 21.2727ZM208.054 21.2727C208.054 19.4747 207.784 17.9583 207.246 16.7237C206.715 15.4891 205.966 14.5528 204.996 13.9148C204.027 13.2768 202.891 12.9577 201.591 12.9577C200.29 12.9577 199.154 13.2768 198.185 13.9148C197.216 14.5528 196.462 15.4891 195.923 16.7237C195.393 17.9583 195.127 19.4747 195.127 21.2727C195.127 23.0708 195.393 24.5871 195.923 25.8217C196.462 27.0563 197.216 27.9927 198.185 28.6307C199.154 29.2687 200.29 29.5877 201.591 29.5877C202.891 29.5877 204.027 29.2687 204.996 28.6307C205.966 27.9927 206.715 27.0563 207.246 25.8217C207.784 24.5871 208.054 23.0708 208.054 21.2727Z" fill="#FFFDD0"/>
<rect x="114" y="17.205" width="87.9659" height="10.8451" fill="black"/>
<path d="M120.238 23.8421L121.494 21.3073L121.939 20.3541C122.066 20.3682 122.252 20.3753 122.497 20.3753C122.579 20.3753 122.671 20.3729 122.772 20.3682C122.876 20.3635 122.989 20.3565 123.111 20.347C123.121 20.3706 123.121 20.4106 123.111 20.4671C123.102 20.5236 123.09 20.5518 123.076 20.5518C123.015 20.5518 122.95 20.5683 122.882 20.6012C122.814 20.6342 122.763 20.6742 122.73 20.7213C122.688 20.7777 122.656 20.846 122.635 20.926C122.616 20.999 122.594 21.1402 122.568 21.3497L122.292 24.0468C122.264 24.2892 122.25 24.4752 122.25 24.6046C122.25 24.7035 122.286 24.7658 122.359 24.7917C122.402 24.8058 122.452 24.8164 122.511 24.8235C122.572 24.8282 122.622 24.8305 122.659 24.8305C122.669 24.8305 122.674 24.8517 122.674 24.8941C122.674 24.9506 122.659 24.9929 122.631 25.0212C122.412 25.0094 122.238 25.0012 122.109 24.9965C121.982 24.9894 121.899 24.9859 121.862 24.9859C121.855 24.9859 121.789 24.9894 121.664 24.9965C121.541 25.0012 121.36 25.0094 121.12 25.0212C121.111 25.0047 121.106 24.9929 121.106 24.9859C121.106 24.9576 121.112 24.9247 121.124 24.887C121.136 24.8494 121.146 24.8305 121.156 24.8305C121.198 24.8305 121.251 24.8258 121.314 24.8164C121.38 24.8047 121.441 24.7894 121.498 24.7705C121.554 24.7493 121.589 24.727 121.6 24.7035C121.647 24.5952 121.68 24.4952 121.699 24.4034C121.704 24.3775 121.711 24.321 121.72 24.2339C121.73 24.1468 121.737 24.0915 121.742 24.068L122.024 21.3144C122.038 21.1731 122.045 21.0814 122.045 21.039C122.045 21.0107 122.031 20.9966 122.003 20.9966C122 20.9966 121.993 21.006 121.982 21.0249L120.139 24.7811C120.115 24.8235 120.071 24.8729 120.005 24.9294C119.939 24.9859 119.878 25.0141 119.821 25.0141C119.8 25.0141 119.781 25.0094 119.765 25L119.164 20.9966C119.162 20.9872 119.157 20.9825 119.15 20.9825C119.136 20.9825 119.129 20.9872 119.129 20.9966L118.303 24.0398C118.214 24.3645 118.169 24.5599 118.169 24.6258C118.169 24.6587 118.203 24.6917 118.271 24.7246C118.342 24.7552 118.416 24.7811 118.494 24.8023C118.574 24.8211 118.625 24.8305 118.649 24.8305C118.658 24.8305 118.663 24.8447 118.663 24.8729C118.663 24.927 118.651 24.9765 118.628 25.0212C118.409 25.0094 118.238 25.0012 118.116 24.9965C117.994 24.9894 117.919 24.9859 117.894 24.9859C117.886 24.9859 117.818 24.9894 117.689 24.9965C117.559 25.0012 117.369 25.0094 117.117 25.0212C117.107 25.0118 117.103 24.9882 117.103 24.9506C117.103 24.8706 117.119 24.8305 117.152 24.8305C117.19 24.8305 117.25 24.8223 117.332 24.8058C117.415 24.787 117.492 24.7646 117.565 24.7388C117.641 24.7105 117.684 24.6846 117.696 24.6611C117.778 24.5058 117.856 24.2963 117.929 24.0327L118.698 21.272C118.717 21.1802 118.737 21.0896 118.758 21.0002C118.78 20.9084 118.79 20.8201 118.79 20.7354C118.79 20.7001 118.757 20.6683 118.691 20.6401C118.625 20.6118 118.554 20.5895 118.476 20.573C118.401 20.5542 118.345 20.5447 118.31 20.5447C118.301 20.5447 118.296 20.5283 118.296 20.4953C118.296 20.4177 118.31 20.3706 118.338 20.3541C118.512 20.3588 118.655 20.3623 118.765 20.3647C118.876 20.3671 118.955 20.3682 119.002 20.3682C119.136 20.3682 119.259 20.3671 119.369 20.3647C119.482 20.3623 119.583 20.3588 119.673 20.3541C119.694 20.5471 119.749 20.9354 119.839 21.5191C119.928 22.1004 120.052 22.8771 120.209 23.8491C120.209 23.8538 120.212 23.8562 120.216 23.8562C120.231 23.8562 120.238 23.8515 120.238 23.8421ZM127.42 21.9286C127.594 21.9286 127.766 21.9592 127.935 22.0204L127.504 24.2516C127.49 24.3081 127.483 24.3669 127.483 24.4281C127.483 24.5458 127.507 24.6046 127.554 24.6046C127.613 24.6046 127.683 24.5634 127.766 24.481C127.848 24.3963 127.919 24.3245 127.977 24.2657L128.02 24.2163C128.029 24.2163 128.047 24.2386 128.073 24.2833C128.099 24.3281 128.112 24.3598 128.112 24.3787C128.072 24.4469 127.999 24.534 127.893 24.6399C127.789 24.7458 127.676 24.84 127.554 24.9223C127.431 25.0024 127.321 25.0424 127.222 25.0424C127.147 25.0424 127.088 25.0082 127.045 24.94C127.003 24.8717 126.982 24.7835 126.982 24.6752C126.982 24.6023 126.998 24.4775 127.031 24.301L127.056 24.1774C127.063 24.1445 127.067 24.1245 127.067 24.1174C127.029 24.188 126.975 24.2751 126.904 24.3787C126.834 24.4799 126.752 24.5811 126.661 24.6823C126.569 24.7835 126.472 24.8682 126.371 24.9365C126.27 25.0024 126.17 25.0353 126.071 25.0353C125.864 25.0353 125.7 24.9423 125.58 24.7564C125.46 24.5705 125.4 24.3457 125.4 24.0821C125.4 23.7456 125.5 23.4102 125.7 23.076C125.835 22.85 125.995 22.6512 126.181 22.4794C126.369 22.3075 126.57 22.1734 126.784 22.0769C126.998 21.9781 127.21 21.9286 127.42 21.9286ZM127.123 22.2534C126.984 22.2534 126.844 22.3028 126.703 22.4017C126.562 22.4982 126.432 22.6288 126.315 22.7936C126.197 22.9559 126.102 23.1372 126.029 23.3372C125.958 23.5349 125.923 23.7338 125.923 23.9338C125.923 24.3951 126.043 24.6258 126.283 24.6258C126.368 24.6258 126.459 24.5787 126.558 24.4846C126.657 24.3904 126.755 24.2657 126.851 24.1104C126.948 23.955 127.033 23.7867 127.106 23.6055C127.181 23.422 127.236 23.2419 127.271 23.0654L127.413 22.3452C127.356 22.284 127.26 22.2534 127.123 22.2534ZM131.679 21.9286C131.754 21.9286 131.813 21.9628 131.855 22.031C131.898 22.0993 131.919 22.1875 131.919 22.2958C131.919 22.3993 131.905 22.5241 131.876 22.67L131.763 23.2631C131.822 23.1242 131.898 22.9783 131.989 22.8253C132.083 22.67 132.184 22.5241 132.289 22.3876C132.395 22.2511 132.5 22.1404 132.604 22.0557C132.707 21.971 132.799 21.9286 132.879 21.9286C133.039 21.9286 133.168 22.0039 133.267 22.1546C133.267 22.4699 133.18 22.6276 133.006 22.6276C132.968 22.6276 132.924 22.5982 132.872 22.5394C132.82 22.4805 132.766 22.4511 132.71 22.4511C132.641 22.4511 132.552 22.5076 132.441 22.6206C132.331 22.7335 132.216 22.8818 132.099 23.0654C131.981 23.2466 131.875 23.4431 131.781 23.655C131.687 23.8644 131.622 24.0656 131.587 24.2586L131.453 25C131.373 25.0141 131.295 25.0212 131.22 25.0212C131.13 25.0212 131.043 25.0141 130.958 25L131.382 22.8253C131.406 22.6629 131.417 22.5688 131.417 22.5429C131.417 22.4252 131.394 22.3664 131.347 22.3664C131.307 22.3664 131.247 22.404 131.167 22.4794C131.129 22.517 131.088 22.5582 131.043 22.6029C131.001 22.6476 130.973 22.6794 130.958 22.6982C130.949 22.6982 130.931 22.6759 130.906 22.6312C130.88 22.5864 130.867 22.5547 130.867 22.5358C130.904 22.4723 130.973 22.3935 131.071 22.2993C131.17 22.2028 131.276 22.1169 131.389 22.0416C131.502 21.9663 131.599 21.9286 131.679 21.9286ZM135.733 22.0345H136.227L136.397 21.1731C136.411 21.1261 136.526 21.1025 136.743 21.1025C136.79 21.1025 136.832 21.1049 136.87 21.1096L136.693 22.0345H137.336C137.359 22.0345 137.371 22.0651 137.371 22.1263C137.371 22.1805 137.35 22.2487 137.307 22.3311H136.637L136.262 24.2516C136.248 24.3081 136.241 24.3669 136.241 24.4281C136.241 24.5458 136.265 24.6046 136.312 24.6046C136.371 24.6046 136.441 24.5634 136.524 24.481C136.606 24.3963 136.677 24.3245 136.735 24.2657L136.778 24.2163C136.787 24.2163 136.805 24.2386 136.831 24.2833C136.857 24.3281 136.87 24.3598 136.87 24.3787C136.83 24.4469 136.757 24.534 136.651 24.6399C136.547 24.7458 136.434 24.84 136.312 24.9223C136.189 25.0024 136.079 25.0424 135.98 25.0424C135.905 25.0424 135.846 25.0082 135.803 24.94C135.761 24.8717 135.74 24.7835 135.74 24.6752C135.74 24.6046 135.756 24.4799 135.789 24.301L136.171 22.3311H135.669C135.655 22.3311 135.648 22.3052 135.648 22.2534C135.648 22.1922 135.676 22.1193 135.733 22.0345ZM140.705 20.4388C140.776 20.4388 140.836 20.4671 140.885 20.5236C140.934 20.5801 140.959 20.6459 140.959 20.7213C140.959 20.8342 140.923 20.9331 140.85 21.0178C140.777 21.1025 140.686 21.1449 140.578 21.1449C140.503 21.1449 140.444 21.1155 140.401 21.0566C140.359 20.9978 140.338 20.926 140.338 20.8413C140.338 20.733 140.373 20.6389 140.444 20.5589C140.514 20.4788 140.601 20.4388 140.705 20.4388ZM140.5 21.9286C140.576 21.9286 140.634 21.9628 140.677 22.031C140.719 22.0993 140.74 22.1875 140.74 22.2958C140.74 22.3923 140.726 22.517 140.698 22.67L140.387 24.2516C140.373 24.3081 140.366 24.3669 140.366 24.4281C140.366 24.5458 140.39 24.6046 140.437 24.6046C140.496 24.6046 140.566 24.5634 140.648 24.481C140.731 24.3963 140.801 24.3245 140.86 24.2657L140.903 24.2163C140.912 24.2163 140.93 24.2386 140.956 24.2833C140.982 24.3281 140.994 24.3598 140.994 24.3787C140.954 24.4469 140.881 24.534 140.776 24.6399C140.672 24.7458 140.559 24.84 140.437 24.9223C140.314 25.0024 140.204 25.0424 140.105 25.0424C140.03 25.0424 139.971 25.0082 139.928 24.94C139.886 24.8717 139.865 24.7835 139.865 24.6752C139.865 24.6046 139.881 24.4799 139.914 24.301L140.204 22.8253C140.227 22.6865 140.239 22.5923 140.239 22.5429C140.239 22.4252 140.215 22.3664 140.168 22.3664C140.14 22.3664 140.101 22.3852 140.052 22.4229C140.005 22.4605 139.959 22.5029 139.914 22.55C139.869 22.5947 139.837 22.63 139.815 22.6559L139.78 22.6982C139.771 22.6982 139.753 22.6759 139.727 22.6312C139.701 22.5864 139.688 22.5547 139.688 22.5358C139.726 22.4723 139.794 22.3935 139.893 22.2993C139.992 22.2028 140.098 22.1169 140.211 22.0416C140.324 21.9663 140.42 21.9286 140.5 21.9286ZM144.547 21.9286C144.623 21.9286 144.682 21.9628 144.724 22.031C144.766 22.0993 144.787 22.1875 144.787 22.2958C144.787 22.3993 144.773 22.5241 144.745 22.67L144.618 23.3196C144.663 23.2396 144.765 23.0936 144.925 22.8818C145.031 22.743 145.153 22.6006 145.292 22.4546C145.433 22.3064 145.572 22.1816 145.709 22.0804C145.848 21.9792 145.964 21.9286 146.058 21.9286C146.294 21.9286 146.411 22.084 146.411 22.3946C146.411 22.6135 146.378 22.87 146.313 23.1642L146.08 24.2516C146.065 24.3081 146.058 24.3669 146.058 24.4281C146.058 24.5458 146.082 24.6046 146.129 24.6046C146.188 24.6046 146.258 24.5634 146.341 24.481C146.423 24.3963 146.494 24.3245 146.553 24.2657L146.595 24.2163C146.604 24.2163 146.622 24.2386 146.648 24.2833C146.674 24.3281 146.687 24.3598 146.687 24.3787C146.647 24.4469 146.574 24.534 146.468 24.6399C146.364 24.7458 146.251 24.84 146.129 24.9223C146.007 25.0024 145.896 25.0424 145.797 25.0424C145.722 25.0424 145.663 25.0082 145.621 24.94C145.578 24.8717 145.557 24.7835 145.557 24.6752C145.557 24.6046 145.574 24.4799 145.606 24.301L145.854 23.136C145.887 22.976 145.903 22.8489 145.903 22.7547C145.903 22.5523 145.858 22.4511 145.769 22.4511C145.691 22.4511 145.586 22.51 145.455 22.6276C145.323 22.743 145.185 22.8971 145.042 23.0901C144.9 23.2831 144.772 23.4984 144.657 23.7361C144.541 23.9715 144.46 24.2092 144.413 24.4493L144.293 25C144.23 25.0188 144.157 25.0282 144.074 25.0282C143.994 25.0282 143.914 25.0188 143.834 25L144.251 22.8253C144.274 22.6629 144.286 22.5688 144.286 22.5429C144.286 22.4252 144.263 22.3664 144.216 22.3664C144.176 22.3664 144.115 22.404 144.035 22.4794C143.998 22.517 143.957 22.5582 143.912 22.6029C143.87 22.6476 143.841 22.6794 143.827 22.6982C143.818 22.6982 143.8 22.6759 143.774 22.6312C143.748 22.5864 143.735 22.5547 143.735 22.5358C143.773 22.4723 143.841 22.3935 143.94 22.2993C144.039 22.2028 144.145 22.1169 144.258 22.0416C144.371 21.9663 144.467 21.9286 144.547 21.9286ZM151.256 21.9286C151.431 21.9286 151.602 21.9592 151.772 22.0204L151.341 24.2516C151.327 24.3081 151.32 24.3669 151.32 24.4281C151.32 24.5458 151.343 24.6046 151.391 24.6046C151.449 24.6046 151.52 24.5634 151.602 24.481C151.685 24.3963 151.755 24.3245 151.814 24.2657L151.857 24.2163C151.866 24.2163 151.884 24.2386 151.909 24.2833C151.935 24.3281 151.948 24.3598 151.948 24.3787C151.908 24.4469 151.835 24.534 151.729 24.6399C151.626 24.7458 151.513 24.84 151.391 24.9223C151.268 25.0024 151.158 25.0424 151.059 25.0424C150.983 25.0424 150.925 25.0082 150.882 24.94C150.84 24.8717 150.819 24.7835 150.819 24.6752C150.819 24.6023 150.835 24.4775 150.868 24.301L150.893 24.1774C150.9 24.1445 150.903 24.1245 150.903 24.1174C150.866 24.188 150.812 24.2751 150.741 24.3787C150.67 24.4799 150.589 24.5811 150.497 24.6823C150.406 24.7835 150.309 24.8682 150.208 24.9365C150.107 25.0024 150.007 25.0353 149.908 25.0353C149.701 25.0353 149.537 24.9423 149.417 24.7564C149.297 24.5705 149.237 24.3457 149.237 24.0821C149.237 23.7456 149.337 23.4102 149.537 23.076C149.671 22.85 149.831 22.6512 150.017 22.4794C150.206 22.3075 150.407 22.1734 150.621 22.0769C150.835 21.9781 151.047 21.9286 151.256 21.9286ZM150.96 22.2534C150.821 22.2534 150.681 22.3028 150.54 22.4017C150.398 22.4982 150.269 22.6288 150.151 22.7936C150.034 22.9559 149.938 23.1372 149.865 23.3372C149.795 23.5349 149.76 23.7338 149.76 23.9338C149.76 24.3951 149.88 24.6258 150.12 24.6258C150.204 24.6258 150.296 24.5787 150.395 24.4846C150.494 24.3904 150.591 24.2657 150.688 24.1104C150.784 23.955 150.869 23.7867 150.942 23.6055C151.017 23.422 151.073 23.2419 151.108 23.0654L151.249 22.3452C151.193 22.284 151.096 22.2534 150.96 22.2534ZM161.095 20.3541C161.504 20.3541 161.847 20.4318 162.122 20.5871C162.4 20.7424 162.608 20.9543 162.747 21.2226C162.888 21.4909 162.959 21.7968 162.959 22.1404C162.959 22.3805 162.923 22.63 162.853 22.8889C162.782 23.1478 162.67 23.4043 162.517 23.6585C162.364 23.9127 162.182 24.141 161.97 24.3434C161.758 24.5458 161.497 24.7093 161.186 24.8341C160.876 24.9588 160.539 25.0212 160.177 25.0212C160.134 25.0212 160.071 25.0188 159.986 25.0141C159.904 25.0118 159.8 25.0082 159.675 25.0035C159.551 24.9988 159.437 24.9953 159.333 24.9929C159.232 24.9882 159.141 24.9859 159.061 24.9859L158.277 25.0212C158.273 25.0165 158.27 24.9976 158.27 24.9647C158.27 24.8753 158.282 24.8305 158.306 24.8305C158.341 24.8305 158.394 24.8223 158.465 24.8058C158.535 24.787 158.602 24.7646 158.666 24.7388C158.729 24.7105 158.767 24.6823 158.779 24.654C158.845 24.5199 158.906 24.301 158.962 23.9974L159.471 21.3708C159.532 21.0272 159.558 20.8083 159.548 20.7142C159.546 20.6883 159.519 20.6624 159.467 20.6365C159.415 20.6106 159.359 20.5895 159.298 20.573C159.237 20.5542 159.188 20.5447 159.153 20.5447C159.144 20.5447 159.139 20.5353 159.139 20.5165C159.139 20.4412 159.155 20.3871 159.188 20.3541C159.297 20.3588 159.413 20.3623 159.538 20.3647C159.665 20.3671 159.8 20.3682 159.944 20.3682C160.026 20.3682 160.12 20.3682 160.226 20.3682C160.332 20.3659 160.45 20.3635 160.579 20.3612C160.709 20.3588 160.816 20.3576 160.9 20.3576C160.988 20.3553 161.052 20.3541 161.095 20.3541ZM161.081 20.6648C160.577 20.6648 160.294 20.7024 160.233 20.7777C160.158 20.8742 160.094 21.0602 160.043 21.3355L159.527 24.0186C159.513 24.0845 159.506 24.1845 159.506 24.3186C159.506 24.4552 159.511 24.534 159.52 24.5552C159.562 24.6493 159.835 24.6964 160.339 24.6964C160.737 24.6964 161.09 24.5681 161.398 24.3116C161.709 24.0551 161.943 23.7291 162.101 23.3337C162.258 22.9383 162.337 22.5194 162.337 22.0769C162.337 21.6627 162.234 21.3238 162.027 21.0602C161.82 20.7966 161.504 20.6648 161.081 20.6648ZM167.02 21.9286C167.298 21.9286 167.513 22.0251 167.666 22.2181C167.819 22.4111 167.895 22.6771 167.895 23.016C167.895 23.2584 167.848 23.4996 167.754 23.7397C167.66 23.9774 167.537 24.1939 167.384 24.3893C167.231 24.5846 167.062 24.7411 166.879 24.8588C166.695 24.9765 166.514 25.0353 166.335 25.0353C166.053 25.0353 165.837 24.9435 165.689 24.7599C165.541 24.5764 165.467 24.3151 165.467 23.9762C165.467 23.7314 165.512 23.489 165.604 23.249C165.698 23.0066 165.822 22.7865 165.975 22.5888C166.128 22.3887 166.295 22.2287 166.476 22.1087C166.66 21.9886 166.841 21.9286 167.02 21.9286ZM166.935 22.2181C166.818 22.2181 166.703 22.2699 166.593 22.3734C166.482 22.4747 166.382 22.6076 166.293 22.7724C166.203 22.9371 166.133 23.1172 166.081 23.3125C166.029 23.5079 166.003 23.6985 166.003 23.8844C166.003 24.1574 166.047 24.3693 166.134 24.5199C166.221 24.6705 166.33 24.7458 166.462 24.7458C166.58 24.7458 166.692 24.6952 166.797 24.594C166.906 24.4905 167.002 24.3563 167.087 24.1916C167.172 24.0245 167.238 23.8432 167.285 23.6479C167.334 23.4525 167.359 23.2607 167.359 23.0725C167.359 22.7947 167.321 22.5829 167.246 22.437C167.171 22.2911 167.067 22.2181 166.935 22.2181ZM172.126 21.9286C172.343 21.9286 172.499 21.9839 172.596 22.0946C172.692 22.2052 172.74 22.3264 172.74 22.4582C172.74 22.6653 172.635 22.87 172.423 23.0725C172.281 23.2066 172.13 23.3219 171.967 23.4184C171.805 23.5126 171.648 23.5843 171.498 23.6338C171.347 23.6832 171.22 23.7079 171.116 23.7079C171.098 23.7079 171.088 23.7903 171.088 23.955C171.088 24.1668 171.129 24.3281 171.212 24.4387C171.294 24.5493 171.406 24.6046 171.547 24.6046C171.606 24.6046 171.677 24.5881 171.759 24.5552C171.841 24.5222 171.905 24.4869 171.95 24.4493C171.997 24.4093 172.023 24.3881 172.027 24.3857C172.032 24.3834 172.041 24.3763 172.056 24.3645C172.07 24.3504 172.112 24.3081 172.183 24.2375L172.204 24.2163C172.213 24.2163 172.231 24.2386 172.257 24.2833C172.283 24.3281 172.296 24.3598 172.296 24.3787C172.253 24.454 172.178 24.5446 172.07 24.6505C171.964 24.7541 171.844 24.8458 171.71 24.9259C171.575 25.0035 171.444 25.0424 171.314 25.0424C171.069 25.0424 170.882 24.947 170.753 24.7564C170.623 24.5658 170.559 24.3034 170.559 23.9691C170.559 23.7432 170.606 23.5114 170.7 23.2737C170.794 23.0336 170.919 22.8124 171.074 22.61C171.229 22.4076 171.399 22.244 171.582 22.1193C171.766 21.9922 171.947 21.9286 172.126 21.9286ZM172.056 22.2181C171.945 22.2181 171.835 22.264 171.727 22.3558C171.619 22.4476 171.52 22.5606 171.431 22.6947C171.341 22.8289 171.269 22.9642 171.215 23.1007C171.164 23.2348 171.138 23.3455 171.138 23.4325C171.138 23.4514 171.147 23.4608 171.166 23.4608C171.251 23.4608 171.353 23.4302 171.473 23.369C171.593 23.3055 171.711 23.2231 171.826 23.1219C171.941 23.0207 172.038 22.9101 172.116 22.79C172.193 22.6676 172.232 22.5476 172.232 22.4299C172.232 22.2887 172.173 22.2181 172.056 22.2181ZM177.48 21.9286C177.621 21.9286 177.744 21.9745 177.85 22.0663C177.956 22.1581 178.009 22.2722 178.009 22.4088C178.009 22.7147 177.874 22.9665 177.603 23.1642C177.332 23.3619 176.985 23.4961 176.562 23.5667C176.842 23.988 177.057 24.268 177.208 24.4069C177.354 24.5434 177.48 24.6117 177.585 24.6117C177.67 24.6117 177.751 24.5764 177.829 24.5058C177.907 24.4352 177.964 24.3669 178.002 24.301C178.016 24.301 178.038 24.3198 178.069 24.3575C178.1 24.3951 178.115 24.4234 178.115 24.4422C178.101 24.494 178.055 24.5669 177.977 24.6611C177.902 24.7552 177.814 24.84 177.713 24.9153C177.611 24.9906 177.515 25.0282 177.423 25.0282C177.303 25.0282 177.179 24.9871 177.052 24.9047C176.928 24.82 176.824 24.7246 176.742 24.6187C176.711 24.5811 176.684 24.5481 176.66 24.5199C176.637 24.4893 176.616 24.4622 176.597 24.4387C176.562 24.3963 176.513 24.3269 176.452 24.2304L176.329 24.0327C176.291 23.9715 176.252 23.9044 176.212 23.8315C176.172 23.7562 176.136 23.6961 176.103 23.6514L175.841 25C175.761 25.0235 175.684 25.0353 175.608 25.0353C175.545 25.0353 175.467 25.0235 175.375 25L176.145 21.0531C176.187 20.8578 176.209 20.733 176.209 20.6789C176.209 20.5895 176.065 20.5447 175.778 20.5447C175.764 20.5447 175.757 20.5306 175.757 20.5024C175.757 20.4459 175.776 20.3988 175.813 20.3612C176.117 20.3329 176.413 20.267 176.703 20.1635C176.731 20.1776 176.745 20.2223 176.745 20.2976C176.745 20.3494 176.715 20.5259 176.653 20.8272L176.286 22.7265L176.364 22.6347C176.437 22.5476 176.531 22.4499 176.646 22.3417C176.762 22.2311 176.891 22.1346 177.035 22.0522C177.178 21.9698 177.327 21.9286 177.48 21.9286ZM177.225 22.2605C177.15 22.2605 177.056 22.3075 176.943 22.4017C176.83 22.4935 176.718 22.6041 176.608 22.7335C176.497 22.863 176.404 22.9877 176.329 23.1078C176.253 23.2254 176.216 23.3102 176.216 23.3619C176.216 23.3713 176.22 23.3761 176.23 23.3761C176.239 23.3761 176.25 23.3761 176.262 23.3761C176.273 23.3737 176.287 23.3713 176.304 23.369C176.335 23.3643 176.393 23.3537 176.48 23.3372C176.568 23.3207 176.652 23.3007 176.735 23.2772C176.855 23.2419 176.974 23.1925 177.091 23.1289C177.211 23.0654 177.31 22.9865 177.388 22.8924C177.468 22.7983 177.508 22.6888 177.508 22.5641C177.508 22.3617 177.414 22.2605 177.225 22.2605ZM183.052 21.9286C183.287 21.9286 183.405 22.084 183.405 22.3946C183.405 22.6135 183.372 22.87 183.306 23.1642L183.073 24.2516C183.059 24.3081 183.052 24.3669 183.052 24.4281C183.052 24.5458 183.075 24.6046 183.122 24.6046C183.181 24.6046 183.252 24.5634 183.334 24.481C183.417 24.3963 183.487 24.3245 183.546 24.2657L183.588 24.2163C183.598 24.2163 183.615 24.2386 183.641 24.2833C183.667 24.3281 183.68 24.3598 183.68 24.3787C183.64 24.4469 183.567 24.534 183.461 24.6399C183.358 24.7458 183.245 24.84 183.122 24.9223C183 25.0024 182.889 25.0424 182.791 25.0424C182.715 25.0424 182.656 25.0082 182.614 24.94C182.572 24.8717 182.55 24.7835 182.55 24.6752C182.55 24.6046 182.567 24.4799 182.6 24.301L182.847 23.136C182.88 22.976 182.896 22.8489 182.896 22.7547C182.896 22.5523 182.852 22.4511 182.762 22.4511C182.685 22.4511 182.58 22.51 182.448 22.6276C182.316 22.743 182.179 22.8971 182.035 23.0901C181.894 23.2831 181.766 23.4984 181.65 23.7361C181.535 23.9715 181.454 24.2092 181.407 24.4493L181.287 25C181.223 25.0188 181.15 25.0282 181.068 25.0282C180.988 25.0282 180.908 25.0188 180.828 25L181.59 21.0531C181.633 20.8436 181.654 20.7189 181.654 20.6789C181.654 20.5895 181.51 20.5447 181.223 20.5447C181.209 20.5447 181.202 20.5306 181.202 20.5024C181.202 20.4459 181.221 20.3988 181.258 20.3612C181.564 20.3329 181.861 20.267 182.148 20.1635C182.176 20.1776 182.19 20.2223 182.19 20.2976C182.19 20.3306 182.16 20.5071 182.099 20.8272L181.611 23.3196C181.656 23.2396 181.758 23.0936 181.919 22.8818C182.024 22.743 182.147 22.6006 182.286 22.4546C182.427 22.3064 182.566 22.1816 182.702 22.0804C182.841 21.9792 182.958 21.9286 183.052 21.9286ZM188.264 21.9286C188.438 21.9286 188.61 21.9592 188.779 22.0204L188.349 24.2516C188.335 24.3081 188.327 24.3669 188.327 24.4281C188.327 24.5458 188.351 24.6046 188.398 24.6046C188.457 24.6046 188.528 24.5634 188.61 24.481C188.692 24.3963 188.763 24.3245 188.822 24.2657L188.864 24.2163C188.873 24.2163 188.891 24.2386 188.917 24.2833C188.943 24.3281 188.956 24.3598 188.956 24.3787C188.916 24.4469 188.843 24.534 188.737 24.6399C188.633 24.7458 188.52 24.84 188.398 24.9223C188.276 25.0024 188.165 25.0424 188.066 25.0424C187.991 25.0424 187.932 25.0082 187.89 24.94C187.847 24.8717 187.826 24.7835 187.826 24.6752C187.826 24.6023 187.843 24.4775 187.876 24.301L187.9 24.1774C187.907 24.1445 187.911 24.1245 187.911 24.1174C187.873 24.188 187.819 24.2751 187.748 24.3787C187.678 24.4799 187.597 24.5811 187.505 24.6823C187.413 24.7835 187.317 24.8682 187.215 24.9365C187.114 25.0024 187.014 25.0353 186.915 25.0353C186.708 25.0353 186.545 24.9423 186.425 24.7564C186.305 24.5705 186.245 24.3457 186.245 24.0821C186.245 23.7456 186.345 23.4102 186.545 23.076C186.679 22.85 186.839 22.6512 187.025 22.4794C187.213 22.3075 187.414 22.1734 187.628 22.0769C187.843 21.9781 188.054 21.9286 188.264 21.9286ZM187.967 22.2534C187.829 22.2534 187.688 22.3028 187.547 22.4017C187.406 22.4982 187.277 22.6288 187.159 22.7936C187.041 22.9559 186.946 23.1372 186.873 23.3372C186.802 23.5349 186.767 23.7338 186.767 23.9338C186.767 24.3951 186.887 24.6258 187.127 24.6258C187.212 24.6258 187.304 24.5787 187.403 24.4846C187.501 24.3904 187.599 24.2657 187.696 24.1104C187.792 23.955 187.877 23.7867 187.95 23.6055C188.025 23.422 188.08 23.2419 188.116 23.0654L188.257 22.3452C188.2 22.284 188.104 22.2534 187.967 22.2534ZM192.523 21.9286C192.598 21.9286 192.657 21.9628 192.699 22.031C192.742 22.0993 192.763 22.1875 192.763 22.2958C192.763 22.3993 192.749 22.5241 192.721 22.67L192.608 23.2631C192.666 23.1242 192.742 22.9783 192.834 22.8253C192.928 22.67 193.028 22.5241 193.134 22.3876C193.24 22.2511 193.344 22.1404 193.448 22.0557C193.551 21.971 193.643 21.9286 193.723 21.9286C193.883 21.9286 194.013 22.0039 194.112 22.1546C194.112 22.4699 194.024 22.6276 193.85 22.6276C193.813 22.6276 193.768 22.5982 193.716 22.5394C193.664 22.4805 193.61 22.4511 193.554 22.4511C193.485 22.4511 193.396 22.5076 193.285 22.6206C193.175 22.7335 193.061 22.8818 192.943 23.0654C192.825 23.2466 192.719 23.4431 192.625 23.655C192.531 23.8644 192.466 24.0656 192.431 24.2586L192.297 25C192.217 25.0141 192.139 25.0212 192.064 25.0212C191.974 25.0212 191.887 25.0141 191.803 25L192.226 22.8253C192.25 22.6629 192.262 22.5688 192.262 22.5429C192.262 22.4252 192.238 22.3664 192.191 22.3664C192.151 22.3664 192.091 22.404 192.011 22.4794C191.973 22.517 191.932 22.5582 191.887 22.6029C191.845 22.6476 191.817 22.6794 191.803 22.6982C191.793 22.6982 191.776 22.6759 191.75 22.6312C191.724 22.5864 191.711 22.5547 191.711 22.5358C191.749 22.4723 191.817 22.3935 191.916 22.2993C192.015 22.2028 192.12 22.1169 192.233 22.0416C192.346 21.9663 192.443 21.9286 192.523 21.9286ZM198.187 21.9286C198.361 21.9286 198.533 21.9592 198.702 22.0204L198.272 24.2516C198.258 24.3081 198.25 24.3669 198.25 24.4281C198.25 24.5458 198.274 24.6046 198.321 24.6046C198.38 24.6046 198.451 24.5634 198.533 24.481C198.615 24.3963 198.686 24.3245 198.745 24.2657L198.787 24.2163C198.796 24.2163 198.814 24.2386 198.84 24.2833C198.866 24.3281 198.879 24.3598 198.879 24.3787C198.839 24.4469 198.766 24.534 198.66 24.6399C198.556 24.7458 198.443 24.84 198.321 24.9223C198.199 25.0024 198.088 25.0424 197.989 25.0424C197.914 25.0424 197.855 25.0082 197.813 24.94C197.77 24.8717 197.749 24.7835 197.749 24.6752C197.749 24.6023 197.766 24.4775 197.799 24.301L197.823 24.1774C197.83 24.1445 197.834 24.1245 197.834 24.1174C197.796 24.188 197.742 24.2751 197.671 24.3787C197.601 24.4799 197.52 24.5811 197.428 24.6823C197.336 24.7835 197.24 24.8682 197.138 24.9365C197.037 25.0024 196.937 25.0353 196.838 25.0353C196.631 25.0353 196.468 24.9423 196.348 24.7564C196.228 24.5705 196.168 24.3457 196.168 24.0821C196.168 23.7456 196.268 23.4102 196.468 23.076C196.602 22.85 196.762 22.6512 196.948 22.4794C197.136 22.3075 197.337 22.1734 197.551 22.0769C197.766 21.9781 197.977 21.9286 198.187 21.9286ZM197.89 22.2534C197.752 22.2534 197.611 22.3028 197.47 22.4017C197.329 22.4982 197.2 22.6288 197.082 22.7936C196.964 22.9559 196.869 23.1372 196.796 23.3372C196.725 23.5349 196.69 23.7338 196.69 23.9338C196.69 24.3951 196.81 24.6258 197.05 24.6258C197.135 24.6258 197.227 24.5787 197.326 24.4846C197.424 24.3904 197.522 24.2657 197.619 24.1104C197.715 23.955 197.8 23.7867 197.873 23.6055C197.948 23.422 198.003 23.2419 198.039 23.0654L198.18 22.3452C198.123 22.284 198.027 22.2534 197.89 22.2534ZM202.396 21.9286C202.472 21.9286 202.531 21.9628 202.573 22.031C202.615 22.0993 202.637 22.1875 202.637 22.2958C202.637 22.3993 202.622 22.5241 202.594 22.67L202.467 23.3196C202.512 23.2396 202.614 23.0936 202.774 22.8818C202.88 22.743 203.002 22.6006 203.141 22.4546C203.283 22.3064 203.421 22.1816 203.558 22.0804C203.697 21.9792 203.813 21.9286 203.907 21.9286C204.143 21.9286 204.26 22.084 204.26 22.3946C204.26 22.6135 204.228 22.87 204.162 23.1642L203.929 24.2516C203.914 24.3081 203.907 24.3669 203.907 24.4281C203.907 24.5458 203.931 24.6046 203.978 24.6046C204.037 24.6046 204.107 24.5634 204.19 24.481C204.272 24.3963 204.343 24.3245 204.402 24.2657L204.444 24.2163C204.453 24.2163 204.471 24.2386 204.497 24.2833C204.523 24.3281 204.536 24.3598 204.536 24.3787C204.496 24.4469 204.423 24.534 204.317 24.6399C204.213 24.7458 204.1 24.84 203.978 24.9223C203.856 25.0024 203.745 25.0424 203.646 25.0424C203.571 25.0424 203.512 25.0082 203.47 24.94C203.427 24.8717 203.406 24.7835 203.406 24.6752C203.406 24.6046 203.423 24.4799 203.456 24.301L203.703 23.136C203.736 22.976 203.752 22.8489 203.752 22.7547C203.752 22.5523 203.707 22.4511 203.618 22.4511C203.54 22.4511 203.436 22.51 203.304 22.6276C203.172 22.743 203.034 22.8971 202.891 23.0901C202.749 23.2831 202.621 23.4984 202.506 23.7361C202.391 23.9715 202.309 24.2092 202.262 24.4493L202.142 25C202.079 25.0188 202.006 25.0282 201.923 25.0282C201.843 25.0282 201.763 25.0188 201.683 25L202.1 22.8253C202.123 22.6629 202.135 22.5688 202.135 22.5429C202.135 22.4252 202.112 22.3664 202.065 22.3664C202.025 22.3664 201.965 22.404 201.885 22.4794C201.847 22.517 201.806 22.5582 201.761 22.6029C201.719 22.6476 201.69 22.6794 201.676 22.6982C201.667 22.6982 201.649 22.6759 201.623 22.6312C201.597 22.5864 201.584 22.5547 201.584 22.5358C201.622 22.4723 201.69 22.3935 201.789 22.2993C201.888 22.2028 201.994 22.1169 202.107 22.0416C202.22 21.9663 202.316 21.9286 202.396 21.9286Z" fill="#FFFDD0"/>
<path opacity="0.9" d="M50.3921 45.784C50.0027 45.6187 49.6161 45.536 49.2321 45.536C48.4534 45.536 48.0641 45.824 48.0641 46.4C48.0641 46.6507 48.1521 46.8853 48.3281 47.104C48.5041 47.3173 48.7174 47.5093 48.9681 47.68C49.2187 47.8453 49.4694 48.016 49.7201 48.192C49.9707 48.368 50.1841 48.5787 50.3601 48.824C50.5361 49.0693 50.6241 49.336 50.6241 49.624C50.6241 50.1093 50.4614 50.4773 50.1361 50.728C49.8107 50.9733 49.3601 51.096 48.7841 51.096C48.2134 51.096 47.7254 50.9493 47.3201 50.656L47.5121 50.368C47.8961 50.6187 48.3174 50.744 48.7761 50.744C49.2347 50.744 49.5867 50.6533 49.8321 50.472C50.0774 50.2853 50.2001 50.0187 50.2001 49.672C50.2001 49.432 50.1121 49.2053 49.9361 48.992C49.7601 48.7733 49.5467 48.5787 49.2961 48.408C49.0454 48.232 48.7947 48.0533 48.5441 47.872C48.2934 47.6907 48.0801 47.4747 47.9041 47.224C47.7281 46.9733 47.6401 46.704 47.6401 46.416C47.6401 46.0373 47.7787 45.7387 48.0561 45.52C48.3387 45.296 48.7174 45.184 49.1921 45.184C49.6721 45.184 50.1174 45.28 50.5281 45.472L50.3921 45.784ZM55.3317 46.136H53.5717V45.808H57.4517V46.136H55.6917V51H55.3317V46.136ZM64.6326 50.464C64.2806 50.8747 63.7446 51.08 63.0246 51.08C62.3046 51.08 61.7686 50.8747 61.4166 50.464C61.0646 50.0533 60.8886 49.4853 60.8886 48.76V45.808H61.2566V48.76C61.2566 50.088 61.8459 50.752 63.0246 50.752C64.2032 50.752 64.7926 50.088 64.7926 48.76V45.808H65.1606V48.76C65.1606 49.4853 64.9846 50.0533 64.6326 50.464ZM71.0943 50.728C71.777 50.728 72.3236 50.544 72.7343 50.176C73.1503 49.808 73.3583 49.2533 73.3583 48.512C73.3583 47.7707 73.1236 47.1813 72.6543 46.744C72.1903 46.3067 71.617 46.088 70.9343 46.088C70.449 46.088 70.0756 46.0987 69.8143 46.12V50.672C70.1343 50.7093 70.561 50.728 71.0943 50.728ZM70.9343 45.76C71.7343 45.76 72.401 46.008 72.9343 46.504C73.473 46.9947 73.7423 47.664 73.7423 48.512C73.7423 49.36 73.4943 49.9973 72.9983 50.424C72.5076 50.8507 71.873 51.064 71.0943 51.064C70.5556 51.064 70.001 51.0373 69.4303 50.984V45.808C69.857 45.776 70.3583 45.76 70.9343 45.76ZM77.7444 51V45.808H80.1684V46.128H78.1124V48.016H79.9684V48.328H78.1124V50.664H80.2484V51H77.7444ZM84.1209 51V45.776H84.2969L87.7049 49.696C87.8276 49.8347 87.9396 49.9733 88.0409 50.112C88.1476 50.2453 88.2036 50.3147 88.2089 50.32C88.1983 50.192 88.1929 49.9413 88.1929 49.568V45.808H88.5609V51.032H88.3849L84.9129 47.048L84.4729 46.512C84.4836 46.6187 84.4889 46.8693 84.4889 47.264V51H84.1209ZM93.8083 46.136H92.0483V45.808H95.9283V46.136H94.1683V51H93.8083V46.136ZM107.496 51.096C106.664 51.096 105.949 50.8133 105.352 50.248C104.755 49.6773 104.456 48.976 104.456 48.144C104.456 47.3067 104.717 46.6053 105.24 46.04C105.763 45.4693 106.432 45.184 107.248 45.184C107.888 45.184 108.536 45.2907 109.192 45.504L109.088 45.824C108.448 45.632 107.835 45.536 107.248 45.536C106.549 45.536 105.979 45.7867 105.536 46.288C105.093 46.7893 104.872 47.4027 104.872 48.128C104.872 48.8533 105.128 49.472 105.64 49.984C106.157 50.4907 106.776 50.744 107.496 50.744C108.125 50.744 108.669 50.648 109.128 50.456L109.248 50.728C109.045 50.8453 108.779 50.936 108.448 51C108.123 51.064 107.805 51.096 107.496 51.096ZM115.259 51.08C114.518 51.08 113.896 50.8213 113.395 50.304C112.894 49.7867 112.643 49.1547 112.643 48.408C112.643 47.656 112.894 47.0213 113.395 46.504C113.896 45.9867 114.518 45.728 115.259 45.728C116 45.728 116.622 45.9867 117.123 46.504C117.624 47.0213 117.875 47.656 117.875 48.408C117.875 49.1547 117.624 49.7867 117.123 50.304C116.622 50.8213 116 51.08 115.259 51.08ZM115.259 46.056C114.619 46.056 114.086 46.2827 113.659 46.736C113.238 47.1893 113.027 47.7467 113.027 48.408C113.027 49.064 113.238 49.6187 113.659 50.072C114.086 50.52 114.619 50.744 115.259 50.744C115.904 50.744 116.438 50.52 116.859 50.072C117.28 49.6187 117.491 49.064 117.491 48.408C117.491 47.7467 117.28 47.1893 116.859 46.736C116.438 46.2827 115.904 46.056 115.259 46.056ZM124.287 50.728H124.071L122.559 47.056C122.495 46.912 122.431 46.744 122.367 46.552C122.367 46.5573 122.361 46.5867 122.351 46.64C122.345 46.6933 122.337 46.7653 122.327 46.856C122.316 46.9413 122.305 47.0133 122.295 47.072L121.695 51H121.335L122.183 45.776H122.399L124.015 49.608C124.143 49.928 124.207 50.096 124.207 50.112C124.244 50 124.316 49.8347 124.423 49.616L126.223 45.776H126.439L127.231 51H126.847L126.279 47.056C126.241 46.7947 126.223 46.6213 126.223 46.536L125.991 47.064L124.287 50.728ZM133.413 50.728H133.197L131.685 47.056C131.621 46.912 131.557 46.744 131.493 46.552C131.493 46.5573 131.488 46.5867 131.477 46.64C131.472 46.6933 131.464 46.7653 131.453 46.856C131.443 46.9413 131.432 47.0133 131.421 47.072L130.821 51H130.461L131.309 45.776H131.525L133.141 49.608C133.269 49.928 133.333 50.096 133.333 50.112C133.371 50 133.443 49.8347 133.549 49.616L135.349 45.776H135.565L136.357 51H135.973L135.405 47.056C135.368 46.7947 135.349 46.6213 135.349 46.536L135.117 47.064L133.413 50.728ZM143.828 50.464C143.476 50.8747 142.94 51.08 142.22 51.08C141.5 51.08 140.964 50.8747 140.612 50.464C140.26 50.0533 140.084 49.4853 140.084 48.76V45.808H140.452V48.76C140.452 50.088 141.041 50.752 142.22 50.752C143.399 50.752 143.988 50.088 143.988 48.76V45.808H144.356V48.76C144.356 49.4853 144.18 50.0533 143.828 50.464ZM148.626 51V45.776H148.802L152.21 49.696C152.332 49.8347 152.444 49.9733 152.546 50.112C152.652 50.2453 152.708 50.3147 152.714 50.32C152.703 50.192 152.698 49.9413 152.698 49.568V45.808H153.066V51.032H152.89L149.418 47.048L148.978 46.512C148.988 46.6187 148.994 46.8693 148.994 47.264V51H148.626ZM157.385 51V45.808H157.753V51H157.385ZM166.114 50.744C165.714 50.968 165.157 51.08 164.442 51.08C163.733 51.08 163.106 50.824 162.562 50.312C162.023 49.8 161.754 49.1653 161.754 48.408C161.754 47.6453 161.989 47.008 162.458 46.496C162.933 45.984 163.543 45.728 164.29 45.728C164.893 45.728 165.482 45.8213 166.058 46.008L165.962 46.312C165.407 46.1413 164.834 46.056 164.242 46.056C163.65 46.056 163.151 46.2827 162.746 46.736C162.346 47.184 162.146 47.736 162.146 48.392C162.146 49.0427 162.378 49.5973 162.842 50.056C163.311 50.5147 163.853 50.744 164.466 50.744C165.079 50.744 165.589 50.6587 165.994 50.488L166.114 50.744ZM170.082 49.2L169.338 51H168.962L171.138 45.776H171.354L173.546 51H173.138L172.386 49.2H170.082ZM171.226 46.368C171.146 46.608 171.074 46.808 171.01 46.968L170.21 48.888H172.258L171.466 46.976C171.343 46.6773 171.263 46.4747 171.226 46.368ZM177.435 46.136H175.675V45.808H179.555V46.136H177.795V51H177.435V46.136ZM183.04 51V45.808H183.408V51H183.04ZM190.025 51.08C189.283 51.08 188.662 50.8213 188.161 50.304C187.659 49.7867 187.409 49.1547 187.409 48.408C187.409 47.656 187.659 47.0213 188.161 46.504C188.662 45.9867 189.283 45.728 190.025 45.728C190.766 45.728 191.387 45.9867 191.889 46.504C192.39 47.0213 192.641 47.656 192.641 48.408C192.641 49.1547 192.39 49.7867 191.889 50.304C191.387 50.8213 190.766 51.08 190.025 51.08ZM190.025 46.056C189.385 46.056 188.851 46.2827 188.425 46.736C188.003 47.1893 187.793 47.7467 187.793 48.408C187.793 49.064 188.003 49.6187 188.425 50.072C188.851 50.52 189.385 50.744 190.025 50.744C190.67 50.744 191.203 50.52 191.625 50.072C192.046 49.6187 192.257 49.064 192.257 48.408C192.257 47.7467 192.046 47.1893 191.625 46.736C191.203 46.2827 190.67 46.056 190.025 46.056ZM196.644 51V45.776H196.82L200.228 49.696C200.351 49.8347 200.463 49.9733 200.564 50.112C200.671 50.2453 200.727 50.3147 200.732 50.32C200.722 50.192 200.716 49.9413 200.716 49.568V45.808H201.084V51.032H200.908L197.436 47.048L196.996 46.512C197.007 46.6187 197.012 46.8693 197.012 47.264V51H196.644ZM214.199 48.8H214.511C214.5 49.296 214.359 49.7307 214.087 50.104L214.919 51H214.439L213.855 50.368C213.599 50.592 213.305 50.768 212.975 50.896C212.644 51.024 212.324 51.088 212.015 51.088C211.497 51.088 211.092 50.9813 210.799 50.768C210.511 50.5493 210.367 50.2453 210.367 49.856C210.367 49.4667 210.481 49.1387 210.711 48.872C210.94 48.6 211.263 48.3227 211.679 48.04C211.044 47.3573 210.727 46.832 210.727 46.464C210.727 46.096 210.847 45.808 211.087 45.6C211.327 45.3867 211.676 45.28 212.135 45.28C212.593 45.28 212.937 45.3893 213.167 45.608C213.396 45.8213 213.511 46.08 213.511 46.384C213.511 46.6827 213.396 46.9653 213.167 47.232C212.937 47.4987 212.62 47.7893 212.215 48.104L213.871 49.872C213.961 49.7653 214.039 49.6027 214.103 49.384C214.167 49.1653 214.199 48.9707 214.199 48.8ZM212.063 50.776C212.601 50.776 213.121 50.56 213.623 50.128L211.919 48.304C211.129 48.784 210.735 49.264 210.735 49.744C210.735 50.0693 210.849 50.3227 211.079 50.504C211.308 50.6853 211.636 50.776 212.063 50.776ZM213.151 46.448C213.151 46.1813 213.063 45.9733 212.887 45.824C212.716 45.6747 212.473 45.6 212.159 45.6C211.444 45.6 211.087 45.8827 211.087 46.448C211.087 46.5973 211.132 46.76 211.223 46.936C211.319 47.1067 211.42 47.2533 211.527 47.376C211.633 47.4933 211.783 47.648 211.975 47.84C212.759 47.3227 213.151 46.8587 213.151 46.448ZM97.0303 59.704H96.8143L95.1423 55.656C95.0463 55.432 94.969 55.2347 94.9103 55.064L94.8303 55.672L94.1743 60H93.7823L94.7263 54.232H94.9503L96.7343 58.472C96.825 58.6693 96.897 58.856 96.9503 59.032C96.9663 58.9733 97.049 58.7893 97.1983 58.48L99.1903 54.232H99.4063L100.278 60H99.8783L99.2543 55.656C99.2116 55.384 99.1903 55.1787 99.1903 55.04C99.185 55.0453 99.1716 55.072 99.1503 55.12C99.1343 55.1627 99.1023 55.2373 99.0543 55.344C99.0116 55.4453 98.9663 55.552 98.9183 55.664L97.0303 59.704ZM107.85 59.464C107.498 59.8747 106.962 60.08 106.242 60.08C105.522 60.08 104.986 59.8747 104.634 59.464C104.282 59.0533 104.106 58.4853 104.106 57.76V54.808H104.474V57.76C104.474 59.088 105.063 59.752 106.242 59.752C107.42 59.752 108.01 59.088 108.01 57.76V54.808H108.378V57.76C108.378 58.4853 108.202 59.0533 107.85 59.464ZM112.648 60V54.808H113.016V59.664H115.4V60H112.648ZM119.077 55.136H117.317V54.808H121.197V55.136H119.437V60H119.077V55.136ZM124.682 60V54.808H125.05V60H124.682ZM131.779 59.728H131.563L130.051 56.056C129.987 55.912 129.923 55.744 129.859 55.552C129.859 55.5573 129.854 55.5867 129.843 55.64C129.838 55.6933 129.83 55.7653 129.819 55.856C129.808 55.9413 129.798 56.0133 129.787 56.072L129.187 60H128.827L129.675 54.776H129.891L131.507 58.608C131.635 58.928 131.699 59.096 131.699 59.112C131.736 59 131.808 58.8347 131.915 58.616L133.715 54.776H133.931L134.723 60H134.339L133.771 56.056C133.734 55.7947 133.715 55.6213 133.715 55.536L133.483 56.064L131.779 59.728ZM138.497 60V54.808H140.921V55.128H138.865V57.016H140.721V57.328H138.865V59.664H141.001V60H138.497ZM146.538 59.728C147.221 59.728 147.767 59.544 148.178 59.176C148.594 58.808 148.802 58.2533 148.802 57.512C148.802 56.7707 148.567 56.1813 148.098 55.744C147.634 55.3067 147.061 55.088 146.378 55.088C145.893 55.088 145.519 55.0987 145.258 55.12V59.672C145.578 59.7093 146.005 59.728 146.538 59.728ZM146.378 54.76C147.178 54.76 147.845 55.008 148.378 55.504C148.917 55.9947 149.186 56.664 149.186 57.512C149.186 58.36 148.938 58.9973 148.442 59.424C147.951 59.8507 147.317 60.064 146.538 60.064C145.999 60.064 145.445 60.0373 144.874 59.984V54.808C145.301 54.776 145.802 54.76 146.378 54.76ZM153.188 60V54.808H153.556V60H153.188ZM158.133 58.2L157.389 60H157.013L159.189 54.776H159.405L161.597 60H161.189L160.437 58.2H158.133ZM159.277 55.368C159.197 55.608 159.125 55.808 159.061 55.968L158.261 57.888H160.309L159.517 55.976C159.395 55.6773 159.315 55.4747 159.277 55.368ZM172.261 59.72C173.013 59.72 173.616 59.5173 174.069 59.112C174.528 58.7013 174.757 58.0853 174.757 57.264C174.757 56.4427 174.499 55.7893 173.981 55.304C173.469 54.8187 172.835 54.576 172.077 54.576C171.592 54.576 171.171 54.5893 170.813 54.616V59.656C171.16 59.6987 171.643 59.72 172.261 59.72ZM172.077 54.224C172.957 54.224 173.693 54.4987 174.285 55.048C174.877 55.592 175.173 56.3333 175.173 57.272C175.173 57.7467 175.096 58.168 174.941 58.536C174.792 58.8987 174.584 59.1893 174.317 59.408C173.768 59.8507 173.083 60.072 172.261 60.072C171.723 60.072 171.112 60.0427 170.429 59.984V54.28C170.973 54.2427 171.523 54.224 172.077 54.224ZM179.257 60V54.808H181.681V55.128H179.625V57.016H181.481V57.328H179.625V59.664H181.761V60H179.257ZM185.633 60V54.808H186.001V60H185.633ZM191.37 55.032C191.082 55.032 190.848 55.1013 190.666 55.24C190.485 55.3787 190.394 55.5733 190.394 55.824C190.394 56.112 190.514 56.3707 190.754 56.6C190.925 56.7653 191.144 56.9413 191.41 57.128C191.682 57.3093 191.869 57.44 191.97 57.52C192.072 57.6 192.194 57.7093 192.338 57.848C192.6 58.1093 192.73 58.4107 192.73 58.752C192.73 59.1947 192.581 59.5307 192.282 59.76C191.989 59.984 191.576 60.096 191.042 60.096C190.514 60.096 190.072 59.9573 189.714 59.68L189.906 59.4C190.269 59.6453 190.653 59.768 191.058 59.768C191.464 59.768 191.778 59.6827 192.002 59.512C192.232 59.3413 192.346 59.1013 192.346 58.792C192.346 58.5253 192.232 58.28 192.002 58.056C191.842 57.896 191.626 57.7227 191.354 57.536C191.088 57.3493 190.901 57.216 190.794 57.136C190.688 57.0507 190.562 56.9387 190.418 56.8C190.146 56.528 190.01 56.2133 190.01 55.856C190.01 55.4987 190.136 55.2187 190.386 55.016C190.642 54.8133 190.994 54.712 191.442 54.712C191.89 54.712 192.293 54.8 192.65 54.976L192.514 55.272C192.184 55.112 191.802 55.032 191.37 55.032ZM196.605 60V54.808H196.973V60H196.605ZM203.462 55.056C202.87 55.056 202.372 55.2827 201.966 55.736C201.566 56.184 201.366 56.736 201.366 57.392C201.366 58.048 201.593 58.6053 202.046 59.064C202.5 59.5173 203.033 59.744 203.646 59.744C204.265 59.744 204.745 59.672 205.086 59.528V57.392H205.454V59.696C205.038 59.952 204.449 60.08 203.686 60.08C202.924 60.08 202.281 59.8213 201.758 59.304C201.236 58.7867 200.974 58.152 200.974 57.4C200.974 56.6427 201.209 56.008 201.678 55.496C202.153 54.984 202.764 54.728 203.51 54.728C204.113 54.728 204.702 54.8213 205.278 55.008L205.182 55.312C204.628 55.1413 204.054 55.056 203.462 55.056ZM209.601 60V54.776H209.777L213.185 58.696C213.307 58.8347 213.419 58.9733 213.521 59.112C213.627 59.2453 213.683 59.3147 213.689 59.32C213.678 59.192 213.673 58.9413 213.673 58.568V54.808H214.041V60.032H213.865L210.393 56.048L209.953 55.512C209.963 55.6187 209.969 55.8693 209.969 56.264V60H209.601Z" fill="white"/>
</svg>
