<svg width="216" height="58" viewBox="0 0 216 58" fill="none" xmlns="http://www.w3.org/2000/svg">
<path d="M2.21236 34V8.54545H12.255C14.1856 8.54545 15.8304 8.91418 17.1893 9.65163C18.5482 10.3808 19.5839 11.3958 20.2965 12.6967C21.0174 13.9893 21.3778 15.4808 21.3778 17.1712C21.3778 18.8615 21.0133 20.353 20.2841 21.6456C19.5549 22.9382 18.4985 23.945 17.1147 24.6658C15.7392 25.3867 14.0737 25.7472 12.1183 25.7472H5.71733V21.4343H11.2482C12.284 21.4343 13.1374 21.2562 13.8086 20.8999C14.488 20.5353 14.9935 20.034 15.3249 19.396C15.6647 18.7496 15.8345 18.008 15.8345 17.1712C15.8345 16.326 15.6647 15.5885 15.3249 14.9588C14.9935 14.3208 14.488 13.8278 13.8086 13.4798C13.1291 13.1235 12.2674 12.9453 11.2234 12.9453H7.59411V34H2.21236ZM50.0148 21.2727C50.0148 24.0485 49.4887 26.41 48.4363 28.3572C47.3923 30.3045 45.9671 31.7918 44.1608 32.8192C42.3627 33.8384 40.3409 34.348 38.0954 34.348C35.8334 34.348 33.8033 33.8343 32.0052 32.8068C30.2072 31.7794 28.7861 30.292 27.7421 28.3448C26.6981 26.3976 26.176 24.0402 26.176 21.2727C26.176 18.4969 26.6981 16.1354 27.7421 14.1882C28.7861 12.241 30.2072 10.7578 32.0052 9.73864C33.8033 8.71117 35.8334 8.19744 38.0954 8.19744C40.3409 8.19744 42.3627 8.71117 44.1608 9.73864C45.9671 10.7578 47.3923 12.241 48.4363 14.1882C49.4887 16.1354 50.0148 18.4969 50.0148 21.2727ZM44.5585 21.2727C44.5585 19.4747 44.2892 17.9583 43.7506 16.7237C43.2203 15.4891 42.4704 14.5528 41.501 13.9148C40.5315 13.2768 39.3963 12.9577 38.0954 12.9577C36.7945 12.9577 35.6594 13.2768 34.6899 13.9148C33.7204 14.5528 32.9664 15.4891 32.4278 16.7237C31.8975 17.9583 31.6324 19.4747 31.6324 21.2727C31.6324 23.0708 31.8975 24.5871 32.4278 25.8217C32.9664 27.0563 33.7204 27.9927 34.6899 28.6307C35.6594 29.2687 36.7945 29.5877 38.0954 29.5877C39.3963 29.5877 40.5315 29.2687 41.501 28.6307C42.4704 27.9927 43.2203 27.0563 43.7506 25.8217C44.2892 24.5871 44.5585 23.0708 44.5585 21.2727ZM55.7514 34V8.54545H65.794C67.7164 8.54545 69.357 8.88932 70.7159 9.57706C72.0831 10.2565 73.123 11.2218 73.8356 12.473C74.5565 13.7159 74.9169 15.1784 74.9169 16.8604C74.9169 18.5508 74.5523 20.005 73.8232 21.223C73.094 22.4328 72.0375 23.3608 70.6538 24.0071C69.2783 24.6534 67.6128 24.9766 65.6573 24.9766H58.9332V20.6513H64.7873C65.8147 20.6513 66.6682 20.5104 67.3477 20.2287C68.0271 19.947 68.5326 19.5244 68.864 18.9609C69.2037 18.3975 69.3736 17.6973 69.3736 16.8604C69.3736 16.0153 69.2037 15.3027 68.864 14.7227C68.5326 14.1426 68.023 13.7035 67.3352 13.4052C66.6558 13.0986 65.7982 12.9453 64.7624 12.9453H61.1332V34H55.7514ZM69.4979 22.4162L75.8242 34H69.8832L63.6935 22.4162H69.4979ZM79.5007 12.9826V8.54545H100.406V12.9826H92.6133V34H87.2937V12.9826H79.5007ZM105.599 34V8.54545H122.453V12.9826H110.981V19.0479H121.334V23.4851H110.981V34H105.599ZM151.214 21.2727C151.214 24.0485 150.688 26.41 149.636 28.3572C148.592 30.3045 147.166 31.7918 145.36 32.8192C143.562 33.8384 141.54 34.348 139.295 34.348C137.033 34.348 135.003 33.8343 133.204 32.8068C131.406 31.7794 129.985 30.292 128.941 28.3448C127.897 26.3976 127.375 24.0402 127.375 21.2727C127.375 18.4969 127.897 16.1354 128.941 14.1882C129.985 12.241 131.406 10.7578 133.204 9.73864C135.003 8.71117 137.033 8.19744 139.295 8.19744C141.54 8.19744 143.562 8.71117 145.36 9.73864C147.166 10.7578 148.592 12.241 149.636 14.1882C150.688 16.1354 151.214 18.4969 151.214 21.2727ZM145.758 21.2727C145.758 19.4747 145.488 17.9583 144.95 16.7237C144.42 15.4891 143.67 14.5528 142.7 13.9148C141.731 13.2768 140.596 12.9577 139.295 12.9577C137.994 12.9577 136.859 13.2768 135.889 13.9148C134.92 14.5528 134.166 15.4891 133.627 16.7237C133.097 17.9583 132.832 19.4747 132.832 21.2727C132.832 23.0708 133.097 24.5871 133.627 25.8217C134.166 27.0563 134.92 27.9927 135.889 28.6307C136.859 29.2687 137.994 29.5877 139.295 29.5877C140.596 29.5877 141.731 29.2687 142.7 28.6307C143.67 27.9927 144.42 27.0563 144.95 25.8217C145.488 24.5871 145.758 23.0708 145.758 21.2727ZM156.951 34V8.54545H162.332V29.5629H173.245V34H156.951ZM183.941 8.54545V34H178.559V8.54545H183.941ZM213.51 21.2727C213.51 24.0485 212.984 26.41 211.931 28.3572C210.887 30.3045 209.462 31.7918 207.656 32.8192C205.858 33.8384 203.836 34.348 201.591 34.348C199.328 34.348 197.298 33.8343 195.5 32.8068C193.702 31.7794 192.281 30.292 191.237 28.3448C190.193 26.3976 189.671 24.0402 189.671 21.2727C189.671 18.4969 190.193 16.1354 191.237 14.1882C192.281 12.241 193.702 10.7578 195.5 9.73864C197.298 8.71117 199.328 8.19744 201.591 8.19744C203.836 8.19744 205.858 8.71117 207.656 9.73864C209.462 10.7578 210.887 12.241 211.931 14.1882C212.984 16.1354 213.51 18.4969 213.51 21.2727ZM208.054 21.2727C208.054 19.4747 207.784 17.9583 207.246 16.7237C206.715 15.4891 205.966 14.5528 204.996 13.9148C204.027 13.2768 202.891 12.9577 201.591 12.9577C200.29 12.9577 199.154 13.2768 198.185 13.9148C197.216 14.5528 196.462 15.4891 195.923 16.7237C195.393 17.9583 195.127 19.4747 195.127 21.2727C195.127 23.0708 195.393 24.5871 195.923 25.8217C196.462 27.0563 197.216 27.9927 198.185 28.6307C199.154 29.2687 200.29 29.5877 201.591 29.5877C202.891 29.5877 204.027 29.2687 204.996 28.6307C205.966 27.9927 206.715 27.0563 207.246 25.8217C207.784 24.5871 208.054 23.0708 208.054 21.2727Z" fill="#FFFDD0"/>
<rect x="127" y="17" width="73" height="9" fill="black"/>
<path d="M134.666 22.0391L135.709 19.9355L136.078 19.1445C136.184 19.1562 136.338 19.1621 136.541 19.1621C136.609 19.1621 136.686 19.1602 136.77 19.1562C136.855 19.1523 136.949 19.1465 137.051 19.1387C137.059 19.1582 137.059 19.1914 137.051 19.2383C137.043 19.2852 137.033 19.3086 137.021 19.3086C136.971 19.3086 136.917 19.3223 136.86 19.3496C136.804 19.377 136.762 19.4102 136.734 19.4492C136.699 19.4961 136.673 19.5527 136.655 19.6191C136.64 19.6797 136.621 19.7969 136.6 19.9707L136.371 22.209C136.348 22.4102 136.336 22.5645 136.336 22.6719C136.336 22.7539 136.366 22.8057 136.427 22.8271C136.462 22.8389 136.504 22.8477 136.553 22.8535C136.604 22.8574 136.645 22.8594 136.676 22.8594C136.684 22.8594 136.688 22.877 136.688 22.9121C136.688 22.959 136.676 22.9941 136.652 23.0176C136.471 23.0078 136.326 23.001 136.219 22.9971C136.113 22.9912 136.045 22.9883 136.014 22.9883C136.008 22.9883 135.953 22.9912 135.85 22.9971C135.748 23.001 135.598 23.0078 135.398 23.0176C135.391 23.0039 135.387 22.9941 135.387 22.9883C135.387 22.9648 135.392 22.9375 135.401 22.9062C135.411 22.875 135.42 22.8594 135.428 22.8594C135.463 22.8594 135.507 22.8555 135.56 22.8477C135.614 22.8379 135.665 22.8252 135.712 22.8096C135.759 22.792 135.787 22.7734 135.797 22.7539C135.836 22.6641 135.863 22.5811 135.879 22.5049C135.883 22.4834 135.889 22.4365 135.896 22.3643C135.904 22.292 135.91 22.2461 135.914 22.2266L136.148 19.9414C136.16 19.8242 136.166 19.748 136.166 19.7129C136.166 19.6895 136.154 19.6777 136.131 19.6777C136.129 19.6777 136.123 19.6855 136.113 19.7012L134.584 22.8184C134.564 22.8535 134.527 22.8945 134.473 22.9414C134.418 22.9883 134.367 23.0117 134.32 23.0117C134.303 23.0117 134.287 23.0078 134.273 23L133.775 19.6777C133.773 19.6699 133.77 19.666 133.764 19.666C133.752 19.666 133.746 19.6699 133.746 19.6777L133.061 22.2031C132.986 22.4727 132.949 22.6348 132.949 22.6895C132.949 22.7168 132.978 22.7441 133.034 22.7715C133.093 22.7969 133.154 22.8184 133.219 22.8359C133.285 22.8516 133.328 22.8594 133.348 22.8594C133.355 22.8594 133.359 22.8711 133.359 22.8945C133.359 22.9395 133.35 22.9805 133.33 23.0176C133.148 23.0078 133.007 23.001 132.905 22.9971C132.804 22.9912 132.742 22.9883 132.721 22.9883C132.715 22.9883 132.658 22.9912 132.551 22.9971C132.443 23.001 132.285 23.0078 132.076 23.0176C132.068 23.0098 132.064 22.9902 132.064 22.959C132.064 22.8926 132.078 22.8594 132.105 22.8594C132.137 22.8594 132.187 22.8525 132.255 22.8389C132.323 22.8232 132.388 22.8047 132.448 22.7832C132.511 22.7598 132.547 22.7383 132.557 22.7188C132.625 22.5898 132.689 22.416 132.75 22.1973L133.389 19.9062C133.404 19.8301 133.421 19.7549 133.438 19.6807C133.456 19.6045 133.465 19.5312 133.465 19.4609C133.465 19.4316 133.438 19.4053 133.383 19.3818C133.328 19.3584 133.269 19.3398 133.204 19.3262C133.142 19.3105 133.096 19.3027 133.066 19.3027C133.059 19.3027 133.055 19.2891 133.055 19.2617C133.055 19.1973 133.066 19.1582 133.09 19.1445C133.234 19.1484 133.353 19.1514 133.444 19.1533C133.536 19.1553 133.602 19.1562 133.641 19.1562C133.752 19.1562 133.854 19.1553 133.945 19.1533C134.039 19.1514 134.123 19.1484 134.197 19.1445C134.215 19.3047 134.261 19.627 134.335 20.1113C134.409 20.5938 134.512 21.2383 134.643 22.0449C134.643 22.0488 134.645 22.0508 134.648 22.0508C134.66 22.0508 134.666 22.0469 134.666 22.0391ZM140.626 20.4512C140.771 20.4512 140.913 20.4766 141.054 20.5273L140.696 22.3789C140.685 22.4258 140.679 22.4746 140.679 22.5254C140.679 22.623 140.698 22.6719 140.738 22.6719C140.786 22.6719 140.845 22.6377 140.913 22.5693C140.982 22.499 141.04 22.4395 141.089 22.3906L141.124 22.3496C141.132 22.3496 141.147 22.3682 141.168 22.4053C141.19 22.4424 141.2 22.4688 141.2 22.4844C141.167 22.541 141.107 22.6133 141.019 22.7012C140.933 22.7891 140.839 22.8672 140.738 22.9355C140.636 23.002 140.544 23.0352 140.462 23.0352C140.4 23.0352 140.351 23.0068 140.316 22.9502C140.28 22.8936 140.263 22.8203 140.263 22.7305C140.263 22.6699 140.277 22.5664 140.304 22.4199L140.324 22.3174C140.33 22.29 140.333 22.2734 140.333 22.2676C140.302 22.3262 140.257 22.3984 140.198 22.4844C140.14 22.5684 140.072 22.6523 139.996 22.7363C139.92 22.8203 139.84 22.8906 139.756 22.9473C139.672 23.002 139.589 23.0293 139.507 23.0293C139.335 23.0293 139.199 22.9521 139.1 22.7979C139 22.6436 138.95 22.457 138.95 22.2383C138.95 21.959 139.033 21.6807 139.199 21.4033C139.311 21.2158 139.444 21.0508 139.598 20.9082C139.754 20.7656 139.921 20.6543 140.099 20.5742C140.277 20.4922 140.452 20.4512 140.626 20.4512ZM140.38 20.7207C140.265 20.7207 140.149 20.7617 140.031 20.8438C139.914 20.9238 139.807 21.0322 139.709 21.1689C139.612 21.3037 139.532 21.4541 139.472 21.6201C139.413 21.7842 139.384 21.9492 139.384 22.1152C139.384 22.498 139.484 22.6895 139.683 22.6895C139.753 22.6895 139.829 22.6504 139.911 22.5723C139.993 22.4941 140.074 22.3906 140.154 22.2617C140.235 22.1328 140.305 21.9932 140.365 21.8428C140.428 21.6904 140.474 21.541 140.503 21.3945L140.62 20.7969C140.573 20.7461 140.493 20.7207 140.38 20.7207ZM144.161 20.4512C144.223 20.4512 144.272 20.4795 144.307 20.5361C144.342 20.5928 144.36 20.666 144.36 20.7559C144.36 20.8418 144.348 20.9453 144.325 21.0664L144.231 21.5586C144.28 21.4434 144.342 21.3223 144.418 21.1953C144.496 21.0664 144.579 20.9453 144.667 20.832C144.755 20.7188 144.842 20.627 144.928 20.5566C145.014 20.4863 145.09 20.4512 145.157 20.4512C145.289 20.4512 145.397 20.5137 145.479 20.6387C145.479 20.9004 145.407 21.0312 145.262 21.0312C145.231 21.0312 145.194 21.0068 145.151 20.958C145.108 20.9092 145.063 20.8848 145.016 20.8848C144.959 20.8848 144.885 20.9316 144.793 21.0254C144.702 21.1191 144.607 21.2422 144.509 21.3945C144.412 21.5449 144.324 21.708 144.246 21.8838C144.167 22.0576 144.114 22.2246 144.084 22.3848L143.973 23C143.907 23.0117 143.842 23.0176 143.78 23.0176C143.705 23.0176 143.633 23.0117 143.563 23L143.914 21.1953C143.934 21.0605 143.944 20.9824 143.944 20.9609C143.944 20.8633 143.924 20.8145 143.885 20.8145C143.852 20.8145 143.802 20.8457 143.736 20.9082C143.704 20.9395 143.67 20.9736 143.633 21.0107C143.598 21.0479 143.575 21.0742 143.563 21.0898C143.555 21.0898 143.54 21.0713 143.519 21.0342C143.497 20.9971 143.487 20.9707 143.487 20.9551C143.518 20.9023 143.575 20.8369 143.657 20.7588C143.739 20.6787 143.827 20.6074 143.92 20.5449C144.014 20.4824 144.094 20.4512 144.161 20.4512ZM147.525 20.5391H147.935L148.076 19.8242C148.087 19.7852 148.183 19.7656 148.363 19.7656C148.402 19.7656 148.437 19.7676 148.468 19.7715L148.322 20.5391H148.855C148.875 20.5391 148.884 20.5645 148.884 20.6152C148.884 20.6602 148.867 20.7168 148.832 20.7852H148.275L147.964 22.3789C147.953 22.4258 147.947 22.4746 147.947 22.5254C147.947 22.623 147.966 22.6719 148.005 22.6719C148.054 22.6719 148.113 22.6377 148.181 22.5693C148.25 22.499 148.308 22.4395 148.357 22.3906L148.392 22.3496C148.4 22.3496 148.415 22.3682 148.436 22.4053C148.458 22.4424 148.468 22.4688 148.468 22.4844C148.435 22.541 148.375 22.6133 148.287 22.7012C148.201 22.7891 148.107 22.8672 148.005 22.9355C147.904 23.002 147.812 23.0352 147.73 23.0352C147.668 23.0352 147.619 23.0068 147.584 22.9502C147.548 22.8936 147.531 22.8203 147.531 22.7305C147.531 22.6719 147.545 22.5684 147.572 22.4199L147.888 20.7852H147.472C147.461 20.7852 147.455 20.7637 147.455 20.7207C147.455 20.6699 147.478 20.6094 147.525 20.5391ZM151.651 19.2148C151.71 19.2148 151.76 19.2383 151.801 19.2852C151.842 19.332 151.862 19.3867 151.862 19.4492C151.862 19.543 151.832 19.625 151.771 19.6953C151.711 19.7656 151.636 19.8008 151.546 19.8008C151.483 19.8008 151.434 19.7764 151.399 19.7275C151.364 19.6787 151.346 19.6191 151.346 19.5488C151.346 19.459 151.376 19.3809 151.434 19.3145C151.493 19.248 151.565 19.2148 151.651 19.2148ZM151.481 20.4512C151.544 20.4512 151.593 20.4795 151.628 20.5361C151.663 20.5928 151.68 20.666 151.68 20.7559C151.68 20.8359 151.669 20.9395 151.645 21.0664L151.388 22.3789C151.376 22.4258 151.37 22.4746 151.37 22.5254C151.37 22.623 151.389 22.6719 151.429 22.6719C151.477 22.6719 151.536 22.6377 151.604 22.5693C151.673 22.499 151.731 22.4395 151.78 22.3906L151.815 22.3496C151.823 22.3496 151.838 22.3682 151.859 22.4053C151.881 22.4424 151.891 22.4688 151.891 22.4844C151.858 22.541 151.798 22.6133 151.71 22.7012C151.624 22.7891 151.53 22.8672 151.429 22.9355C151.327 23.002 151.235 23.0352 151.153 23.0352C151.091 23.0352 151.042 23.0068 151.007 22.9502C150.971 22.8936 150.954 22.8203 150.954 22.7305C150.954 22.6719 150.968 22.5684 150.995 22.4199L151.235 21.1953C151.255 21.0801 151.264 21.002 151.264 20.9609C151.264 20.8633 151.245 20.8145 151.206 20.8145C151.182 20.8145 151.15 20.8301 151.109 20.8613C151.07 20.8926 151.032 20.9277 150.995 20.9668C150.958 21.0039 150.93 21.0332 150.913 21.0547L150.884 21.0898C150.876 21.0898 150.861 21.0713 150.84 21.0342C150.818 20.9971 150.807 20.9707 150.807 20.9551C150.839 20.9023 150.895 20.8369 150.977 20.7588C151.059 20.6787 151.147 20.6074 151.241 20.5449C151.335 20.4824 151.415 20.4512 151.481 20.4512ZM154.84 20.4512C154.902 20.4512 154.951 20.4795 154.986 20.5361C155.021 20.5928 155.039 20.666 155.039 20.7559C155.039 20.8418 155.027 20.9453 155.004 21.0664L154.898 21.6055C154.936 21.5391 155.021 21.418 155.153 21.2422C155.241 21.127 155.343 21.0088 155.458 20.8877C155.575 20.7646 155.69 20.6611 155.804 20.5771C155.919 20.4932 156.016 20.4512 156.094 20.4512C156.289 20.4512 156.387 20.5801 156.387 20.8379C156.387 21.0195 156.359 21.2324 156.305 21.4766L156.111 22.3789C156.1 22.4258 156.094 22.4746 156.094 22.5254C156.094 22.623 156.113 22.6719 156.152 22.6719C156.201 22.6719 156.26 22.6377 156.328 22.5693C156.396 22.499 156.455 22.4395 156.504 22.3906L156.539 22.3496C156.547 22.3496 156.562 22.3682 156.583 22.4053C156.604 22.4424 156.615 22.4688 156.615 22.4844C156.582 22.541 156.521 22.6133 156.434 22.7012C156.348 22.7891 156.254 22.8672 156.152 22.9355C156.051 23.002 155.959 23.0352 155.877 23.0352C155.814 23.0352 155.766 23.0068 155.73 22.9502C155.695 22.8936 155.678 22.8203 155.678 22.7305C155.678 22.6719 155.691 22.5684 155.719 22.4199L155.924 21.4531C155.951 21.3203 155.965 21.2148 155.965 21.1367C155.965 20.9688 155.928 20.8848 155.854 20.8848C155.789 20.8848 155.702 20.9336 155.593 21.0312C155.483 21.127 155.369 21.2549 155.25 21.415C155.133 21.5752 155.026 21.7539 154.931 21.9512C154.835 22.1465 154.768 22.3438 154.729 22.543L154.629 23C154.576 23.0156 154.516 23.0234 154.447 23.0234C154.381 23.0234 154.314 23.0156 154.248 23L154.594 21.1953C154.613 21.0605 154.623 20.9824 154.623 20.9609C154.623 20.8633 154.604 20.8145 154.564 20.8145C154.531 20.8145 154.481 20.8457 154.415 20.9082C154.384 20.9395 154.35 20.9736 154.312 21.0107C154.277 21.0479 154.254 21.0742 154.242 21.0898C154.234 21.0898 154.22 21.0713 154.198 21.0342C154.177 20.9971 154.166 20.9707 154.166 20.9551C154.197 20.9023 154.254 20.8369 154.336 20.7588C154.418 20.6787 154.506 20.6074 154.6 20.5449C154.693 20.4824 154.773 20.4512 154.84 20.4512ZM160.407 20.4512C160.552 20.4512 160.695 20.4766 160.835 20.5273L160.478 22.3789C160.466 22.4258 160.46 22.4746 160.46 22.5254C160.46 22.623 160.48 22.6719 160.519 22.6719C160.568 22.6719 160.626 22.6377 160.695 22.5693C160.763 22.499 160.821 22.4395 160.87 22.3906L160.905 22.3496C160.913 22.3496 160.928 22.3682 160.949 22.4053C160.971 22.4424 160.982 22.4688 160.982 22.4844C160.948 22.541 160.888 22.6133 160.8 22.7012C160.714 22.7891 160.62 22.8672 160.519 22.9355C160.417 23.002 160.325 23.0352 160.243 23.0352C160.181 23.0352 160.132 23.0068 160.097 22.9502C160.062 22.8936 160.044 22.8203 160.044 22.7305C160.044 22.6699 160.058 22.5664 160.085 22.4199L160.106 22.3174C160.112 22.29 160.114 22.2734 160.114 22.2676C160.083 22.3262 160.038 22.3984 159.98 22.4844C159.921 22.5684 159.854 22.6523 159.778 22.7363C159.701 22.8203 159.621 22.8906 159.537 22.9473C159.453 23.002 159.37 23.0293 159.288 23.0293C159.116 23.0293 158.981 22.9521 158.881 22.7979C158.781 22.6436 158.732 22.457 158.732 22.2383C158.732 21.959 158.815 21.6807 158.981 21.4033C159.092 21.2158 159.225 21.0508 159.379 20.9082C159.535 20.7656 159.702 20.6543 159.88 20.5742C160.058 20.4922 160.234 20.4512 160.407 20.4512ZM160.161 20.7207C160.046 20.7207 159.93 20.7617 159.813 20.8438C159.696 20.9238 159.588 21.0322 159.49 21.1689C159.393 21.3037 159.314 21.4541 159.253 21.6201C159.195 21.7842 159.165 21.9492 159.165 22.1152C159.165 22.498 159.265 22.6895 159.464 22.6895C159.534 22.6895 159.611 22.6504 159.693 22.5723C159.775 22.4941 159.856 22.3906 159.936 22.2617C160.016 22.1328 160.086 21.9932 160.147 21.8428C160.209 21.6904 160.255 21.541 160.284 21.3945L160.402 20.7969C160.355 20.7461 160.275 20.7207 160.161 20.7207ZM168.572 19.1445C168.912 19.1445 169.196 19.209 169.424 19.3379C169.655 19.4668 169.828 19.6426 169.943 19.8652C170.06 20.0879 170.119 20.3418 170.119 20.627C170.119 20.8262 170.089 21.0332 170.031 21.248C169.972 21.4629 169.879 21.6758 169.753 21.8867C169.626 22.0977 169.474 22.2871 169.298 22.4551C169.123 22.623 168.906 22.7588 168.648 22.8623C168.39 22.9658 168.111 23.0176 167.81 23.0176C167.775 23.0176 167.722 23.0156 167.652 23.0117C167.584 23.0098 167.498 23.0068 167.394 23.0029C167.291 22.999 167.196 22.9961 167.11 22.9941C167.026 22.9902 166.951 22.9883 166.884 22.9883L166.234 23.0176C166.23 23.0137 166.228 22.998 166.228 22.9707C166.228 22.8965 166.238 22.8594 166.257 22.8594C166.287 22.8594 166.331 22.8525 166.389 22.8389C166.448 22.8232 166.504 22.8047 166.556 22.7832C166.609 22.7598 166.64 22.7363 166.65 22.7129C166.705 22.6016 166.755 22.4199 166.802 22.168L167.224 19.9883C167.275 19.7031 167.296 19.5215 167.289 19.4434C167.287 19.4219 167.264 19.4004 167.221 19.3789C167.178 19.3574 167.131 19.3398 167.081 19.3262C167.03 19.3105 166.99 19.3027 166.961 19.3027C166.953 19.3027 166.949 19.2949 166.949 19.2793C166.949 19.2168 166.963 19.1719 166.99 19.1445C167.08 19.1484 167.176 19.1514 167.28 19.1533C167.385 19.1553 167.498 19.1562 167.617 19.1562C167.685 19.1562 167.763 19.1562 167.851 19.1562C167.939 19.1543 168.037 19.1523 168.144 19.1504C168.252 19.1484 168.34 19.1475 168.411 19.1475C168.483 19.1455 168.537 19.1445 168.572 19.1445ZM168.56 19.4023C168.142 19.4023 167.908 19.4336 167.857 19.4961C167.795 19.5762 167.742 19.7305 167.699 19.959L167.271 22.1855C167.259 22.2402 167.254 22.3232 167.254 22.4346C167.254 22.5479 167.257 22.6133 167.265 22.6309C167.3 22.709 167.527 22.748 167.945 22.748C168.275 22.748 168.568 22.6416 168.824 22.4287C169.082 22.2158 169.276 21.9453 169.407 21.6172C169.538 21.2891 169.603 20.9414 169.603 20.5742C169.603 20.2305 169.517 19.9492 169.345 19.7305C169.173 19.5117 168.912 19.4023 168.56 19.4023ZM173.489 20.4512C173.72 20.4512 173.898 20.5312 174.025 20.6914C174.152 20.8516 174.216 21.0723 174.216 21.3535C174.216 21.5547 174.177 21.7549 174.098 21.9541C174.02 22.1514 173.918 22.3311 173.791 22.4932C173.664 22.6553 173.524 22.7852 173.372 22.8828C173.22 22.9805 173.069 23.0293 172.921 23.0293C172.686 23.0293 172.508 22.9531 172.385 22.8008C172.262 22.6484 172.2 22.4316 172.2 22.1504C172.2 21.9473 172.238 21.7461 172.314 21.5469C172.392 21.3457 172.495 21.1631 172.622 20.999C172.749 20.833 172.888 20.7002 173.038 20.6006C173.19 20.501 173.341 20.4512 173.489 20.4512ZM173.419 20.6914C173.321 20.6914 173.226 20.7344 173.135 20.8203C173.043 20.9043 172.96 21.0146 172.886 21.1514C172.811 21.2881 172.753 21.4375 172.71 21.5996C172.667 21.7617 172.645 21.9199 172.645 22.0742C172.645 22.3008 172.681 22.4766 172.754 22.6016C172.826 22.7266 172.917 22.7891 173.026 22.7891C173.124 22.7891 173.217 22.7471 173.304 22.6631C173.394 22.5771 173.474 22.4658 173.545 22.3291C173.615 22.1904 173.67 22.04 173.709 21.8779C173.75 21.7158 173.77 21.5566 173.77 21.4004C173.77 21.1699 173.739 20.9941 173.677 20.873C173.614 20.752 173.528 20.6914 173.419 20.6914ZM177.727 20.4512C177.906 20.4512 178.036 20.4971 178.116 20.5889C178.196 20.6807 178.236 20.7812 178.236 20.8906C178.236 21.0625 178.148 21.2324 177.973 21.4004C177.855 21.5117 177.729 21.6074 177.595 21.6875C177.46 21.7656 177.33 21.8252 177.205 21.8662C177.08 21.9072 176.975 21.9277 176.889 21.9277C176.873 21.9277 176.865 21.9961 176.865 22.1328C176.865 22.3086 176.899 22.4424 176.968 22.5342C177.036 22.626 177.129 22.6719 177.246 22.6719C177.295 22.6719 177.354 22.6582 177.422 22.6309C177.49 22.6035 177.543 22.5742 177.58 22.543C177.619 22.5098 177.641 22.4922 177.645 22.4902C177.648 22.4883 177.656 22.4824 177.668 22.4727C177.68 22.4609 177.715 22.4258 177.773 22.3672L177.791 22.3496C177.799 22.3496 177.813 22.3682 177.835 22.4053C177.856 22.4424 177.867 22.4688 177.867 22.4844C177.832 22.5469 177.77 22.6221 177.68 22.71C177.592 22.7959 177.492 22.8721 177.381 22.9385C177.27 23.0029 177.16 23.0352 177.053 23.0352C176.85 23.0352 176.694 22.9561 176.587 22.7979C176.479 22.6396 176.426 22.4219 176.426 22.1445C176.426 21.957 176.465 21.7646 176.543 21.5674C176.621 21.3682 176.725 21.1846 176.854 21.0166C176.982 20.8486 177.123 20.7129 177.275 20.6094C177.428 20.5039 177.578 20.4512 177.727 20.4512ZM177.668 20.6914C177.576 20.6914 177.485 20.7295 177.396 20.8057C177.306 20.8818 177.224 20.9756 177.149 21.0869C177.075 21.1982 177.016 21.3105 176.971 21.4238C176.928 21.5352 176.906 21.627 176.906 21.6992C176.906 21.7148 176.914 21.7227 176.93 21.7227C177 21.7227 177.085 21.6973 177.185 21.6465C177.284 21.5938 177.382 21.5254 177.478 21.4414C177.573 21.3574 177.653 21.2656 177.718 21.166C177.782 21.0645 177.814 20.9648 177.814 20.8672C177.814 20.75 177.766 20.6914 177.668 20.6914ZM182.169 20.4512C182.286 20.4512 182.389 20.4893 182.477 20.5654C182.565 20.6416 182.609 20.7363 182.609 20.8496C182.609 21.1035 182.496 21.3125 182.272 21.4766C182.047 21.6406 181.759 21.752 181.407 21.8105C181.64 22.1602 181.819 22.3926 181.944 22.5078C182.065 22.6211 182.169 22.6777 182.257 22.6777C182.327 22.6777 182.395 22.6484 182.459 22.5898C182.524 22.5312 182.571 22.4746 182.603 22.4199C182.614 22.4199 182.633 22.4355 182.658 22.4668C182.684 22.498 182.696 22.5215 182.696 22.5371C182.685 22.5801 182.647 22.6406 182.582 22.7188C182.52 22.7969 182.446 22.8672 182.362 22.9297C182.279 22.9922 182.198 23.0234 182.122 23.0234C182.023 23.0234 181.92 22.9893 181.815 22.9209C181.711 22.8506 181.625 22.7715 181.557 22.6836C181.531 22.6523 181.509 22.625 181.489 22.6016C181.47 22.5762 181.452 22.5537 181.437 22.5342C181.407 22.499 181.367 22.4414 181.317 22.3613L181.214 22.1973C181.183 22.1465 181.151 22.0908 181.117 22.0303C181.084 21.9678 181.054 21.918 181.027 21.8809L180.81 23C180.743 23.0195 180.679 23.0293 180.616 23.0293C180.564 23.0293 180.499 23.0195 180.423 23L181.062 19.7246C181.097 19.5625 181.114 19.459 181.114 19.4141C181.114 19.3398 180.995 19.3027 180.757 19.3027C180.745 19.3027 180.739 19.291 180.739 19.2676C180.739 19.2207 180.755 19.1816 180.786 19.1504C181.038 19.127 181.284 19.0723 181.525 18.9863C181.548 18.998 181.56 19.0352 181.56 19.0977C181.56 19.1406 181.534 19.2871 181.484 19.5371L181.179 21.1133L181.243 21.0371C181.304 20.9648 181.382 20.8838 181.478 20.7939C181.573 20.7021 181.681 20.6221 181.8 20.5537C181.919 20.4854 182.042 20.4512 182.169 20.4512ZM181.958 20.7266C181.896 20.7266 181.818 20.7656 181.724 20.8438C181.63 20.9199 181.537 21.0117 181.446 21.1191C181.354 21.2266 181.277 21.3301 181.214 21.4297C181.152 21.5273 181.12 21.5977 181.12 21.6406C181.12 21.6484 181.124 21.6523 181.132 21.6523C181.14 21.6523 181.149 21.6523 181.158 21.6523C181.168 21.6504 181.18 21.6484 181.194 21.6465C181.219 21.6426 181.268 21.6338 181.34 21.6201C181.412 21.6064 181.483 21.5898 181.551 21.5703C181.651 21.541 181.749 21.5 181.847 21.4473C181.946 21.3945 182.029 21.3291 182.093 21.251C182.159 21.1729 182.193 21.082 182.193 20.9785C182.193 20.8105 182.114 20.7266 181.958 20.7266ZM186.793 20.4512C186.989 20.4512 187.086 20.5801 187.086 20.8379C187.086 21.0195 187.059 21.2324 187.004 21.4766L186.811 22.3789C186.799 22.4258 186.793 22.4746 186.793 22.5254C186.793 22.623 186.813 22.6719 186.852 22.6719C186.901 22.6719 186.959 22.6377 187.028 22.5693C187.096 22.499 187.155 22.4395 187.204 22.3906L187.239 22.3496C187.246 22.3496 187.261 22.3682 187.283 22.4053C187.304 22.4424 187.315 22.4688 187.315 22.4844C187.282 22.541 187.221 22.6133 187.133 22.7012C187.047 22.7891 186.954 22.8672 186.852 22.9355C186.75 23.002 186.659 23.0352 186.577 23.0352C186.514 23.0352 186.465 23.0068 186.43 22.9502C186.395 22.8936 186.377 22.8203 186.377 22.7305C186.377 22.6719 186.391 22.5684 186.418 22.4199L186.623 21.4531C186.651 21.3203 186.664 21.2148 186.664 21.1367C186.664 20.9688 186.627 20.8848 186.553 20.8848C186.489 20.8848 186.402 20.9336 186.292 21.0312C186.183 21.127 186.069 21.2549 185.95 21.415C185.832 21.5752 185.726 21.7539 185.63 21.9512C185.535 22.1465 185.467 22.3438 185.428 22.543L185.329 23C185.276 23.0156 185.215 23.0234 185.147 23.0234C185.08 23.0234 185.014 23.0156 184.948 23L185.58 19.7246C185.616 19.5508 185.633 19.4473 185.633 19.4141C185.633 19.3398 185.514 19.3027 185.276 19.3027C185.264 19.3027 185.258 19.291 185.258 19.2676C185.258 19.2207 185.274 19.1816 185.305 19.1504C185.559 19.127 185.805 19.0723 186.043 18.9863C186.067 18.998 186.079 19.0352 186.079 19.0977C186.079 19.125 186.053 19.2715 186.002 19.5371L185.598 21.6055C185.635 21.5391 185.72 21.418 185.853 21.2422C185.941 21.127 186.042 21.0088 186.158 20.8877C186.275 20.7646 186.39 20.6611 186.503 20.5771C186.619 20.4932 186.715 20.4512 186.793 20.4512ZM191.119 20.4512C191.263 20.4512 191.406 20.4766 191.546 20.5273L191.189 22.3789C191.177 22.4258 191.171 22.4746 191.171 22.5254C191.171 22.623 191.191 22.6719 191.23 22.6719C191.279 22.6719 191.337 22.6377 191.406 22.5693C191.474 22.499 191.533 22.4395 191.582 22.3906L191.617 22.3496C191.625 22.3496 191.639 22.3682 191.661 22.4053C191.682 22.4424 191.693 22.4688 191.693 22.4844C191.66 22.541 191.599 22.6133 191.511 22.7012C191.425 22.7891 191.332 22.8672 191.23 22.9355C191.129 23.002 191.037 23.0352 190.955 23.0352C190.892 23.0352 190.843 23.0068 190.808 22.9502C190.773 22.8936 190.755 22.8203 190.755 22.7305C190.755 22.6699 190.769 22.5664 190.796 22.4199L190.817 22.3174C190.823 22.29 190.826 22.2734 190.826 22.2676C190.795 22.3262 190.75 22.3984 190.691 22.4844C190.632 22.5684 190.565 22.6523 190.489 22.7363C190.413 22.8203 190.333 22.8906 190.249 22.9473C190.165 23.002 190.082 23.0293 190 23.0293C189.828 23.0293 189.692 22.9521 189.592 22.7979C189.493 22.6436 189.443 22.457 189.443 22.2383C189.443 21.959 189.526 21.6807 189.692 21.4033C189.803 21.2158 189.936 21.0508 190.09 20.9082C190.247 20.7656 190.414 20.6543 190.591 20.5742C190.769 20.4922 190.945 20.4512 191.119 20.4512ZM190.873 20.7207C190.757 20.7207 190.641 20.7617 190.524 20.8438C190.407 20.9238 190.299 21.0322 190.202 21.1689C190.104 21.3037 190.025 21.4541 189.964 21.6201C189.906 21.7842 189.877 21.9492 189.877 22.1152C189.877 22.498 189.976 22.6895 190.175 22.6895C190.246 22.6895 190.322 22.6504 190.404 22.5723C190.486 22.4941 190.567 22.3906 190.647 22.2617C190.727 22.1328 190.797 21.9932 190.858 21.8428C190.921 21.6904 190.966 21.541 190.996 21.3945L191.113 20.7969C191.066 20.7461 190.986 20.7207 190.873 20.7207ZM194.653 20.4512C194.716 20.4512 194.764 20.4795 194.8 20.5361C194.835 20.5928 194.852 20.666 194.852 20.7559C194.852 20.8418 194.841 20.9453 194.817 21.0664L194.723 21.5586C194.772 21.4434 194.835 21.3223 194.911 21.1953C194.989 21.0664 195.072 20.9453 195.16 20.832C195.248 20.7188 195.335 20.627 195.421 20.5566C195.507 20.4863 195.583 20.4512 195.649 20.4512C195.782 20.4512 195.889 20.5137 195.971 20.6387C195.971 20.9004 195.899 21.0312 195.755 21.0312C195.723 21.0312 195.686 21.0068 195.643 20.958C195.6 20.9092 195.555 20.8848 195.509 20.8848C195.452 20.8848 195.378 20.9316 195.286 21.0254C195.194 21.1191 195.099 21.2422 195.002 21.3945C194.904 21.5449 194.816 21.708 194.738 21.8838C194.66 22.0576 194.606 22.2246 194.577 22.3848L194.466 23C194.399 23.0117 194.335 23.0176 194.272 23.0176C194.198 23.0176 194.126 23.0117 194.055 23L194.407 21.1953C194.427 21.0605 194.436 20.9824 194.436 20.9609C194.436 20.8633 194.417 20.8145 194.378 20.8145C194.345 20.8145 194.295 20.8457 194.228 20.9082C194.197 20.9395 194.163 20.9736 194.126 21.0107C194.091 21.0479 194.067 21.0742 194.055 21.0898C194.048 21.0898 194.033 21.0713 194.012 21.0342C193.99 20.9971 193.979 20.9707 193.979 20.9551C194.011 20.9023 194.067 20.8369 194.149 20.7588C194.231 20.6787 194.319 20.6074 194.413 20.5449C194.507 20.4824 194.587 20.4512 194.653 20.4512ZM199.354 20.4512C199.498 20.4512 199.641 20.4766 199.781 20.5273L199.424 22.3789C199.412 22.4258 199.406 22.4746 199.406 22.5254C199.406 22.623 199.426 22.6719 199.465 22.6719C199.514 22.6719 199.572 22.6377 199.641 22.5693C199.709 22.499 199.768 22.4395 199.816 22.3906L199.852 22.3496C199.859 22.3496 199.874 22.3682 199.896 22.4053C199.917 22.4424 199.928 22.4688 199.928 22.4844C199.895 22.541 199.834 22.6133 199.746 22.7012C199.66 22.7891 199.566 22.8672 199.465 22.9355C199.363 23.002 199.271 23.0352 199.189 23.0352C199.127 23.0352 199.078 23.0068 199.043 22.9502C199.008 22.8936 198.99 22.8203 198.99 22.7305C198.99 22.6699 199.004 22.5664 199.031 22.4199L199.052 22.3174C199.058 22.29 199.061 22.2734 199.061 22.2676C199.029 22.3262 198.984 22.3984 198.926 22.4844C198.867 22.5684 198.8 22.6523 198.724 22.7363C198.647 22.8203 198.567 22.8906 198.483 22.9473C198.399 23.002 198.316 23.0293 198.234 23.0293C198.062 23.0293 197.927 22.9521 197.827 22.7979C197.728 22.6436 197.678 22.457 197.678 22.2383C197.678 21.959 197.761 21.6807 197.927 21.4033C198.038 21.2158 198.171 21.0508 198.325 20.9082C198.481 20.7656 198.648 20.6543 198.826 20.5742C199.004 20.4922 199.18 20.4512 199.354 20.4512ZM199.107 20.7207C198.992 20.7207 198.876 20.7617 198.759 20.8438C198.642 20.9238 198.534 21.0322 198.437 21.1689C198.339 21.3037 198.26 21.4541 198.199 21.6201C198.141 21.7842 198.111 21.9492 198.111 22.1152C198.111 22.498 198.211 22.6895 198.41 22.6895C198.48 22.6895 198.557 22.6504 198.639 22.5723C198.721 22.4941 198.802 22.3906 198.882 22.2617C198.962 22.1328 199.032 21.9932 199.093 21.8428C199.155 21.6904 199.201 21.541 199.23 21.3945L199.348 20.7969C199.301 20.7461 199.221 20.7207 199.107 20.7207ZM202.847 20.4512C202.909 20.4512 202.958 20.4795 202.993 20.5361C203.029 20.5928 203.046 20.666 203.046 20.7559C203.046 20.8418 203.034 20.9453 203.011 21.0664L202.905 21.6055C202.943 21.5391 203.028 21.418 203.16 21.2422C203.248 21.127 203.35 21.0088 203.465 20.8877C203.582 20.7646 203.697 20.6611 203.811 20.5771C203.926 20.4932 204.023 20.4512 204.101 20.4512C204.296 20.4512 204.394 20.5801 204.394 20.8379C204.394 21.0195 204.366 21.2324 204.312 21.4766L204.118 22.3789C204.107 22.4258 204.101 22.4746 204.101 22.5254C204.101 22.623 204.12 22.6719 204.159 22.6719C204.208 22.6719 204.267 22.6377 204.335 22.5693C204.404 22.499 204.462 22.4395 204.511 22.3906L204.546 22.3496C204.554 22.3496 204.569 22.3682 204.59 22.4053C204.612 22.4424 204.622 22.4688 204.622 22.4844C204.589 22.541 204.529 22.6133 204.441 22.7012C204.355 22.7891 204.261 22.8672 204.159 22.9355C204.058 23.002 203.966 23.0352 203.884 23.0352C203.821 23.0352 203.773 23.0068 203.738 22.9502C203.702 22.8936 203.685 22.8203 203.685 22.7305C203.685 22.6719 203.698 22.5684 203.726 22.4199L203.931 21.4531C203.958 21.3203 203.972 21.2148 203.972 21.1367C203.972 20.9688 203.935 20.8848 203.861 20.8848C203.796 20.8848 203.709 20.9336 203.6 21.0312C203.49 21.127 203.376 21.2549 203.257 21.415C203.14 21.5752 203.033 21.7539 202.938 21.9512C202.842 22.1465 202.775 22.3438 202.736 22.543L202.636 23C202.583 23.0156 202.523 23.0234 202.454 23.0234C202.388 23.0234 202.321 23.0156 202.255 23L202.601 21.1953C202.62 21.0605 202.63 20.9824 202.63 20.9609C202.63 20.8633 202.611 20.8145 202.571 20.8145C202.538 20.8145 202.488 20.8457 202.422 20.9082C202.391 20.9395 202.357 20.9736 202.32 21.0107C202.284 21.0479 202.261 21.0742 202.249 21.0898C202.241 21.0898 202.227 21.0713 202.205 21.0342C202.184 20.9971 202.173 20.9707 202.173 20.9551C202.204 20.9023 202.261 20.8369 202.343 20.7588C202.425 20.6787 202.513 20.6074 202.607 20.5449C202.7 20.4824 202.78 20.4512 202.847 20.4512Z" fill="#FFFDD0"/>
<path opacity="0.9" d="M91.544 45.088C91.252 44.964 90.962 44.902 90.674 44.902C90.09 44.902 89.798 45.118 89.798 45.55C89.798 45.738 89.864 45.914 89.996 46.078C90.128 46.238 90.288 46.382 90.476 46.51C90.664 46.634 90.852 46.762 91.04 46.894C91.228 47.026 91.388 47.184 91.52 47.368C91.652 47.552 91.718 47.752 91.718 47.968C91.718 48.332 91.596 48.608 91.352 48.796C91.108 48.98 90.77 49.072 90.338 49.072C89.91 49.072 89.544 48.962 89.24 48.742L89.384 48.526C89.672 48.714 89.988 48.808 90.332 48.808C90.676 48.808 90.94 48.74 91.124 48.604C91.308 48.464 91.4 48.264 91.4 48.004C91.4 47.824 91.334 47.654 91.202 47.494C91.07 47.33 90.91 47.184 90.722 47.056C90.534 46.924 90.346 46.79 90.158 46.654C89.97 46.518 89.81 46.356 89.678 46.168C89.546 45.98 89.48 45.778 89.48 45.562C89.48 45.278 89.584 45.054 89.792 44.89C90.004 44.722 90.288 44.638 90.644 44.638C91.004 44.638 91.338 44.71 91.646 44.854L91.544 45.088ZM95.2488 45.352H93.9288V45.106H96.8388V45.352H95.5188V49H95.2488V45.352ZM102.224 48.598C101.96 48.906 101.558 49.06 101.018 49.06C100.478 49.06 100.076 48.906 99.8124 48.598C99.5484 48.29 99.4164 47.864 99.4164 47.32V45.106H99.6924V47.32C99.6924 48.316 100.134 48.814 101.018 48.814C101.902 48.814 102.344 48.316 102.344 47.32V45.106H102.62V47.32C102.62 47.864 102.488 48.29 102.224 48.598ZM107.071 48.796C107.583 48.796 107.993 48.658 108.301 48.382C108.613 48.106 108.769 47.69 108.769 47.134C108.769 46.578 108.593 46.136 108.241 45.808C107.893 45.48 107.463 45.316 106.951 45.316C106.587 45.316 106.307 45.324 106.111 45.34V48.754C106.351 48.782 106.671 48.796 107.071 48.796ZM106.951 45.07C107.551 45.07 108.051 45.256 108.451 45.628C108.855 45.996 109.057 46.498 109.057 47.134C109.057 47.77 108.871 48.248 108.499 48.568C108.131 48.888 107.655 49.048 107.071 49.048C106.667 49.048 106.251 49.028 105.823 48.988V45.106C106.143 45.082 106.519 45.07 106.951 45.07ZM112.058 49V45.106H113.876V45.346H112.334V46.762H113.726V46.996H112.334V48.748H113.936V49H112.058ZM116.841 49V45.082H116.973L119.529 48.022C119.621 48.126 119.705 48.23 119.781 48.334C119.861 48.434 119.903 48.486 119.907 48.49C119.899 48.394 119.895 48.206 119.895 47.926V45.106H120.171V49.024H120.039L117.435 46.036L117.105 45.634C117.113 45.714 117.117 45.902 117.117 46.198V49H116.841ZM124.106 45.352H122.786V45.106H125.696V45.352H124.376V49H124.106V45.352ZM134.372 49.072C133.748 49.072 133.212 48.86 132.764 48.436C132.316 48.008 132.092 47.482 132.092 46.858C132.092 46.23 132.288 45.704 132.68 45.28C133.072 44.852 133.574 44.638 134.186 44.638C134.666 44.638 135.152 44.718 135.644 44.878L135.566 45.118C135.086 44.974 134.626 44.902 134.186 44.902C133.662 44.902 133.234 45.09 132.902 45.466C132.57 45.842 132.404 46.302 132.404 46.846C132.404 47.39 132.596 47.854 132.98 48.238C133.368 48.618 133.832 48.808 134.372 48.808C134.844 48.808 135.252 48.736 135.596 48.592L135.686 48.796C135.534 48.884 135.334 48.952 135.086 49C134.842 49.048 134.604 49.072 134.372 49.072ZM140.194 49.06C139.638 49.06 139.172 48.866 138.796 48.478C138.42 48.09 138.232 47.616 138.232 47.056C138.232 46.492 138.42 46.016 138.796 45.628C139.172 45.24 139.638 45.046 140.194 45.046C140.75 45.046 141.216 45.24 141.592 45.628C141.968 46.016 142.156 46.492 142.156 47.056C142.156 47.616 141.968 48.09 141.592 48.478C141.216 48.866 140.75 49.06 140.194 49.06ZM140.194 45.292C139.714 45.292 139.314 45.462 138.994 45.802C138.678 46.142 138.52 46.56 138.52 47.056C138.52 47.548 138.678 47.964 138.994 48.304C139.314 48.64 139.714 48.808 140.194 48.808C140.678 48.808 141.078 48.64 141.394 48.304C141.71 47.964 141.868 47.548 141.868 47.056C141.868 46.56 141.71 46.142 141.394 45.802C141.078 45.462 140.678 45.292 140.194 45.292ZM146.965 48.796H146.803L145.669 46.042C145.621 45.934 145.573 45.808 145.525 45.664C145.525 45.668 145.521 45.69 145.513 45.73C145.509 45.77 145.503 45.824 145.495 45.892C145.487 45.956 145.479 46.01 145.471 46.054L145.021 49H144.751L145.387 45.082H145.549L146.761 47.956C146.857 48.196 146.905 48.322 146.905 48.334C146.933 48.25 146.987 48.126 147.067 47.962L148.417 45.082H148.579L149.173 49H148.885L148.459 46.042C148.431 45.846 148.417 45.716 148.417 45.652L148.243 46.048L146.965 48.796ZM153.81 48.796H153.648L152.514 46.042C152.466 45.934 152.418 45.808 152.37 45.664C152.37 45.668 152.366 45.69 152.358 45.73C152.354 45.77 152.348 45.824 152.34 45.892C152.332 45.956 152.324 46.01 152.316 46.054L151.866 49H151.596L152.232 45.082H152.394L153.606 47.956C153.702 48.196 153.75 48.322 153.75 48.334C153.778 48.25 153.832 48.126 153.912 47.962L155.262 45.082H155.424L156.018 49H155.73L155.304 46.042C155.276 45.846 155.262 45.716 155.262 45.652L155.088 46.048L153.81 48.796ZM161.621 48.598C161.357 48.906 160.955 49.06 160.415 49.06C159.875 49.06 159.473 48.906 159.209 48.598C158.945 48.29 158.813 47.864 158.813 47.32V45.106H159.089V47.32C159.089 48.316 159.531 48.814 160.415 48.814C161.299 48.814 161.741 48.316 161.741 47.32V45.106H162.017V47.32C162.017 47.864 161.885 48.29 161.621 48.598ZM165.219 49V45.082H165.351L167.907 48.022C167.999 48.126 168.083 48.23 168.159 48.334C168.239 48.434 168.281 48.486 168.285 48.49C168.277 48.394 168.273 48.206 168.273 47.926V45.106H168.549V49.024H168.417L165.813 46.036L165.483 45.634C165.491 45.714 165.495 45.902 165.495 46.198V49H165.219ZM171.789 49V45.106H172.065V49H171.789ZM178.336 48.808C178.036 48.976 177.618 49.06 177.082 49.06C176.55 49.06 176.08 48.868 175.672 48.484C175.268 48.1 175.066 47.624 175.066 47.056C175.066 46.484 175.242 46.006 175.594 45.622C175.95 45.238 176.408 45.046 176.968 45.046C177.42 45.046 177.862 45.116 178.294 45.256L178.222 45.484C177.806 45.356 177.376 45.292 176.932 45.292C176.488 45.292 176.114 45.462 175.81 45.802C175.51 46.138 175.36 46.552 175.36 47.044C175.36 47.532 175.534 47.948 175.882 48.292C176.234 48.636 176.64 48.808 177.1 48.808C177.56 48.808 177.942 48.744 178.246 48.616L178.336 48.808ZM181.311 47.65L180.753 49H180.471L182.103 45.082H182.265L183.909 49H183.603L183.039 47.65H181.311ZM182.169 45.526C182.109 45.706 182.055 45.856 182.007 45.976L181.407 47.416H182.943L182.349 45.982C182.257 45.758 182.197 45.606 182.169 45.526ZM186.826 45.352H185.506V45.106H188.416V45.352H187.096V49H186.826V45.352ZM191.03 49V45.106H191.306V49H191.03ZM196.269 49.06C195.713 49.06 195.247 48.866 194.871 48.478C194.495 48.09 194.307 47.616 194.307 47.056C194.307 46.492 194.495 46.016 194.871 45.628C195.247 45.24 195.713 45.046 196.269 45.046C196.825 45.046 197.291 45.24 197.667 45.628C198.043 46.016 198.231 46.492 198.231 47.056C198.231 47.616 198.043 48.09 197.667 48.478C197.291 48.866 196.825 49.06 196.269 49.06ZM196.269 45.292C195.789 45.292 195.389 45.462 195.069 45.802C194.753 46.142 194.595 46.56 194.595 47.056C194.595 47.548 194.753 47.964 195.069 48.304C195.389 48.64 195.789 48.808 196.269 48.808C196.753 48.808 197.153 48.64 197.469 48.304C197.785 47.964 197.943 47.548 197.943 47.056C197.943 46.56 197.785 46.142 197.469 45.802C197.153 45.462 196.753 45.292 196.269 45.292ZM201.233 49V45.082H201.365L203.921 48.022C204.013 48.126 204.097 48.23 204.173 48.334C204.253 48.434 204.295 48.486 204.299 48.49C204.291 48.394 204.287 48.206 204.287 47.926V45.106H204.563V49.024H204.431L201.827 46.036L201.497 45.634C201.505 45.714 201.509 45.902 201.509 46.198V49H201.233ZM214.399 47.35H214.633C214.625 47.722 214.519 48.048 214.315 48.328L214.939 49H214.579L214.141 48.526C213.949 48.694 213.729 48.826 213.481 48.922C213.233 49.018 212.993 49.066 212.761 49.066C212.373 49.066 212.069 48.986 211.849 48.826C211.633 48.662 211.525 48.434 211.525 48.142C211.525 47.85 211.611 47.604 211.783 47.404C211.955 47.2 212.197 46.992 212.509 46.78C212.033 46.268 211.795 45.874 211.795 45.598C211.795 45.322 211.885 45.106 212.065 44.95C212.245 44.79 212.507 44.71 212.851 44.71C213.195 44.71 213.453 44.792 213.625 44.956C213.797 45.116 213.883 45.31 213.883 45.538C213.883 45.762 213.797 45.974 213.625 46.174C213.453 46.374 213.215 46.592 212.911 46.828L214.153 48.154C214.221 48.074 214.279 47.952 214.327 47.788C214.375 47.624 214.399 47.478 214.399 47.35ZM212.797 48.832C213.201 48.832 213.591 48.67 213.967 48.346L212.689 46.978C212.097 47.338 211.801 47.698 211.801 48.058C211.801 48.302 211.887 48.492 212.059 48.628C212.231 48.764 212.477 48.832 212.797 48.832ZM213.613 45.586C213.613 45.386 213.547 45.23 213.415 45.118C213.287 45.006 213.105 44.95 212.869 44.95C212.333 44.95 212.065 45.162 212.065 45.586C212.065 45.698 212.099 45.82 212.167 45.952C212.239 46.08 212.315 46.19 212.395 46.282C212.475 46.37 212.587 46.486 212.731 46.63C213.319 46.242 213.613 45.894 213.613 45.586ZM126.523 55.778H126.361L125.107 52.742C125.035 52.574 124.977 52.426 124.933 52.298L124.873 52.754L124.381 56H124.087L124.795 51.674H124.963L126.301 54.854C126.369 55.002 126.423 55.142 126.463 55.274C126.475 55.23 126.537 55.092 126.649 54.86L128.143 51.674H128.305L128.959 56H128.659L128.191 52.742C128.159 52.538 128.143 52.384 128.143 52.28C128.139 52.284 128.129 52.304 128.113 52.34C128.101 52.372 128.077 52.428 128.041 52.508C128.009 52.584 127.975 52.664 127.939 52.748L126.523 55.778ZM134.637 55.598C134.373 55.906 133.971 56.06 133.431 56.06C132.891 56.06 132.489 55.906 132.225 55.598C131.961 55.29 131.829 54.864 131.829 54.32V52.106H132.105V54.32C132.105 55.316 132.547 55.814 133.431 55.814C134.315 55.814 134.757 55.316 134.757 54.32V52.106H135.033V54.32C135.033 54.864 134.901 55.29 134.637 55.598ZM138.236 56V52.106H138.512V55.748H140.3V56H138.236ZM143.058 52.352H141.738V52.106H144.648V52.352H143.328V56H143.058V52.352ZM147.261 56V52.106H147.537V56H147.261ZM152.584 55.796H152.422L151.288 53.042C151.24 52.934 151.192 52.808 151.144 52.664C151.144 52.668 151.14 52.69 151.132 52.73C151.128 52.77 151.122 52.824 151.114 52.892C151.106 52.956 151.098 53.01 151.09 53.054L150.64 56H150.37L151.006 52.082H151.168L152.38 54.956C152.476 55.196 152.524 55.322 152.524 55.334C152.552 55.25 152.606 55.126 152.686 54.962L154.036 52.082H154.198L154.792 56H154.504L154.078 53.042C154.05 52.846 154.036 52.716 154.036 52.652L153.862 53.048L152.584 55.796ZM157.623 56V52.106H159.441V52.346H157.899V53.762H159.291V53.996H157.899V55.748H159.501V56H157.623ZM163.654 55.796C164.166 55.796 164.576 55.658 164.884 55.382C165.196 55.106 165.352 54.69 165.352 54.134C165.352 53.578 165.176 53.136 164.824 52.808C164.476 52.48 164.046 52.316 163.534 52.316C163.17 52.316 162.89 52.324 162.694 52.34V55.754C162.934 55.782 163.254 55.796 163.654 55.796ZM163.534 52.07C164.134 52.07 164.634 52.256 165.034 52.628C165.438 52.996 165.64 53.498 165.64 54.134C165.64 54.77 165.454 55.248 165.082 55.568C164.714 55.888 164.238 56.048 163.654 56.048C163.25 56.048 162.834 56.028 162.406 55.988V52.106C162.726 52.082 163.102 52.07 163.534 52.07ZM168.641 56V52.106H168.917V56H168.641ZM172.35 54.65L171.792 56H171.51L173.142 52.082H173.304L174.948 56H174.642L174.078 54.65H172.35ZM173.208 52.526C173.148 52.706 173.094 52.856 173.046 52.976L172.446 54.416H173.982L173.388 52.982C173.296 52.758 173.236 52.606 173.208 52.526ZM182.946 55.79C183.51 55.79 183.962 55.638 184.302 55.334C184.646 55.026 184.818 54.564 184.818 53.948C184.818 53.332 184.624 52.842 184.236 52.478C183.852 52.114 183.376 51.932 182.808 51.932C182.444 51.932 182.128 51.942 181.86 51.962V55.742C182.12 55.774 182.482 55.79 182.946 55.79ZM182.808 51.668C183.468 51.668 184.02 51.874 184.464 52.286C184.908 52.694 185.13 53.25 185.13 53.954C185.13 54.31 185.072 54.626 184.956 54.902C184.844 55.174 184.688 55.392 184.488 55.556C184.076 55.888 183.562 56.054 182.946 56.054C182.542 56.054 182.084 56.032 181.572 55.988V51.71C181.98 51.682 182.392 51.668 182.808 51.668ZM188.193 56V52.106H190.011V52.346H188.469V53.762H189.861V53.996H188.469V55.748H190.071V56H188.193ZM192.975 56V52.106H193.251V56H192.975ZM197.278 52.274C197.062 52.274 196.886 52.326 196.75 52.43C196.614 52.534 196.546 52.68 196.546 52.868C196.546 53.084 196.636 53.278 196.816 53.45C196.944 53.574 197.108 53.706 197.308 53.846C197.512 53.982 197.652 54.08 197.728 54.14C197.804 54.2 197.896 54.282 198.004 54.386C198.2 54.582 198.298 54.808 198.298 55.064C198.298 55.396 198.186 55.648 197.962 55.82C197.742 55.988 197.432 56.072 197.032 56.072C196.636 56.072 196.304 55.968 196.036 55.76L196.18 55.55C196.452 55.734 196.74 55.826 197.044 55.826C197.348 55.826 197.584 55.762 197.752 55.634C197.924 55.506 198.01 55.326 198.01 55.094C198.01 54.894 197.924 54.71 197.752 54.542C197.632 54.422 197.47 54.292 197.266 54.152C197.066 54.012 196.926 53.912 196.846 53.852C196.766 53.788 196.672 53.704 196.564 53.6C196.36 53.396 196.258 53.16 196.258 52.892C196.258 52.624 196.352 52.414 196.54 52.262C196.732 52.11 196.996 52.034 197.332 52.034C197.668 52.034 197.97 52.1 198.238 52.232L198.136 52.454C197.888 52.334 197.602 52.274 197.278 52.274ZM201.204 56V52.106H201.48V56H201.204ZM206.347 52.292C205.903 52.292 205.529 52.462 205.225 52.802C204.925 53.138 204.775 53.552 204.775 54.044C204.775 54.536 204.945 54.954 205.285 55.298C205.625 55.638 206.025 55.808 206.485 55.808C206.949 55.808 207.309 55.754 207.565 55.646V54.044H207.841V55.772C207.529 55.964 207.087 56.06 206.515 56.06C205.943 56.06 205.461 55.866 205.069 55.478C204.677 55.09 204.481 54.614 204.481 54.05C204.481 53.482 204.657 53.006 205.009 52.622C205.365 52.238 205.823 52.046 206.383 52.046C206.835 52.046 207.277 52.116 207.709 52.256L207.637 52.484C207.221 52.356 206.791 52.292 206.347 52.292ZM210.95 56V52.082H211.082L213.638 55.022C213.73 55.126 213.814 55.23 213.89 55.334C213.97 55.434 214.012 55.486 214.016 55.49C214.008 55.394 214.004 55.206 214.004 54.926V52.106H214.28V56.024H214.148L211.544 53.036L211.214 52.634C211.222 52.714 211.226 52.902 211.226 53.198V56H210.95Z" fill="white"/>
</svg>
