<svg width="216" height="60" viewBox="0 0 216 60" fill="none" xmlns="http://www.w3.org/2000/svg">
<path d="M2.21236 34V8.54545H12.255C14.1856 8.54545 15.8304 8.91418 17.1893 9.65163C18.5482 10.3808 19.5839 11.3958 20.2965 12.6967C21.0174 13.9893 21.3778 15.4808 21.3778 17.1712C21.3778 18.8615 21.0133 20.353 20.2841 21.6456C19.5549 22.9382 18.4985 23.945 17.1147 24.6658C15.7392 25.3867 14.0737 25.7472 12.1183 25.7472H5.71733V21.4343H11.2482C12.284 21.4343 13.1374 21.2562 13.8086 20.8999C14.488 20.5353 14.9935 20.034 15.3249 19.396C15.6647 18.7496 15.8345 18.008 15.8345 17.1712C15.8345 16.326 15.6647 15.5885 15.3249 14.9588C14.9935 14.3208 14.488 13.8278 13.8086 13.4798C13.1291 13.1235 12.2674 12.9453 11.2234 12.9453H7.59411V34H2.21236ZM50.0148 21.2727C50.0148 24.0485 49.4887 26.41 48.4363 28.3572C47.3923 30.3045 45.9671 31.7918 44.1608 32.8192C42.3627 33.8384 40.3409 34.348 38.0954 34.348C35.8334 34.348 33.8033 33.8343 32.0052 32.8068C30.2072 31.7794 28.7861 30.292 27.7421 28.3448C26.6981 26.3976 26.176 24.0402 26.176 21.2727C26.176 18.4969 26.6981 16.1354 27.7421 14.1882C28.7861 12.241 30.2072 10.7578 32.0052 9.73864C33.8033 8.71117 35.8334 8.19744 38.0954 8.19744C40.3409 8.19744 42.3627 8.71117 44.1608 9.73864C45.9671 10.7578 47.3923 12.241 48.4363 14.1882C49.4887 16.1354 50.0148 18.4969 50.0148 21.2727ZM44.5585 21.2727C44.5585 19.4747 44.2892 17.9583 43.7506 16.7237C43.2203 15.4891 42.4704 14.5528 41.501 13.9148C40.5315 13.2768 39.3963 12.9577 38.0954 12.9577C36.7945 12.9577 35.6594 13.2768 34.6899 13.9148C33.7204 14.5528 32.9664 15.4891 32.4278 16.7237C31.8975 17.9583 31.6324 19.4747 31.6324 21.2727C31.6324 23.0708 31.8975 24.5871 32.4278 25.8217C32.9664 27.0563 33.7204 27.9927 34.6899 28.6307C35.6594 29.2687 36.7945 29.5877 38.0954 29.5877C39.3963 29.5877 40.5315 29.2687 41.501 28.6307C42.4704 27.9927 43.2203 27.0563 43.7506 25.8217C44.2892 24.5871 44.5585 23.0708 44.5585 21.2727ZM55.7514 34V8.54545H65.794C67.7164 8.54545 69.357 8.88932 70.7159 9.57706C72.0831 10.2565 73.123 11.2218 73.8356 12.473C74.5565 13.7159 74.9169 15.1784 74.9169 16.8604C74.9169 18.5508 74.5523 20.005 73.8232 21.223C73.094 22.4328 72.0375 23.3608 70.6538 24.0071C69.2783 24.6534 67.6128 24.9766 65.6573 24.9766H58.9332V20.6513H64.7873C65.8147 20.6513 66.6682 20.5104 67.3477 20.2287C68.0271 19.947 68.5326 19.5244 68.864 18.9609C69.2037 18.3975 69.3736 17.6973 69.3736 16.8604C69.3736 16.0153 69.2037 15.3027 68.864 14.7227C68.5326 14.1426 68.023 13.7035 67.3352 13.4052C66.6558 13.0986 65.7982 12.9453 64.7624 12.9453H61.1332V34H55.7514ZM69.4979 22.4162L75.8242 34H69.8832L63.6935 22.4162H69.4979ZM79.5007 12.9826V8.54545H100.406V12.9826H92.6133V34H87.2937V12.9826H79.5007ZM105.599 34V8.54545H122.453V12.9826H110.981V19.0479H121.334V23.4851H110.981V34H105.599ZM151.214 21.2727C151.214 24.0485 150.688 26.41 149.636 28.3572C148.592 30.3045 147.166 31.7918 145.36 32.8192C143.562 33.8384 141.54 34.348 139.295 34.348C137.033 34.348 135.003 33.8343 133.204 32.8068C131.406 31.7794 129.985 30.292 128.941 28.3448C127.897 26.3976 127.375 24.0402 127.375 21.2727C127.375 18.4969 127.897 16.1354 128.941 14.1882C129.985 12.241 131.406 10.7578 133.204 9.73864C135.003 8.71117 137.033 8.19744 139.295 8.19744C141.54 8.19744 143.562 8.71117 145.36 9.73864C147.166 10.7578 148.592 12.241 149.636 14.1882C150.688 16.1354 151.214 18.4969 151.214 21.2727ZM145.758 21.2727C145.758 19.4747 145.488 17.9583 144.95 16.7237C144.42 15.4891 143.67 14.5528 142.7 13.9148C141.731 13.2768 140.596 12.9577 139.295 12.9577C137.994 12.9577 136.859 13.2768 135.889 13.9148C134.92 14.5528 134.166 15.4891 133.627 16.7237C133.097 17.9583 132.832 19.4747 132.832 21.2727C132.832 23.0708 133.097 24.5871 133.627 25.8217C134.166 27.0563 134.92 27.9927 135.889 28.6307C136.859 29.2687 137.994 29.5877 139.295 29.5877C140.596 29.5877 141.731 29.2687 142.7 28.6307C143.67 27.9927 144.42 27.0563 144.95 25.8217C145.488 24.5871 145.758 23.0708 145.758 21.2727ZM156.951 34V8.54545H162.332V29.5629H173.245V34H156.951ZM183.941 8.54545V34H178.559V8.54545H183.941ZM213.51 21.2727C213.51 24.0485 212.984 26.41 211.931 28.3572C210.887 30.3045 209.462 31.7918 207.656 32.8192C205.858 33.8384 203.836 34.348 201.591 34.348C199.328 34.348 197.298 33.8343 195.5 32.8068C193.702 31.7794 192.281 30.292 191.237 28.3448C190.193 26.3976 189.671 24.0402 189.671 21.2727C189.671 18.4969 190.193 16.1354 191.237 14.1882C192.281 12.241 193.702 10.7578 195.5 9.73864C197.298 8.71117 199.328 8.19744 201.591 8.19744C203.836 8.19744 205.858 8.71117 207.656 9.73864C209.462 10.7578 210.887 12.241 211.931 14.1882C212.984 16.1354 213.51 18.4969 213.51 21.2727ZM208.054 21.2727C208.054 19.4747 207.784 17.9583 207.246 16.7237C206.715 15.4891 205.966 14.5528 204.996 13.9148C204.027 13.2768 202.891 12.9577 201.591 12.9577C200.29 12.9577 199.154 13.2768 198.185 13.9148C197.216 14.5528 196.462 15.4891 195.923 16.7237C195.393 17.9583 195.127 19.4747 195.127 21.2727C195.127 23.0708 195.393 24.5871 195.923 25.8217C196.462 27.0563 197.216 27.9927 198.185 28.6307C199.154 29.2687 200.29 29.5877 201.591 29.5877C202.891 29.5877 204.027 29.2687 204.996 28.6307C205.966 27.9927 206.715 27.0563 207.246 25.8217C207.784 24.5871 208.054 23.0708 208.054 21.2727Z" fill="#FFFDD0"/>
<rect x="114" y="17.205" width="87.9659" height="10.8451" fill="black"/>
<path d="M124.221 23.4785L125.873 20.1479L126.457 18.8955C126.624 18.9141 126.868 18.9233 127.19 18.9233C127.298 18.9233 127.419 18.9202 127.552 18.9141C127.688 18.9079 127.836 18.8986 127.997 18.8862C128.009 18.9172 128.009 18.9697 127.997 19.0439C127.985 19.1182 127.969 19.1553 127.951 19.1553C127.87 19.1553 127.785 19.1769 127.696 19.2202C127.606 19.2635 127.539 19.3161 127.496 19.3779C127.44 19.4521 127.399 19.5418 127.371 19.647C127.346 19.7428 127.317 19.9284 127.283 20.2036L126.921 23.7476C126.884 24.0661 126.865 24.3104 126.865 24.4805C126.865 24.6104 126.913 24.6923 127.009 24.7263C127.065 24.7449 127.131 24.7588 127.208 24.7681C127.289 24.7743 127.354 24.7773 127.403 24.7773C127.416 24.7773 127.422 24.8052 127.422 24.8608C127.422 24.9351 127.403 24.9907 127.366 25.0278C127.079 25.0124 126.85 25.0015 126.68 24.9954C126.513 24.9861 126.404 24.9814 126.355 24.9814C126.346 24.9814 126.259 24.9861 126.095 24.9954C125.934 25.0015 125.696 25.0124 125.381 25.0278C125.368 25.0062 125.362 24.9907 125.362 24.9814C125.362 24.9443 125.37 24.901 125.385 24.8516C125.401 24.8021 125.415 24.7773 125.427 24.7773C125.483 24.7773 125.552 24.7712 125.636 24.7588C125.723 24.7433 125.803 24.7232 125.877 24.6985C125.951 24.6707 125.996 24.6413 126.012 24.6104C126.074 24.4681 126.117 24.3367 126.142 24.2161C126.148 24.182 126.157 24.1078 126.169 23.9934C126.182 23.879 126.191 23.8063 126.197 23.7754L126.568 20.1572C126.587 19.9717 126.596 19.8511 126.596 19.7954C126.596 19.7583 126.578 19.7397 126.541 19.7397C126.537 19.7397 126.528 19.7521 126.513 19.7769L124.091 24.7124C124.06 24.7681 124.002 24.833 123.915 24.9072C123.828 24.9814 123.748 25.0186 123.674 25.0186C123.646 25.0186 123.621 25.0124 123.6 25L122.811 19.7397C122.808 19.7274 122.802 19.7212 122.792 19.7212C122.774 19.7212 122.765 19.7274 122.765 19.7397L121.679 23.7383C121.562 24.165 121.503 24.4217 121.503 24.5083C121.503 24.5516 121.548 24.5949 121.637 24.6382C121.73 24.6784 121.828 24.7124 121.93 24.7402C122.035 24.765 122.103 24.7773 122.134 24.7773C122.146 24.7773 122.152 24.7959 122.152 24.833C122.152 24.9041 122.137 24.9691 122.106 25.0278C121.818 25.0124 121.594 25.0015 121.433 24.9954C121.273 24.9861 121.175 24.9814 121.141 24.9814C121.132 24.9814 121.042 24.9861 120.872 24.9954C120.702 25.0015 120.451 25.0124 120.121 25.0278C120.108 25.0155 120.102 24.9845 120.102 24.9351C120.102 24.8299 120.124 24.7773 120.167 24.7773C120.216 24.7773 120.295 24.7665 120.404 24.7449C120.512 24.7201 120.614 24.6908 120.71 24.6567C120.809 24.6196 120.866 24.5856 120.881 24.5547C120.99 24.3506 121.092 24.0754 121.188 23.729L122.199 20.1016C122.223 19.981 122.25 19.8619 122.278 19.7444C122.305 19.6238 122.319 19.5078 122.319 19.3965C122.319 19.3501 122.276 19.3083 122.189 19.2712C122.103 19.2341 122.009 19.2048 121.906 19.1831C121.808 19.1584 121.735 19.146 121.688 19.146C121.676 19.146 121.67 19.1243 121.67 19.0811C121.67 18.979 121.688 18.9172 121.726 18.8955C121.954 18.9017 122.142 18.9063 122.287 18.9094C122.432 18.9125 122.536 18.9141 122.598 18.9141C122.774 18.9141 122.935 18.9125 123.08 18.9094C123.229 18.9063 123.361 18.9017 123.479 18.8955C123.507 19.1491 123.58 19.6593 123.697 20.4263C123.815 21.1901 123.977 22.2106 124.184 23.4878C124.184 23.494 124.187 23.4971 124.193 23.4971C124.212 23.4971 124.221 23.4909 124.221 23.4785ZM131.979 24.4712C131.979 24.6382 131.916 24.7897 131.789 24.9258C131.662 25.0618 131.521 25.1299 131.367 25.1299C131.249 25.1299 131.152 25.0881 131.074 25.0046C130.997 24.9211 130.958 24.8175 130.958 24.6938C130.958 24.5269 131.023 24.3784 131.153 24.2485C131.283 24.1187 131.425 24.0537 131.58 24.0537C131.697 24.0537 131.793 24.0924 131.868 24.1697C131.942 24.247 131.979 24.3475 131.979 24.4712ZM138.753 18.8955C139.291 18.8955 139.741 18.9976 140.103 19.2017C140.468 19.4058 140.742 19.6841 140.924 20.0366C141.11 20.3892 141.202 20.7912 141.202 21.2427C141.202 21.5581 141.156 21.8859 141.063 22.2261C140.971 22.5662 140.824 22.9033 140.623 23.2373C140.422 23.5713 140.182 23.8713 139.904 24.1372C139.625 24.4032 139.282 24.6181 138.874 24.782C138.466 24.9459 138.023 25.0278 137.547 25.0278C137.492 25.0278 137.408 25.0247 137.297 25.0186C137.188 25.0155 137.052 25.0108 136.888 25.0046C136.725 24.9985 136.575 24.9938 136.439 24.9907C136.306 24.9845 136.186 24.9814 136.081 24.9814L135.052 25.0278C135.045 25.0216 135.042 24.9969 135.042 24.9536C135.042 24.8361 135.058 24.7773 135.089 24.7773C135.135 24.7773 135.205 24.7665 135.297 24.7449C135.39 24.7201 135.478 24.6908 135.562 24.6567C135.645 24.6196 135.695 24.5825 135.71 24.5454C135.797 24.3691 135.877 24.0815 135.951 23.6826L136.619 20.2314C136.7 19.7799 136.734 19.4924 136.721 19.3687C136.718 19.3346 136.683 19.3006 136.615 19.2666C136.547 19.2326 136.473 19.2048 136.392 19.1831C136.312 19.1584 136.248 19.146 136.202 19.146C136.19 19.146 136.183 19.1336 136.183 19.1089C136.183 19.0099 136.205 18.9388 136.248 18.8955C136.391 18.9017 136.544 18.9063 136.708 18.9094C136.875 18.9125 137.052 18.9141 137.241 18.9141C137.349 18.9141 137.473 18.9141 137.612 18.9141C137.751 18.911 137.906 18.9079 138.076 18.9048C138.246 18.9017 138.387 18.9001 138.498 18.9001C138.613 18.8971 138.698 18.8955 138.753 18.8955ZM138.735 19.3037C138.073 19.3037 137.702 19.3532 137.621 19.4521C137.522 19.5789 137.439 19.8232 137.371 20.1851L136.694 23.7104C136.675 23.797 136.666 23.9285 136.666 24.1047C136.666 24.2841 136.672 24.3877 136.684 24.4155C136.74 24.5392 137.099 24.6011 137.761 24.6011C138.283 24.6011 138.747 24.4325 139.152 24.0955C139.56 23.7584 139.868 23.3301 140.075 22.8105C140.282 22.291 140.386 21.7406 140.386 21.1592C140.386 20.6149 140.25 20.1696 139.978 19.8232C139.706 19.4769 139.291 19.3037 138.735 19.3037ZM146.539 20.9644C146.904 20.9644 147.187 21.0911 147.388 21.3447C147.589 21.5983 147.689 21.9478 147.689 22.3931C147.689 22.7116 147.627 23.0286 147.504 23.344C147.38 23.6563 147.218 23.9408 147.017 24.1975C146.816 24.4542 146.594 24.6598 146.353 24.8145C146.112 24.9691 145.874 25.0464 145.639 25.0464C145.268 25.0464 144.985 24.9258 144.79 24.6846C144.595 24.4434 144.498 24.1001 144.498 23.6548C144.498 23.3332 144.558 23.0146 144.679 22.6992C144.802 22.3807 144.965 22.0916 145.166 21.8318C145.367 21.5689 145.586 21.3586 145.824 21.2009C146.066 21.0432 146.304 20.9644 146.539 20.9644ZM146.427 21.3447C146.273 21.3447 146.123 21.4128 145.977 21.5488C145.832 21.6818 145.701 21.8565 145.583 22.073C145.466 22.2895 145.373 22.526 145.305 22.7827C145.237 23.0394 145.203 23.2899 145.203 23.5342C145.203 23.8929 145.26 24.1712 145.374 24.3691C145.489 24.5671 145.633 24.666 145.806 24.666C145.96 24.666 146.107 24.5995 146.247 24.4666C146.389 24.3305 146.516 24.1542 146.627 23.9377C146.738 23.7182 146.825 23.4801 146.887 23.2234C146.952 22.9667 146.984 22.7147 146.984 22.4673C146.984 22.1024 146.935 21.8241 146.836 21.6323C146.737 21.4406 146.601 21.3447 146.427 21.3447ZM153.248 20.9644C153.533 20.9644 153.738 21.037 153.865 21.1824C153.992 21.3277 154.055 21.487 154.055 21.6602C154.055 21.9323 153.916 22.2013 153.638 22.4673C153.452 22.6436 153.253 22.7951 153.039 22.9219C152.826 23.0456 152.62 23.1399 152.422 23.2048C152.225 23.2698 152.058 23.3022 151.921 23.3022C151.897 23.3022 151.884 23.4105 151.884 23.627C151.884 23.9053 151.938 24.1171 152.047 24.2625C152.155 24.4078 152.302 24.4805 152.487 24.4805C152.565 24.4805 152.657 24.4588 152.766 24.4155C152.874 24.3722 152.957 24.3258 153.016 24.2764C153.078 24.2238 153.112 24.196 153.118 24.1929C153.124 24.1898 153.137 24.1805 153.155 24.165C153.174 24.1465 153.23 24.0908 153.322 23.998L153.35 23.9702C153.363 23.9702 153.386 23.9996 153.42 24.0583C153.454 24.1171 153.471 24.1589 153.471 24.1836C153.415 24.2826 153.316 24.4016 153.174 24.5408C153.035 24.6768 152.877 24.7974 152.701 24.9026C152.525 25.0046 152.351 25.0557 152.181 25.0557C151.86 25.0557 151.614 24.9304 151.444 24.6799C151.274 24.4294 151.189 24.0846 151.189 23.6455C151.189 23.3486 151.25 23.044 151.374 22.7317C151.498 22.4163 151.662 22.1256 151.866 21.8596C152.07 21.5937 152.293 21.3787 152.534 21.2148C152.775 21.0479 153.013 20.9644 153.248 20.9644ZM153.155 21.3447C153.01 21.3447 152.866 21.405 152.724 21.5256C152.582 21.6462 152.452 21.7947 152.334 21.9709C152.217 22.1472 152.122 22.325 152.051 22.5044C151.983 22.6807 151.949 22.826 151.949 22.9404C151.949 22.9652 151.962 22.9775 151.986 22.9775C152.098 22.9775 152.232 22.9373 152.39 22.8569C152.548 22.7734 152.702 22.6652 152.854 22.5322C153.005 22.3993 153.132 22.2539 153.234 22.0962C153.336 21.9354 153.387 21.7777 153.387 21.623C153.387 21.4375 153.31 21.3447 153.155 21.3447ZM160.282 20.9644C160.468 20.9644 160.63 21.0247 160.769 21.1453C160.908 21.2659 160.978 21.4159 160.978 21.5952C160.978 21.9972 160.8 22.3281 160.445 22.5879C160.089 22.8477 159.633 23.0239 159.076 23.1167C159.444 23.6702 159.727 24.0382 159.925 24.2207C160.117 24.4001 160.282 24.4897 160.421 24.4897C160.533 24.4897 160.639 24.4434 160.741 24.3506C160.844 24.2578 160.919 24.1681 160.969 24.0815C160.987 24.0815 161.017 24.1063 161.057 24.1558C161.097 24.2052 161.117 24.2424 161.117 24.2671C161.099 24.3351 161.038 24.431 160.936 24.5547C160.837 24.6784 160.721 24.7897 160.588 24.8887C160.455 24.9876 160.329 25.0371 160.208 25.0371C160.05 25.0371 159.888 24.983 159.721 24.8748C159.557 24.7634 159.421 24.6382 159.313 24.499C159.273 24.4495 159.237 24.4062 159.206 24.3691C159.175 24.3289 159.147 24.2934 159.123 24.2625C159.076 24.2068 159.013 24.1156 158.932 23.9888L158.77 23.729C158.721 23.6486 158.67 23.5605 158.617 23.4646C158.564 23.3656 158.516 23.2868 158.473 23.228L158.13 25C158.025 25.0309 157.923 25.0464 157.824 25.0464C157.74 25.0464 157.638 25.0309 157.518 25L158.529 19.814C158.584 19.5573 158.612 19.3934 158.612 19.3223C158.612 19.2048 158.424 19.146 158.046 19.146C158.028 19.146 158.019 19.1274 158.019 19.0903C158.019 19.0161 158.043 18.9543 158.093 18.9048C158.492 18.8677 158.881 18.7811 159.262 18.645C159.299 18.6636 159.317 18.7223 159.317 18.8213C159.317 18.8893 159.277 19.1213 159.197 19.5171L158.714 22.0127L158.816 21.8921C158.912 21.7777 159.036 21.6493 159.188 21.5071C159.339 21.3617 159.509 21.2349 159.698 21.1267C159.886 21.0185 160.081 20.9644 160.282 20.9644ZM159.948 21.4004C159.849 21.4004 159.726 21.4622 159.577 21.5859C159.429 21.7065 159.282 21.8519 159.136 22.022C158.991 22.1921 158.869 22.356 158.77 22.5137C158.671 22.6683 158.622 22.7796 158.622 22.8477C158.622 22.86 158.628 22.8662 158.64 22.8662C158.653 22.8662 158.666 22.8662 158.682 22.8662C158.697 22.8631 158.716 22.86 158.738 22.8569C158.778 22.8507 158.855 22.8368 158.969 22.8152C159.084 22.7935 159.195 22.7673 159.303 22.7363C159.461 22.6899 159.617 22.625 159.772 22.5415C159.93 22.458 160.06 22.3544 160.162 22.2307C160.267 22.107 160.319 21.9632 160.319 21.7993C160.319 21.5334 160.196 21.4004 159.948 21.4004ZM167.604 20.9644C167.913 20.9644 168.068 21.1685 168.068 21.5767C168.068 21.8643 168.024 22.2013 167.938 22.5879L167.632 24.0166C167.613 24.0908 167.604 24.1681 167.604 24.2485C167.604 24.4032 167.635 24.4805 167.697 24.4805C167.774 24.4805 167.867 24.4264 167.975 24.3181C168.083 24.2068 168.176 24.1125 168.253 24.0352L168.309 23.9702C168.321 23.9702 168.345 23.9996 168.379 24.0583C168.413 24.1171 168.43 24.1589 168.43 24.1836C168.377 24.2733 168.281 24.3877 168.142 24.5269C168.006 24.666 167.857 24.7897 167.697 24.8979C167.536 25.0031 167.391 25.0557 167.261 25.0557C167.162 25.0557 167.084 25.0108 167.029 24.9211C166.973 24.8315 166.945 24.7155 166.945 24.5732C166.945 24.4805 166.967 24.3166 167.01 24.0815L167.335 22.5508C167.378 22.3405 167.4 22.1735 167.4 22.0498C167.4 21.7839 167.341 21.6509 167.224 21.6509C167.121 21.6509 166.984 21.7282 166.811 21.8828C166.638 22.0343 166.457 22.2369 166.268 22.4905C166.082 22.7441 165.914 23.027 165.762 23.3394C165.611 23.6486 165.504 23.9609 165.442 24.2764L165.285 25C165.201 25.0247 165.105 25.0371 164.997 25.0371C164.892 25.0371 164.787 25.0247 164.682 25L165.683 19.814C165.739 19.5387 165.767 19.3748 165.767 19.3223C165.767 19.2048 165.578 19.146 165.201 19.146C165.183 19.146 165.173 19.1274 165.173 19.0903C165.173 19.0161 165.198 18.9543 165.247 18.9048C165.649 18.8677 166.039 18.7811 166.416 18.645C166.454 18.6636 166.472 18.7223 166.472 18.8213C166.472 18.8646 166.432 19.0965 166.351 19.5171L165.711 22.792C165.77 22.6868 165.905 22.4951 166.115 22.2168C166.254 22.0343 166.415 21.8472 166.597 21.6555C166.783 21.4607 166.965 21.2968 167.145 21.1638C167.327 21.0308 167.48 20.9644 167.604 20.9644ZM174.452 20.9644C174.681 20.9644 174.907 21.0046 175.13 21.085L174.564 24.0166C174.545 24.0908 174.536 24.1681 174.536 24.2485C174.536 24.4032 174.567 24.4805 174.629 24.4805C174.706 24.4805 174.799 24.4264 174.907 24.3181C175.015 24.2068 175.108 24.1125 175.185 24.0352L175.241 23.9702C175.253 23.9702 175.277 23.9996 175.311 24.0583C175.345 24.1171 175.362 24.1589 175.362 24.1836C175.309 24.2733 175.213 24.3877 175.074 24.5269C174.938 24.666 174.79 24.7897 174.629 24.8979C174.468 25.0031 174.323 25.0557 174.193 25.0557C174.094 25.0557 174.016 25.0108 173.961 24.9211C173.905 24.8315 173.877 24.7155 173.877 24.5732C173.877 24.4774 173.899 24.3135 173.942 24.0815L173.975 23.9192C173.984 23.8759 173.989 23.8496 173.989 23.8403C173.939 23.9331 173.868 24.0475 173.775 24.1836C173.682 24.3166 173.576 24.4495 173.455 24.5825C173.335 24.7155 173.208 24.8268 173.075 24.9165C172.942 25.0031 172.81 25.0464 172.68 25.0464C172.408 25.0464 172.193 24.9242 172.036 24.6799C171.878 24.4356 171.799 24.1403 171.799 23.7939C171.799 23.3517 171.931 22.9111 172.193 22.4719C172.37 22.175 172.58 21.9137 172.824 21.688C173.072 21.4622 173.336 21.286 173.617 21.1592C173.899 21.0293 174.177 20.9644 174.452 20.9644ZM174.063 21.3911C173.88 21.3911 173.696 21.4561 173.511 21.5859C173.325 21.7127 173.155 21.8844 173.001 22.1008C172.846 22.3142 172.721 22.5523 172.625 22.8152C172.532 23.075 172.486 23.3363 172.486 23.5991C172.486 24.2052 172.643 24.5083 172.959 24.5083C173.07 24.5083 173.191 24.4465 173.321 24.3228C173.45 24.1991 173.579 24.0352 173.706 23.8311C173.832 23.627 173.944 23.4058 174.04 23.1677C174.139 22.9265 174.211 22.6899 174.258 22.458L174.443 21.5117C174.369 21.4313 174.242 21.3911 174.063 21.3911ZM180.049 20.9644C180.147 20.9644 180.225 21.0092 180.28 21.0989C180.336 21.1886 180.364 21.3045 180.364 21.4468C180.364 21.5828 180.345 21.7467 180.308 21.9385L180.16 22.7178C180.237 22.5353 180.336 22.3436 180.457 22.1426C180.58 21.9385 180.712 21.7467 180.851 21.5674C180.99 21.388 181.128 21.2427 181.264 21.1313C181.4 21.02 181.521 20.9644 181.626 20.9644C181.836 20.9644 182.006 21.0633 182.136 21.2612C182.136 21.6756 182.022 21.8828 181.793 21.8828C181.743 21.8828 181.684 21.8442 181.616 21.7668C181.548 21.6895 181.477 21.6509 181.403 21.6509C181.313 21.6509 181.196 21.7251 181.05 21.8735C180.905 22.022 180.755 22.2168 180.601 22.458C180.446 22.6961 180.307 22.9543 180.183 23.2327C180.059 23.5079 179.974 23.7723 179.928 24.0259L179.752 25C179.647 25.0186 179.544 25.0278 179.446 25.0278C179.328 25.0278 179.214 25.0186 179.102 25L179.659 22.1426C179.69 21.9292 179.705 21.8055 179.705 21.7715C179.705 21.6169 179.674 21.5396 179.612 21.5396C179.56 21.5396 179.481 21.589 179.376 21.688C179.326 21.7375 179.272 21.7916 179.214 21.8503C179.158 21.9091 179.121 21.9508 179.102 21.9756C179.09 21.9756 179.067 21.9462 179.033 21.8875C178.999 21.8287 178.982 21.7869 178.982 21.7622C179.031 21.6787 179.121 21.5751 179.251 21.4514C179.381 21.3246 179.52 21.2118 179.668 21.1128C179.817 21.0138 179.943 20.9644 180.049 20.9644ZM187.491 20.9644C187.72 20.9644 187.945 21.0046 188.168 21.085L187.602 24.0166C187.584 24.0908 187.574 24.1681 187.574 24.2485C187.574 24.4032 187.605 24.4805 187.667 24.4805C187.744 24.4805 187.837 24.4264 187.945 24.3181C188.054 24.2068 188.146 24.1125 188.224 24.0352L188.279 23.9702C188.292 23.9702 188.315 23.9996 188.349 24.0583C188.383 24.1171 188.4 24.1589 188.4 24.1836C188.347 24.2733 188.252 24.3877 188.112 24.5269C187.976 24.666 187.828 24.7897 187.667 24.8979C187.506 25.0031 187.361 25.0557 187.231 25.0557C187.132 25.0557 187.055 25.0108 186.999 24.9211C186.943 24.8315 186.916 24.7155 186.916 24.5732C186.916 24.4774 186.937 24.3135 186.981 24.0815L187.013 23.9192C187.022 23.8759 187.027 23.8496 187.027 23.8403C186.977 23.9331 186.906 24.0475 186.814 24.1836C186.721 24.3166 186.614 24.4495 186.494 24.5825C186.373 24.7155 186.246 24.8268 186.113 24.9165C185.98 25.0031 185.849 25.0464 185.719 25.0464C185.447 25.0464 185.232 24.9242 185.074 24.6799C184.916 24.4356 184.838 24.1403 184.838 23.7939C184.838 23.3517 184.969 22.9111 185.232 22.4719C185.408 22.175 185.618 21.9137 185.863 21.688C186.11 21.4622 186.374 21.286 186.656 21.1592C186.937 21.0293 187.216 20.9644 187.491 20.9644ZM187.101 21.3911C186.919 21.3911 186.735 21.4561 186.549 21.5859C186.364 21.7127 186.194 21.8844 186.039 22.1008C185.884 22.3142 185.759 22.5523 185.663 22.8152C185.57 23.075 185.524 23.3363 185.524 23.5991C185.524 24.2052 185.682 24.5083 185.997 24.5083C186.108 24.5083 186.229 24.4465 186.359 24.3228C186.489 24.1991 186.617 24.0352 186.744 23.8311C186.871 23.627 186.982 23.4058 187.078 23.1677C187.177 22.9265 187.25 22.6899 187.296 22.458L187.482 21.5117C187.407 21.4313 187.281 21.3911 187.101 21.3911ZM193.022 20.9644C193.121 20.9644 193.198 21.0092 193.254 21.0989C193.31 21.1886 193.337 21.3045 193.337 21.4468C193.337 21.5828 193.319 21.7467 193.282 21.9385L193.115 22.792C193.174 22.6868 193.308 22.4951 193.518 22.2168C193.657 22.0343 193.818 21.8472 194.001 21.6555C194.186 21.4607 194.369 21.2968 194.548 21.1638C194.731 21.0308 194.884 20.9644 195.007 20.9644C195.317 20.9644 195.471 21.1685 195.471 21.5767C195.471 21.8643 195.428 22.2013 195.341 22.5879L195.035 24.0166C195.017 24.0908 195.007 24.1681 195.007 24.2485C195.007 24.4032 195.038 24.4805 195.1 24.4805C195.177 24.4805 195.27 24.4264 195.378 24.3181C195.487 24.2068 195.579 24.1125 195.657 24.0352L195.712 23.9702C195.725 23.9702 195.748 23.9996 195.782 24.0583C195.816 24.1171 195.833 24.1589 195.833 24.1836C195.78 24.2733 195.685 24.3877 195.545 24.5269C195.409 24.666 195.261 24.7897 195.1 24.8979C194.939 25.0031 194.794 25.0557 194.664 25.0557C194.565 25.0557 194.488 25.0108 194.432 24.9211C194.376 24.8315 194.349 24.7155 194.349 24.5732C194.349 24.4805 194.37 24.3166 194.414 24.0815L194.738 22.5508C194.782 22.3405 194.803 22.1735 194.803 22.0498C194.803 21.7839 194.744 21.6509 194.627 21.6509C194.525 21.6509 194.387 21.7282 194.214 21.8828C194.041 22.0343 193.86 22.2369 193.671 22.4905C193.486 22.7441 193.317 23.027 193.166 23.3394C193.014 23.6486 192.908 23.9609 192.846 24.2764L192.688 25C192.604 25.0247 192.509 25.0371 192.4 25.0371C192.295 25.0371 192.19 25.0247 192.085 25L192.632 22.1426C192.663 21.9292 192.679 21.8055 192.679 21.7715C192.679 21.6169 192.648 21.5396 192.586 21.5396C192.533 21.5396 192.455 21.589 192.349 21.688C192.3 21.7375 192.246 21.7916 192.187 21.8503C192.131 21.9091 192.094 21.9508 192.076 21.9756C192.063 21.9756 192.04 21.9462 192.006 21.8875C191.972 21.8287 191.955 21.7869 191.955 21.7622C192.005 21.6787 192.094 21.5751 192.224 21.4514C192.354 21.3246 192.493 21.2118 192.642 21.1128C192.79 21.0138 192.917 20.9644 193.022 20.9644Z" fill="#FFFDD0"/>
<path opacity="0.9" d="M45.2193 43.5884C44.8153 43.4169 44.4142 43.3311 44.0158 43.3311C43.2079 43.3311 42.804 43.6299 42.804 44.2275C42.804 44.4876 42.8953 44.731 43.0779 44.9579C43.2605 45.1792 43.4818 45.3784 43.7419 45.5555C44.0019 45.727 44.262 45.9041 44.5221 46.0867C44.7821 46.2693 45.0035 46.4879 45.1861 46.7424C45.3687 46.9969 45.46 47.2736 45.46 47.5724C45.46 48.0759 45.2912 48.4577 44.9537 48.7178C44.6161 48.9723 44.1486 49.0996 43.551 49.0996C42.9589 49.0996 42.4526 48.9474 42.0321 48.6431L42.2313 48.3443C42.6297 48.6044 43.0668 48.7344 43.5427 48.7344C44.0185 48.7344 44.3837 48.6403 44.6383 48.4522C44.8928 48.2585 45.0201 47.9819 45.0201 47.6222C45.0201 47.3732 44.9288 47.138 44.7462 46.9167C44.5636 46.6898 44.3422 46.4879 44.0822 46.3108C43.8221 46.1282 43.562 45.9428 43.302 45.7547C43.0419 45.5666 42.8206 45.3425 42.638 45.0824C42.4554 44.8223 42.3641 44.5429 42.3641 44.2441C42.3641 43.8512 42.5079 43.5414 42.7957 43.3145C43.0889 43.0821 43.4818 42.9659 43.9743 42.9659C44.4723 42.9659 44.9343 43.0655 45.3604 43.2647L45.2193 43.5884ZM50.3442 43.9536H48.5182V43.6133H52.5437V43.9536H50.7177V49H50.3442V43.9536ZM59.9938 48.4439C59.6286 48.87 59.0725 49.083 58.3255 49.083C57.5785 49.083 57.0224 48.87 56.6572 48.4439C56.292 48.0178 56.1094 47.4285 56.1094 46.676V43.6133H56.4912V46.676C56.4912 48.0538 57.1026 48.7427 58.3255 48.7427C59.5483 48.7427 60.1598 48.0538 60.1598 46.676V43.6133H60.5416V46.676C60.5416 47.4285 60.359 48.0178 59.9938 48.4439ZM66.6978 48.7178C67.4061 48.7178 67.9733 48.5269 68.3993 48.1451C68.8309 47.7633 69.0467 47.1878 69.0467 46.4187C69.0467 45.6496 68.8033 45.0381 68.3163 44.5844C67.8349 44.1307 67.2401 43.9038 66.5318 43.9038C66.0283 43.9038 65.641 43.9149 65.3698 43.937V48.6597C65.7018 48.6984 66.1445 48.7178 66.6978 48.7178ZM66.5318 43.5635C67.3618 43.5635 68.0535 43.8208 68.6068 44.3354C69.1657 44.8445 69.4451 45.5389 69.4451 46.4187C69.4451 47.2985 69.1878 47.9597 68.6732 48.4024C68.1642 48.8451 67.5057 49.0664 66.6978 49.0664C66.139 49.0664 65.5635 49.0387 64.9714 48.9834V43.6133C65.4141 43.5801 65.9342 43.5635 66.5318 43.5635ZM73.5973 49V43.6133H76.1122V43.9453H73.9791V45.9041H75.9047V46.2278H73.9791V48.6514H76.1952V49H73.5973ZM80.213 49V43.5801H80.3956L83.9314 47.6471C84.0586 47.791 84.1748 47.9348 84.28 48.0787C84.3906 48.217 84.4487 48.289 84.4543 48.2945C84.4432 48.1617 84.4377 47.9016 84.4377 47.5143V43.6133H84.8195V49.0332H84.6369L81.0347 44.8998L80.5782 44.3437C80.5892 44.4544 80.5948 44.7144 80.5948 45.1239V49H80.213ZM90.2636 43.9536H88.4376V43.6133H92.4631V43.9536H90.6371V49H90.2636V43.9536ZM104.465 49.0996C103.601 49.0996 102.86 48.8063 102.24 48.2198C101.62 47.6277 101.311 46.9001 101.311 46.0369C101.311 45.1682 101.582 44.4405 102.124 43.854C102.666 43.2619 103.361 42.9659 104.207 42.9659C104.871 42.9659 105.544 43.0766 106.224 43.2979L106.116 43.6299C105.452 43.4307 104.816 43.3311 104.207 43.3311C103.482 43.3311 102.89 43.5912 102.431 44.1113C101.972 44.6314 101.742 45.2678 101.742 46.0203C101.742 46.7728 102.008 47.4147 102.539 47.9459C103.076 48.4716 103.718 48.7344 104.465 48.7344C105.117 48.7344 105.682 48.6348 106.158 48.4356L106.282 48.7178C106.072 48.8395 105.795 48.9336 105.452 49C105.115 49.0664 104.785 49.0996 104.465 49.0996ZM112.519 49.083C111.75 49.083 111.105 48.8146 110.585 48.2779C110.065 47.7412 109.805 47.0855 109.805 46.3108C109.805 45.5306 110.065 44.8721 110.585 44.3354C111.105 43.7987 111.75 43.5303 112.519 43.5303C113.288 43.5303 113.933 43.7987 114.453 44.3354C114.973 44.8721 115.233 45.5306 115.233 46.3108C115.233 47.0855 114.973 47.7412 114.453 48.2779C113.933 48.8146 113.288 49.083 112.519 49.083ZM112.519 43.8706C111.855 43.8706 111.302 44.1058 110.859 44.5761C110.422 45.0464 110.203 45.6247 110.203 46.3108C110.203 46.9914 110.422 47.5669 110.859 48.0372C111.302 48.502 111.855 48.7344 112.519 48.7344C113.188 48.7344 113.742 48.502 114.179 48.0372C114.616 47.5669 114.835 46.9914 114.835 46.3108C114.835 45.6247 114.616 45.0464 114.179 44.5761C113.742 44.1058 113.188 43.8706 112.519 43.8706ZM121.885 48.7178H121.661L120.092 44.9081C120.026 44.7587 119.959 44.5844 119.893 44.3852C119.893 44.3907 119.887 44.4212 119.876 44.4765C119.871 44.5318 119.863 44.6065 119.852 44.7006C119.84 44.7891 119.829 44.8638 119.818 44.9247L119.196 49H118.822L119.702 43.5801H119.926L121.603 47.5558C121.736 47.8878 121.802 48.0621 121.802 48.0787C121.841 47.9625 121.915 47.791 122.026 47.5641L123.894 43.5801H124.118L124.939 49H124.541L123.952 44.9081C123.913 44.637 123.894 44.4571 123.894 44.3686L123.653 44.9164L121.885 48.7178ZM131.354 48.7178H131.13L129.561 44.9081C129.495 44.7587 129.428 44.5844 129.362 44.3852C129.362 44.3907 129.356 44.4212 129.345 44.4765C129.34 44.5318 129.331 44.6065 129.32 44.7006C129.309 44.7891 129.298 44.8638 129.287 44.9247L128.665 49H128.291L129.171 43.5801H129.395L131.072 47.5558C131.204 47.8878 131.271 48.0621 131.271 48.0787C131.31 47.9625 131.384 47.791 131.495 47.5641L133.362 43.5801H133.587L134.408 49H134.01L133.421 44.9081C133.382 44.637 133.362 44.4571 133.362 44.3686L133.122 44.9164L131.354 48.7178ZM142.159 48.4439C141.794 48.87 141.238 49.083 140.491 49.083C139.744 49.083 139.188 48.87 138.822 48.4439C138.457 48.0178 138.275 47.4285 138.275 46.676V43.6133H138.656V46.676C138.656 48.0538 139.268 48.7427 140.491 48.7427C141.713 48.7427 142.325 48.0538 142.325 46.676V43.6133H142.707V46.676C142.707 47.4285 142.524 48.0178 142.159 48.4439ZM147.137 49V43.5801H147.319L150.855 47.6471C150.982 47.791 151.098 47.9348 151.204 48.0787C151.314 48.217 151.372 48.289 151.378 48.2945C151.367 48.1617 151.361 47.9016 151.361 47.5143V43.6133H151.743V49.0332H151.56L147.958 44.8998L147.502 44.3437C147.513 44.4544 147.518 44.7144 147.518 45.1239V49H147.137ZM156.224 49V43.6133H156.606V49H156.224ZM165.281 48.7344C164.866 48.9668 164.288 49.083 163.546 49.083C162.81 49.083 162.16 48.8174 161.596 48.2862C161.037 47.755 160.757 47.0965 160.757 46.3108C160.757 45.5195 161.001 44.8583 161.488 44.3271C161.98 43.7959 162.614 43.5303 163.388 43.5303C164.014 43.5303 164.625 43.6271 165.223 43.8208L165.123 44.1362C164.548 43.9591 163.953 43.8706 163.339 43.8706C162.724 43.8706 162.207 44.1058 161.787 44.5761C161.372 45.0409 161.164 45.6136 161.164 46.2942C161.164 46.9693 161.405 47.5447 161.886 48.0206C162.373 48.4965 162.935 48.7344 163.571 48.7344C164.207 48.7344 164.736 48.6459 165.156 48.4688L165.281 48.7344ZM169.397 47.1325L168.625 49H168.235L170.493 43.5801H170.717L172.991 49H172.568L171.788 47.1325H169.397ZM170.584 44.1943C170.501 44.4433 170.426 44.6508 170.36 44.8168L169.53 46.8088H171.655L170.833 44.8251C170.706 44.5152 170.623 44.305 170.584 44.1943ZM177.026 43.9536H175.2V43.6133H179.226V43.9536H177.4V49H177.026V43.9536ZM182.841 49V43.6133H183.223V49H182.841ZM190.088 49.083C189.319 49.083 188.674 48.8146 188.154 48.2779C187.634 47.7412 187.374 47.0855 187.374 46.3108C187.374 45.5306 187.634 44.8721 188.154 44.3354C188.674 43.7987 189.319 43.5303 190.088 43.5303C190.857 43.5303 191.502 43.7987 192.022 44.3354C192.542 44.8721 192.802 45.5306 192.802 46.3108C192.802 47.0855 192.542 47.7412 192.022 48.2779C191.502 48.8146 190.857 49.083 190.088 49.083ZM190.088 43.8706C189.424 43.8706 188.871 44.1058 188.428 44.5761C187.991 45.0464 187.772 45.6247 187.772 46.3108C187.772 46.9914 187.991 47.5669 188.428 48.0372C188.871 48.502 189.424 48.7344 190.088 48.7344C190.758 48.7344 191.311 48.502 191.748 48.0372C192.185 47.5669 192.404 46.9914 192.404 46.3108C192.404 45.6247 192.185 45.0464 191.748 44.5761C191.311 44.1058 190.758 43.8706 190.088 43.8706ZM196.956 49V43.5801H197.139L200.674 47.6471C200.802 47.791 200.918 47.9348 201.023 48.0787C201.134 48.217 201.192 48.289 201.197 48.2945C201.186 48.1617 201.181 47.9016 201.181 47.5143V43.6133H201.563V49.0332H201.38L197.778 44.8998L197.321 44.3437C197.332 44.4544 197.338 44.7144 197.338 45.1239V49H196.956ZM215.169 46.7175H215.492C215.481 47.2321 215.335 47.6831 215.052 48.0704L215.916 49H215.418L214.812 48.3443C214.546 48.5767 214.242 48.7593 213.899 48.8921C213.556 49.0249 213.224 49.0913 212.903 49.0913C212.366 49.0913 211.945 48.9806 211.641 48.7593C211.342 48.5324 211.193 48.217 211.193 47.8131C211.193 47.4092 211.312 47.0689 211.55 46.7922C211.788 46.51 212.122 46.2223 212.554 45.929C211.896 45.2207 211.566 44.6757 211.566 44.2939C211.566 43.9121 211.691 43.6133 211.94 43.3975C212.189 43.1762 212.551 43.0655 213.027 43.0655C213.503 43.0655 213.86 43.1789 214.098 43.4058C214.336 43.6271 214.455 43.8955 214.455 44.2109C214.455 44.5208 214.336 44.814 214.098 45.0907C213.86 45.3674 213.531 45.6689 213.11 45.9954L214.828 47.8297C214.922 47.719 215.003 47.5503 215.069 47.3234C215.135 47.0965 215.169 46.8946 215.169 46.7175ZM212.952 48.7676C213.511 48.7676 214.051 48.5435 214.571 48.0953L212.803 46.2029C211.984 46.7009 211.575 47.1989 211.575 47.6969C211.575 48.0344 211.694 48.2973 211.932 48.4854C212.169 48.6735 212.51 48.7676 212.952 48.7676ZM214.081 44.2773C214.081 44.0006 213.99 43.7848 213.807 43.6299C213.63 43.475 213.378 43.3975 213.052 43.3975C212.311 43.3975 211.94 43.6908 211.94 44.2773C211.94 44.4322 211.987 44.601 212.081 44.7836C212.181 44.9607 212.286 45.1128 212.396 45.2401C212.507 45.3618 212.662 45.5223 212.861 45.7215C213.675 45.1848 214.081 44.7034 214.081 44.2773ZM93.6064 57.6929H93.3823L91.6476 53.4931C91.548 53.2607 91.4678 53.056 91.4069 52.8789L91.3239 53.5097L90.6433 58H90.2366L91.216 52.0157H91.4484L93.2993 56.4147C93.3934 56.6194 93.4681 56.8131 93.5234 56.9957C93.54 56.9348 93.6258 56.7439 93.7807 56.423L95.8474 52.0157H96.0715L96.9762 58H96.5612L95.9138 53.4931C95.8696 53.2109 95.8474 52.9979 95.8474 52.854C95.8419 52.8595 95.8281 52.8872 95.8059 52.937C95.7893 52.9813 95.7561 53.0587 95.7063 53.1694C95.6621 53.2745 95.615 53.3852 95.5652 53.5014L93.6064 57.6929ZM104.832 57.4439C104.466 57.87 103.91 58.083 103.163 58.083C102.416 58.083 101.86 57.87 101.495 57.4439C101.13 57.0178 100.947 56.4285 100.947 55.676V52.6133H101.329V55.676C101.329 57.0538 101.94 57.7427 103.163 57.7427C104.386 57.7427 104.998 57.0538 104.998 55.676V52.6133H105.379V55.676C105.379 56.4285 105.197 57.0178 104.832 57.4439ZM109.809 58V52.6133H110.191V57.6514H112.664V58H109.809ZM116.48 52.9536H114.654V52.6133H118.679V52.9536H116.853V58H116.48V52.9536ZM122.295 58V52.6133H122.677V58H122.295ZM129.658 57.7178H129.434L127.865 53.9081C127.799 53.7587 127.733 53.5844 127.666 53.3852C127.666 53.3907 127.661 53.4212 127.65 53.4765C127.644 53.5318 127.636 53.6065 127.625 53.7006C127.614 53.7891 127.603 53.8638 127.591 53.9247L126.969 58H126.595L127.475 52.5801H127.699L129.376 56.5558C129.509 56.8878 129.575 57.0621 129.575 57.0787C129.614 56.9625 129.689 56.791 129.799 56.5641L131.667 52.5801H131.891L132.713 58H132.314L131.725 53.9081C131.686 53.637 131.667 53.4571 131.667 53.3686L131.426 53.9164L129.658 57.7178ZM136.629 58V52.6133H139.144V52.9453H137.01V54.9041H138.936V55.2278H137.01V57.6514H139.227V58H136.629ZM144.971 57.7178C145.679 57.7178 146.246 57.5269 146.672 57.1451C147.104 56.7633 147.32 56.1878 147.32 55.4187C147.32 54.6496 147.076 54.0381 146.589 53.5844C146.108 53.1307 145.513 52.9038 144.805 52.9038C144.301 52.9038 143.914 52.9149 143.643 52.937V57.6597C143.975 57.6984 144.417 57.7178 144.971 57.7178ZM144.805 52.5635C145.635 52.5635 146.326 52.8208 146.88 53.3354C147.439 53.8445 147.718 54.5389 147.718 55.4187C147.718 56.2985 147.461 56.9597 146.946 57.4024C146.437 57.8451 145.779 58.0664 144.971 58.0664C144.412 58.0664 143.836 58.0387 143.244 57.9834V52.6133C143.687 52.5801 144.207 52.5635 144.805 52.5635ZM151.87 58V52.6133H152.252V58H151.87ZM157.001 56.1325L156.229 58H155.839L158.096 52.5801H158.32L160.595 58H160.171L159.391 56.1325H157.001ZM158.188 53.1943C158.105 53.4433 158.03 53.6508 157.963 53.8168L157.133 55.8088H159.258L158.437 53.8251C158.309 53.5152 158.226 53.305 158.188 53.1943ZM171.659 57.7095C172.439 57.7095 173.064 57.4992 173.535 57.0787C174.01 56.6526 174.248 56.0135 174.248 55.1614C174.248 54.3093 173.98 53.6314 173.443 53.1279C172.912 52.6244 172.254 52.3726 171.468 52.3726C170.964 52.3726 170.527 52.3864 170.156 52.4141V57.6431C170.516 57.6874 171.017 57.7095 171.659 57.7095ZM171.468 52.0074C172.381 52.0074 173.144 52.2924 173.759 52.8623C174.373 53.4267 174.68 54.1958 174.68 55.1697C174.68 55.6622 174.6 56.0993 174.439 56.4811C174.284 56.8574 174.069 57.1589 173.792 57.3858C173.222 57.8451 172.511 58.0747 171.659 58.0747C171.1 58.0747 170.466 58.0443 169.758 57.9834V52.0655C170.322 52.0268 170.892 52.0074 171.468 52.0074ZM178.917 58V52.6133H181.431V52.9453H179.298V54.9041H181.224V55.2278H179.298V57.6514H181.514V58H178.917ZM185.532 58V52.6133H185.914V58H185.532ZM191.484 52.8457C191.186 52.8457 190.942 52.9176 190.754 53.0615C190.566 53.2054 190.472 53.4073 190.472 53.6674C190.472 53.9662 190.596 54.2346 190.845 54.4725C191.022 54.644 191.249 54.8266 191.526 55.0203C191.808 55.2084 192.002 55.344 192.107 55.427C192.212 55.51 192.339 55.6234 192.489 55.7673C192.76 56.0384 192.895 56.3511 192.895 56.7052C192.895 57.1645 192.74 57.5131 192.431 57.751C192.126 57.9834 191.697 58.0996 191.144 58.0996C190.596 58.0996 190.137 57.9557 189.766 57.668L189.965 57.3775C190.342 57.632 190.74 57.7593 191.161 57.7593C191.581 57.7593 191.908 57.6708 192.14 57.4937C192.378 57.3166 192.497 57.0676 192.497 56.7467C192.497 56.47 192.378 56.2155 192.14 55.9831C191.974 55.8171 191.75 55.6373 191.468 55.4436C191.191 55.2499 190.997 55.1116 190.887 55.0286C190.776 54.9401 190.646 54.8239 190.497 54.68C190.214 54.3978 190.073 54.0713 190.073 53.7006C190.073 53.3299 190.203 53.0394 190.463 52.8291C190.729 52.6188 191.094 52.5137 191.559 52.5137C192.024 52.5137 192.442 52.605 192.812 52.7876L192.671 53.0947C192.328 52.9287 191.933 52.8457 191.484 52.8457ZM196.916 58V52.6133H197.297V58H196.916ZM204.03 52.8706C203.416 52.8706 202.898 53.1058 202.478 53.5761C202.063 54.0409 201.855 54.6136 201.855 55.2942C201.855 55.9748 202.09 56.553 202.561 57.0289C203.031 57.4992 203.584 57.7344 204.221 57.7344C204.862 57.7344 205.36 57.6597 205.715 57.5103V55.2942H206.096V57.6846C205.665 57.9502 205.053 58.083 204.262 58.083C203.471 58.083 202.804 57.8146 202.262 57.2779C201.72 56.7412 201.448 56.0827 201.448 55.3025C201.448 54.5168 201.692 53.8583 202.179 53.3271C202.671 52.7959 203.305 52.5303 204.08 52.5303C204.705 52.5303 205.316 52.6271 205.914 52.8208L205.814 53.1362C205.239 52.9591 204.644 52.8706 204.03 52.8706ZM210.398 58V52.5801H210.581L214.117 56.6471C214.244 56.791 214.36 56.9348 214.465 57.0787C214.576 57.217 214.634 57.289 214.639 57.2945C214.628 57.1617 214.623 56.9016 214.623 56.5143V52.6133H215.005V58.0332H214.822L211.22 53.8998L210.763 53.3437C210.774 53.4544 210.78 53.7144 210.78 54.1239V58H210.398Z" fill="white"/>
</svg>
