<svg width="216" height="60" viewBox="0 0 216 60" fill="none" xmlns="http://www.w3.org/2000/svg">
<path d="M2.21236 34V8.54545H12.255C14.1856 8.54545 15.8304 8.91418 17.1893 9.65163C18.5482 10.3808 19.5839 11.3958 20.2965 12.6967C21.0174 13.9893 21.3778 15.4808 21.3778 17.1712C21.3778 18.8615 21.0133 20.353 20.2841 21.6456C19.5549 22.9382 18.4985 23.945 17.1147 24.6658C15.7392 25.3867 14.0737 25.7472 12.1183 25.7472H5.71733V21.4343H11.2482C12.284 21.4343 13.1374 21.2562 13.8086 20.8999C14.488 20.5353 14.9935 20.034 15.3249 19.396C15.6647 18.7496 15.8345 18.008 15.8345 17.1712C15.8345 16.326 15.6647 15.5885 15.3249 14.9588C14.9935 14.3208 14.488 13.8278 13.8086 13.4798C13.1291 13.1235 12.2674 12.9453 11.2234 12.9453H7.59411V34H2.21236ZM50.0148 21.2727C50.0148 24.0485 49.4887 26.41 48.4363 28.3572C47.3923 30.3045 45.9671 31.7918 44.1608 32.8192C42.3627 33.8384 40.3409 34.348 38.0954 34.348C35.8334 34.348 33.8033 33.8343 32.0052 32.8068C30.2072 31.7794 28.7861 30.292 27.7421 28.3448C26.6981 26.3976 26.176 24.0402 26.176 21.2727C26.176 18.4969 26.6981 16.1354 27.7421 14.1882C28.7861 12.241 30.2072 10.7578 32.0052 9.73864C33.8033 8.71117 35.8334 8.19744 38.0954 8.19744C40.3409 8.19744 42.3627 8.71117 44.1608 9.73864C45.9671 10.7578 47.3923 12.241 48.4363 14.1882C49.4887 16.1354 50.0148 18.4969 50.0148 21.2727ZM44.5585 21.2727C44.5585 19.4747 44.2892 17.9583 43.7506 16.7237C43.2203 15.4891 42.4704 14.5528 41.501 13.9148C40.5315 13.2768 39.3963 12.9577 38.0954 12.9577C36.7945 12.9577 35.6594 13.2768 34.6899 13.9148C33.7204 14.5528 32.9664 15.4891 32.4278 16.7237C31.8975 17.9583 31.6324 19.4747 31.6324 21.2727C31.6324 23.0708 31.8975 24.5871 32.4278 25.8217C32.9664 27.0563 33.7204 27.9927 34.6899 28.6307C35.6594 29.2687 36.7945 29.5877 38.0954 29.5877C39.3963 29.5877 40.5315 29.2687 41.501 28.6307C42.4704 27.9927 43.2203 27.0563 43.7506 25.8217C44.2892 24.5871 44.5585 23.0708 44.5585 21.2727ZM55.7514 34V8.54545H65.794C67.7164 8.54545 69.357 8.88932 70.7159 9.57706C72.0831 10.2565 73.123 11.2218 73.8356 12.473C74.5565 13.7159 74.9169 15.1784 74.9169 16.8604C74.9169 18.5508 74.5523 20.005 73.8232 21.223C73.094 22.4328 72.0375 23.3608 70.6538 24.0071C69.2783 24.6534 67.6128 24.9766 65.6573 24.9766H58.9332V20.6513H64.7873C65.8147 20.6513 66.6682 20.5104 67.3477 20.2287C68.0271 19.947 68.5326 19.5244 68.864 18.9609C69.2037 18.3975 69.3736 17.6973 69.3736 16.8604C69.3736 16.0153 69.2037 15.3027 68.864 14.7227C68.5326 14.1426 68.023 13.7035 67.3352 13.4052C66.6558 13.0986 65.7982 12.9453 64.7624 12.9453H61.1332V34H55.7514ZM69.4979 22.4162L75.8242 34H69.8832L63.6935 22.4162H69.4979ZM79.5007 12.9826V8.54545H100.406V12.9826H92.6133V34H87.2937V12.9826H79.5007ZM105.599 34V8.54545H122.453V12.9826H110.981V19.0479H121.334V23.4851H110.981V34H105.599ZM151.214 21.2727C151.214 24.0485 150.688 26.41 149.636 28.3572C148.592 30.3045 147.166 31.7918 145.36 32.8192C143.562 33.8384 141.54 34.348 139.295 34.348C137.033 34.348 135.003 33.8343 133.204 32.8068C131.406 31.7794 129.985 30.292 128.941 28.3448C127.897 26.3976 127.375 24.0402 127.375 21.2727C127.375 18.4969 127.897 16.1354 128.941 14.1882C129.985 12.241 131.406 10.7578 133.204 9.73864C135.003 8.71117 137.033 8.19744 139.295 8.19744C141.54 8.19744 143.562 8.71117 145.36 9.73864C147.166 10.7578 148.592 12.241 149.636 14.1882C150.688 16.1354 151.214 18.4969 151.214 21.2727ZM145.758 21.2727C145.758 19.4747 145.488 17.9583 144.95 16.7237C144.42 15.4891 143.67 14.5528 142.7 13.9148C141.731 13.2768 140.596 12.9577 139.295 12.9577C137.994 12.9577 136.859 13.2768 135.889 13.9148C134.92 14.5528 134.166 15.4891 133.627 16.7237C133.097 17.9583 132.832 19.4747 132.832 21.2727C132.832 23.0708 133.097 24.5871 133.627 25.8217C134.166 27.0563 134.92 27.9927 135.889 28.6307C136.859 29.2687 137.994 29.5877 139.295 29.5877C140.596 29.5877 141.731 29.2687 142.7 28.6307C143.67 27.9927 144.42 27.0563 144.95 25.8217C145.488 24.5871 145.758 23.0708 145.758 21.2727ZM156.951 34V8.54545H162.332V29.5629H173.245V34H156.951ZM183.941 8.54545V34H178.559V8.54545H183.941ZM213.51 21.2727C213.51 24.0485 212.984 26.41 211.931 28.3572C210.887 30.3045 209.462 31.7918 207.656 32.8192C205.858 33.8384 203.836 34.348 201.591 34.348C199.328 34.348 197.298 33.8343 195.5 32.8068C193.702 31.7794 192.281 30.292 191.237 28.3448C190.193 26.3976 189.671 24.0402 189.671 21.2727C189.671 18.4969 190.193 16.1354 191.237 14.1882C192.281 12.241 193.702 10.7578 195.5 9.73864C197.298 8.71117 199.328 8.19744 201.591 8.19744C203.836 8.19744 205.858 8.71117 207.656 9.73864C209.462 10.7578 210.887 12.241 211.931 14.1882C212.984 16.1354 213.51 18.4969 213.51 21.2727ZM208.054 21.2727C208.054 19.4747 207.784 17.9583 207.246 16.7237C206.715 15.4891 205.966 14.5528 204.996 13.9148C204.027 13.2768 202.891 12.9577 201.591 12.9577C200.29 12.9577 199.154 13.2768 198.185 13.9148C197.216 14.5528 196.462 15.4891 195.923 16.7237C195.393 17.9583 195.127 19.4747 195.127 21.2727C195.127 23.0708 195.393 24.5871 195.923 25.8217C196.462 27.0563 197.216 27.9927 198.185 28.6307C199.154 29.2687 200.29 29.5877 201.591 29.5877C202.891 29.5877 204.027 29.2687 204.996 28.6307C205.966 27.9927 206.715 27.0563 207.246 25.8217C207.784 24.5871 208.054 23.0708 208.054 21.2727Z" fill="#FFFDD0"/>
<rect x="117" y="17.205" width="87.9659" height="10.8451" fill="black"/>
<path d="M127.221 23.4785L128.873 20.1479L129.457 18.8955C129.624 18.9141 129.868 18.9233 130.19 18.9233C130.298 18.9233 130.419 18.9202 130.552 18.9141C130.688 18.9079 130.836 18.8986 130.997 18.8862C131.009 18.9172 131.009 18.9697 130.997 19.0439C130.985 19.1182 130.969 19.1553 130.951 19.1553C130.87 19.1553 130.785 19.1769 130.696 19.2202C130.606 19.2635 130.539 19.3161 130.496 19.3779C130.44 19.4521 130.399 19.5418 130.371 19.647C130.346 19.7428 130.317 19.9284 130.283 20.2036L129.921 23.7476C129.884 24.0661 129.865 24.3104 129.865 24.4805C129.865 24.6104 129.913 24.6923 130.009 24.7263C130.065 24.7449 130.131 24.7588 130.208 24.7681C130.289 24.7743 130.354 24.7773 130.403 24.7773C130.416 24.7773 130.422 24.8052 130.422 24.8608C130.422 24.9351 130.403 24.9907 130.366 25.0278C130.079 25.0124 129.85 25.0015 129.68 24.9954C129.513 24.9861 129.404 24.9814 129.355 24.9814C129.346 24.9814 129.259 24.9861 129.095 24.9954C128.934 25.0015 128.696 25.0124 128.381 25.0278C128.368 25.0062 128.362 24.9907 128.362 24.9814C128.362 24.9443 128.37 24.901 128.385 24.8516C128.401 24.8021 128.415 24.7773 128.427 24.7773C128.483 24.7773 128.552 24.7712 128.636 24.7588C128.723 24.7433 128.803 24.7232 128.877 24.6985C128.951 24.6707 128.996 24.6413 129.012 24.6104C129.074 24.4681 129.117 24.3367 129.142 24.2161C129.148 24.182 129.157 24.1078 129.169 23.9934C129.182 23.879 129.191 23.8063 129.197 23.7754L129.568 20.1572C129.587 19.9717 129.596 19.8511 129.596 19.7954C129.596 19.7583 129.578 19.7397 129.541 19.7397C129.537 19.7397 129.528 19.7521 129.513 19.7769L127.091 24.7124C127.06 24.7681 127.002 24.833 126.915 24.9072C126.828 24.9814 126.748 25.0186 126.674 25.0186C126.646 25.0186 126.621 25.0124 126.6 25L125.811 19.7397C125.808 19.7274 125.802 19.7212 125.792 19.7212C125.774 19.7212 125.765 19.7274 125.765 19.7397L124.679 23.7383C124.562 24.165 124.503 24.4217 124.503 24.5083C124.503 24.5516 124.548 24.5949 124.637 24.6382C124.73 24.6784 124.828 24.7124 124.93 24.7402C125.035 24.765 125.103 24.7773 125.134 24.7773C125.146 24.7773 125.152 24.7959 125.152 24.833C125.152 24.9041 125.137 24.9691 125.106 25.0278C124.818 25.0124 124.594 25.0015 124.433 24.9954C124.273 24.9861 124.175 24.9814 124.141 24.9814C124.132 24.9814 124.042 24.9861 123.872 24.9954C123.702 25.0015 123.451 25.0124 123.121 25.0278C123.108 25.0155 123.102 24.9845 123.102 24.9351C123.102 24.8299 123.124 24.7773 123.167 24.7773C123.216 24.7773 123.295 24.7665 123.404 24.7449C123.512 24.7201 123.614 24.6908 123.71 24.6567C123.809 24.6196 123.866 24.5856 123.881 24.5547C123.99 24.3506 124.092 24.0754 124.188 23.729L125.199 20.1016C125.223 19.981 125.25 19.8619 125.278 19.7444C125.305 19.6238 125.319 19.5078 125.319 19.3965C125.319 19.3501 125.276 19.3083 125.189 19.2712C125.103 19.2341 125.009 19.2048 124.906 19.1831C124.808 19.1584 124.735 19.146 124.688 19.146C124.676 19.146 124.67 19.1243 124.67 19.0811C124.67 18.979 124.688 18.9172 124.726 18.8955C124.954 18.9017 125.142 18.9063 125.287 18.9094C125.432 18.9125 125.536 18.9141 125.598 18.9141C125.774 18.9141 125.935 18.9125 126.08 18.9094C126.229 18.9063 126.361 18.9017 126.479 18.8955C126.507 19.1491 126.58 19.6593 126.697 20.4263C126.815 21.1901 126.977 22.2106 127.184 23.4878C127.184 23.494 127.187 23.4971 127.193 23.4971C127.212 23.4971 127.221 23.4909 127.221 23.4785ZM134.979 24.4712C134.979 24.6382 134.916 24.7897 134.789 24.9258C134.662 25.0618 134.521 25.1299 134.367 25.1299C134.249 25.1299 134.152 25.0881 134.074 25.0046C133.997 24.9211 133.958 24.8175 133.958 24.6938C133.958 24.5269 134.023 24.3784 134.153 24.2485C134.283 24.1187 134.425 24.0537 134.58 24.0537C134.697 24.0537 134.793 24.0924 134.868 24.1697C134.942 24.247 134.979 24.3475 134.979 24.4712ZM141.753 18.8955C142.291 18.8955 142.741 18.9976 143.103 19.2017C143.468 19.4058 143.742 19.6841 143.924 20.0366C144.11 20.3892 144.202 20.7912 144.202 21.2427C144.202 21.5581 144.156 21.8859 144.063 22.2261C143.971 22.5662 143.824 22.9033 143.623 23.2373C143.422 23.5713 143.182 23.8713 142.904 24.1372C142.625 24.4032 142.282 24.6181 141.874 24.782C141.466 24.9459 141.023 25.0278 140.547 25.0278C140.492 25.0278 140.408 25.0247 140.297 25.0186C140.188 25.0155 140.052 25.0108 139.888 25.0046C139.725 24.9985 139.575 24.9938 139.439 24.9907C139.306 24.9845 139.186 24.9814 139.081 24.9814L138.052 25.0278C138.045 25.0216 138.042 24.9969 138.042 24.9536C138.042 24.8361 138.058 24.7773 138.089 24.7773C138.135 24.7773 138.205 24.7665 138.297 24.7449C138.39 24.7201 138.478 24.6908 138.562 24.6567C138.645 24.6196 138.695 24.5825 138.71 24.5454C138.797 24.3691 138.877 24.0815 138.951 23.6826L139.619 20.2314C139.7 19.7799 139.734 19.4924 139.721 19.3687C139.718 19.3346 139.683 19.3006 139.615 19.2666C139.547 19.2326 139.473 19.2048 139.392 19.1831C139.312 19.1584 139.248 19.146 139.202 19.146C139.19 19.146 139.183 19.1336 139.183 19.1089C139.183 19.0099 139.205 18.9388 139.248 18.8955C139.391 18.9017 139.544 18.9063 139.708 18.9094C139.875 18.9125 140.052 18.9141 140.241 18.9141C140.349 18.9141 140.473 18.9141 140.612 18.9141C140.751 18.911 140.906 18.9079 141.076 18.9048C141.246 18.9017 141.387 18.9001 141.498 18.9001C141.613 18.8971 141.698 18.8955 141.753 18.8955ZM141.735 19.3037C141.073 19.3037 140.702 19.3532 140.621 19.4521C140.522 19.5789 140.439 19.8232 140.371 20.1851L139.694 23.7104C139.675 23.797 139.666 23.9285 139.666 24.1047C139.666 24.2841 139.672 24.3877 139.684 24.4155C139.74 24.5392 140.099 24.6011 140.761 24.6011C141.283 24.6011 141.747 24.4325 142.152 24.0955C142.56 23.7584 142.868 23.3301 143.075 22.8105C143.282 22.291 143.386 21.7406 143.386 21.1592C143.386 20.6149 143.25 20.1696 142.978 19.8232C142.706 19.4769 142.291 19.3037 141.735 19.3037ZM149.539 20.9644C149.904 20.9644 150.187 21.0911 150.388 21.3447C150.589 21.5983 150.689 21.9478 150.689 22.3931C150.689 22.7116 150.627 23.0286 150.504 23.344C150.38 23.6563 150.218 23.9408 150.017 24.1975C149.816 24.4542 149.594 24.6598 149.353 24.8145C149.112 24.9691 148.874 25.0464 148.639 25.0464C148.268 25.0464 147.985 24.9258 147.79 24.6846C147.595 24.4434 147.498 24.1001 147.498 23.6548C147.498 23.3332 147.558 23.0146 147.679 22.6992C147.802 22.3807 147.965 22.0916 148.166 21.8318C148.367 21.5689 148.586 21.3586 148.824 21.2009C149.066 21.0432 149.304 20.9644 149.539 20.9644ZM149.427 21.3447C149.273 21.3447 149.123 21.4128 148.977 21.5488C148.832 21.6818 148.701 21.8565 148.583 22.073C148.466 22.2895 148.373 22.526 148.305 22.7827C148.237 23.0394 148.203 23.2899 148.203 23.5342C148.203 23.8929 148.26 24.1712 148.374 24.3691C148.489 24.5671 148.633 24.666 148.806 24.666C148.96 24.666 149.107 24.5995 149.247 24.4666C149.389 24.3305 149.516 24.1542 149.627 23.9377C149.738 23.7182 149.825 23.4801 149.887 23.2234C149.952 22.9667 149.984 22.7147 149.984 22.4673C149.984 22.1024 149.935 21.8241 149.836 21.6323C149.737 21.4406 149.601 21.3447 149.427 21.3447ZM156.248 20.9644C156.533 20.9644 156.738 21.037 156.865 21.1824C156.992 21.3277 157.055 21.487 157.055 21.6602C157.055 21.9323 156.916 22.2013 156.638 22.4673C156.452 22.6436 156.253 22.7951 156.039 22.9219C155.826 23.0456 155.62 23.1399 155.422 23.2048C155.225 23.2698 155.058 23.3022 154.921 23.3022C154.897 23.3022 154.884 23.4105 154.884 23.627C154.884 23.9053 154.938 24.1171 155.047 24.2625C155.155 24.4078 155.302 24.4805 155.487 24.4805C155.565 24.4805 155.657 24.4588 155.766 24.4155C155.874 24.3722 155.957 24.3258 156.016 24.2764C156.078 24.2238 156.112 24.196 156.118 24.1929C156.124 24.1898 156.137 24.1805 156.155 24.165C156.174 24.1465 156.23 24.0908 156.322 23.998L156.35 23.9702C156.363 23.9702 156.386 23.9996 156.42 24.0583C156.454 24.1171 156.471 24.1589 156.471 24.1836C156.415 24.2826 156.316 24.4016 156.174 24.5408C156.035 24.6768 155.877 24.7974 155.701 24.9026C155.525 25.0046 155.351 25.0557 155.181 25.0557C154.86 25.0557 154.614 24.9304 154.444 24.6799C154.274 24.4294 154.189 24.0846 154.189 23.6455C154.189 23.3486 154.25 23.044 154.374 22.7317C154.498 22.4163 154.662 22.1256 154.866 21.8596C155.07 21.5937 155.293 21.3787 155.534 21.2148C155.775 21.0479 156.013 20.9644 156.248 20.9644ZM156.155 21.3447C156.01 21.3447 155.866 21.405 155.724 21.5256C155.582 21.6462 155.452 21.7947 155.334 21.9709C155.217 22.1472 155.122 22.325 155.051 22.5044C154.983 22.6807 154.949 22.826 154.949 22.9404C154.949 22.9652 154.962 22.9775 154.986 22.9775C155.098 22.9775 155.232 22.9373 155.39 22.8569C155.548 22.7734 155.702 22.6652 155.854 22.5322C156.005 22.3993 156.132 22.2539 156.234 22.0962C156.336 21.9354 156.387 21.7777 156.387 21.623C156.387 21.4375 156.31 21.3447 156.155 21.3447ZM163.282 20.9644C163.468 20.9644 163.63 21.0247 163.769 21.1453C163.908 21.2659 163.978 21.4159 163.978 21.5952C163.978 21.9972 163.8 22.3281 163.445 22.5879C163.089 22.8477 162.633 23.0239 162.076 23.1167C162.444 23.6702 162.727 24.0382 162.925 24.2207C163.117 24.4001 163.282 24.4897 163.421 24.4897C163.533 24.4897 163.639 24.4434 163.741 24.3506C163.844 24.2578 163.919 24.1681 163.969 24.0815C163.987 24.0815 164.017 24.1063 164.057 24.1558C164.097 24.2052 164.117 24.2424 164.117 24.2671C164.099 24.3351 164.038 24.431 163.936 24.5547C163.837 24.6784 163.721 24.7897 163.588 24.8887C163.455 24.9876 163.329 25.0371 163.208 25.0371C163.05 25.0371 162.888 24.983 162.721 24.8748C162.557 24.7634 162.421 24.6382 162.313 24.499C162.273 24.4495 162.237 24.4062 162.206 24.3691C162.175 24.3289 162.147 24.2934 162.123 24.2625C162.076 24.2068 162.013 24.1156 161.932 23.9888L161.77 23.729C161.721 23.6486 161.67 23.5605 161.617 23.4646C161.564 23.3656 161.516 23.2868 161.473 23.228L161.13 25C161.025 25.0309 160.923 25.0464 160.824 25.0464C160.74 25.0464 160.638 25.0309 160.518 25L161.529 19.814C161.584 19.5573 161.612 19.3934 161.612 19.3223C161.612 19.2048 161.424 19.146 161.046 19.146C161.028 19.146 161.019 19.1274 161.019 19.0903C161.019 19.0161 161.043 18.9543 161.093 18.9048C161.492 18.8677 161.881 18.7811 162.262 18.645C162.299 18.6636 162.317 18.7223 162.317 18.8213C162.317 18.8893 162.277 19.1213 162.197 19.5171L161.714 22.0127L161.816 21.8921C161.912 21.7777 162.036 21.6493 162.188 21.5071C162.339 21.3617 162.509 21.2349 162.698 21.1267C162.886 21.0185 163.081 20.9644 163.282 20.9644ZM162.948 21.4004C162.849 21.4004 162.726 21.4622 162.577 21.5859C162.429 21.7065 162.282 21.8519 162.136 22.022C161.991 22.1921 161.869 22.356 161.77 22.5137C161.671 22.6683 161.622 22.7796 161.622 22.8477C161.622 22.86 161.628 22.8662 161.64 22.8662C161.653 22.8662 161.666 22.8662 161.682 22.8662C161.697 22.8631 161.716 22.86 161.738 22.8569C161.778 22.8507 161.855 22.8368 161.969 22.8152C162.084 22.7935 162.195 22.7673 162.303 22.7363C162.461 22.6899 162.617 22.625 162.772 22.5415C162.93 22.458 163.06 22.3544 163.162 22.2307C163.267 22.107 163.319 21.9632 163.319 21.7993C163.319 21.5334 163.196 21.4004 162.948 21.4004ZM170.604 20.9644C170.913 20.9644 171.068 21.1685 171.068 21.5767C171.068 21.8643 171.024 22.2013 170.938 22.5879L170.632 24.0166C170.613 24.0908 170.604 24.1681 170.604 24.2485C170.604 24.4032 170.635 24.4805 170.697 24.4805C170.774 24.4805 170.867 24.4264 170.975 24.3181C171.083 24.2068 171.176 24.1125 171.253 24.0352L171.309 23.9702C171.321 23.9702 171.345 23.9996 171.379 24.0583C171.413 24.1171 171.43 24.1589 171.43 24.1836C171.377 24.2733 171.281 24.3877 171.142 24.5269C171.006 24.666 170.857 24.7897 170.697 24.8979C170.536 25.0031 170.391 25.0557 170.261 25.0557C170.162 25.0557 170.084 25.0108 170.029 24.9211C169.973 24.8315 169.945 24.7155 169.945 24.5732C169.945 24.4805 169.967 24.3166 170.01 24.0815L170.335 22.5508C170.378 22.3405 170.4 22.1735 170.4 22.0498C170.4 21.7839 170.341 21.6509 170.224 21.6509C170.121 21.6509 169.984 21.7282 169.811 21.8828C169.638 22.0343 169.457 22.2369 169.268 22.4905C169.082 22.7441 168.914 23.027 168.762 23.3394C168.611 23.6486 168.504 23.9609 168.442 24.2764L168.285 25C168.201 25.0247 168.105 25.0371 167.997 25.0371C167.892 25.0371 167.787 25.0247 167.682 25L168.683 19.814C168.739 19.5387 168.767 19.3748 168.767 19.3223C168.767 19.2048 168.578 19.146 168.201 19.146C168.183 19.146 168.173 19.1274 168.173 19.0903C168.173 19.0161 168.198 18.9543 168.247 18.9048C168.649 18.8677 169.039 18.7811 169.416 18.645C169.454 18.6636 169.472 18.7223 169.472 18.8213C169.472 18.8646 169.432 19.0965 169.351 19.5171L168.711 22.792C168.77 22.6868 168.905 22.4951 169.115 22.2168C169.254 22.0343 169.415 21.8472 169.597 21.6555C169.783 21.4607 169.965 21.2968 170.145 21.1638C170.327 21.0308 170.48 20.9644 170.604 20.9644ZM177.452 20.9644C177.681 20.9644 177.907 21.0046 178.13 21.085L177.564 24.0166C177.545 24.0908 177.536 24.1681 177.536 24.2485C177.536 24.4032 177.567 24.4805 177.629 24.4805C177.706 24.4805 177.799 24.4264 177.907 24.3181C178.015 24.2068 178.108 24.1125 178.185 24.0352L178.241 23.9702C178.253 23.9702 178.277 23.9996 178.311 24.0583C178.345 24.1171 178.362 24.1589 178.362 24.1836C178.309 24.2733 178.213 24.3877 178.074 24.5269C177.938 24.666 177.79 24.7897 177.629 24.8979C177.468 25.0031 177.323 25.0557 177.193 25.0557C177.094 25.0557 177.016 25.0108 176.961 24.9211C176.905 24.8315 176.877 24.7155 176.877 24.5732C176.877 24.4774 176.899 24.3135 176.942 24.0815L176.975 23.9192C176.984 23.8759 176.989 23.8496 176.989 23.8403C176.939 23.9331 176.868 24.0475 176.775 24.1836C176.682 24.3166 176.576 24.4495 176.455 24.5825C176.335 24.7155 176.208 24.8268 176.075 24.9165C175.942 25.0031 175.81 25.0464 175.68 25.0464C175.408 25.0464 175.193 24.9242 175.036 24.6799C174.878 24.4356 174.799 24.1403 174.799 23.7939C174.799 23.3517 174.931 22.9111 175.193 22.4719C175.37 22.175 175.58 21.9137 175.824 21.688C176.072 21.4622 176.336 21.286 176.617 21.1592C176.899 21.0293 177.177 20.9644 177.452 20.9644ZM177.063 21.3911C176.88 21.3911 176.696 21.4561 176.511 21.5859C176.325 21.7127 176.155 21.8844 176.001 22.1008C175.846 22.3142 175.721 22.5523 175.625 22.8152C175.532 23.075 175.486 23.3363 175.486 23.5991C175.486 24.2052 175.643 24.5083 175.959 24.5083C176.07 24.5083 176.191 24.4465 176.321 24.3228C176.45 24.1991 176.579 24.0352 176.706 23.8311C176.832 23.627 176.944 23.4058 177.04 23.1677C177.139 22.9265 177.211 22.6899 177.258 22.458L177.443 21.5117C177.369 21.4313 177.242 21.3911 177.063 21.3911ZM183.049 20.9644C183.147 20.9644 183.225 21.0092 183.28 21.0989C183.336 21.1886 183.364 21.3045 183.364 21.4468C183.364 21.5828 183.345 21.7467 183.308 21.9385L183.16 22.7178C183.237 22.5353 183.336 22.3436 183.457 22.1426C183.58 21.9385 183.712 21.7467 183.851 21.5674C183.99 21.388 184.128 21.2427 184.264 21.1313C184.4 21.02 184.521 20.9644 184.626 20.9644C184.836 20.9644 185.006 21.0633 185.136 21.2612C185.136 21.6756 185.022 21.8828 184.793 21.8828C184.743 21.8828 184.684 21.8442 184.616 21.7668C184.548 21.6895 184.477 21.6509 184.403 21.6509C184.313 21.6509 184.196 21.7251 184.05 21.8735C183.905 22.022 183.755 22.2168 183.601 22.458C183.446 22.6961 183.307 22.9543 183.183 23.2327C183.059 23.5079 182.974 23.7723 182.928 24.0259L182.752 25C182.647 25.0186 182.544 25.0278 182.446 25.0278C182.328 25.0278 182.214 25.0186 182.102 25L182.659 22.1426C182.69 21.9292 182.705 21.8055 182.705 21.7715C182.705 21.6169 182.674 21.5396 182.612 21.5396C182.56 21.5396 182.481 21.589 182.376 21.688C182.326 21.7375 182.272 21.7916 182.214 21.8503C182.158 21.9091 182.121 21.9508 182.102 21.9756C182.09 21.9756 182.067 21.9462 182.033 21.8875C181.999 21.8287 181.982 21.7869 181.982 21.7622C182.031 21.6787 182.121 21.5751 182.251 21.4514C182.381 21.3246 182.52 21.2118 182.668 21.1128C182.817 21.0138 182.943 20.9644 183.049 20.9644ZM190.491 20.9644C190.72 20.9644 190.945 21.0046 191.168 21.085L190.602 24.0166C190.584 24.0908 190.574 24.1681 190.574 24.2485C190.574 24.4032 190.605 24.4805 190.667 24.4805C190.744 24.4805 190.837 24.4264 190.945 24.3181C191.054 24.2068 191.146 24.1125 191.224 24.0352L191.279 23.9702C191.292 23.9702 191.315 23.9996 191.349 24.0583C191.383 24.1171 191.4 24.1589 191.4 24.1836C191.347 24.2733 191.252 24.3877 191.112 24.5269C190.976 24.666 190.828 24.7897 190.667 24.8979C190.506 25.0031 190.361 25.0557 190.231 25.0557C190.132 25.0557 190.055 25.0108 189.999 24.9211C189.943 24.8315 189.916 24.7155 189.916 24.5732C189.916 24.4774 189.937 24.3135 189.981 24.0815L190.013 23.9192C190.022 23.8759 190.027 23.8496 190.027 23.8403C189.977 23.9331 189.906 24.0475 189.814 24.1836C189.721 24.3166 189.614 24.4495 189.494 24.5825C189.373 24.7155 189.246 24.8268 189.113 24.9165C188.98 25.0031 188.849 25.0464 188.719 25.0464C188.447 25.0464 188.232 24.9242 188.074 24.6799C187.916 24.4356 187.838 24.1403 187.838 23.7939C187.838 23.3517 187.969 22.9111 188.232 22.4719C188.408 22.175 188.618 21.9137 188.863 21.688C189.11 21.4622 189.374 21.286 189.656 21.1592C189.937 21.0293 190.216 20.9644 190.491 20.9644ZM190.101 21.3911C189.919 21.3911 189.735 21.4561 189.549 21.5859C189.364 21.7127 189.194 21.8844 189.039 22.1008C188.884 22.3142 188.759 22.5523 188.663 22.8152C188.57 23.075 188.524 23.3363 188.524 23.5991C188.524 24.2052 188.682 24.5083 188.997 24.5083C189.108 24.5083 189.229 24.4465 189.359 24.3228C189.489 24.1991 189.617 24.0352 189.744 23.8311C189.871 23.627 189.982 23.4058 190.078 23.1677C190.177 22.9265 190.25 22.6899 190.296 22.458L190.482 21.5117C190.407 21.4313 190.281 21.3911 190.101 21.3911ZM196.022 20.9644C196.121 20.9644 196.198 21.0092 196.254 21.0989C196.31 21.1886 196.337 21.3045 196.337 21.4468C196.337 21.5828 196.319 21.7467 196.282 21.9385L196.115 22.792C196.174 22.6868 196.308 22.4951 196.518 22.2168C196.657 22.0343 196.818 21.8472 197.001 21.6555C197.186 21.4607 197.369 21.2968 197.548 21.1638C197.731 21.0308 197.884 20.9644 198.007 20.9644C198.317 20.9644 198.471 21.1685 198.471 21.5767C198.471 21.8643 198.428 22.2013 198.341 22.5879L198.035 24.0166C198.017 24.0908 198.007 24.1681 198.007 24.2485C198.007 24.4032 198.038 24.4805 198.1 24.4805C198.177 24.4805 198.27 24.4264 198.378 24.3181C198.487 24.2068 198.579 24.1125 198.657 24.0352L198.712 23.9702C198.725 23.9702 198.748 23.9996 198.782 24.0583C198.816 24.1171 198.833 24.1589 198.833 24.1836C198.78 24.2733 198.685 24.3877 198.545 24.5269C198.409 24.666 198.261 24.7897 198.1 24.8979C197.939 25.0031 197.794 25.0557 197.664 25.0557C197.565 25.0557 197.488 25.0108 197.432 24.9211C197.376 24.8315 197.349 24.7155 197.349 24.5732C197.349 24.4805 197.37 24.3166 197.414 24.0815L197.738 22.5508C197.782 22.3405 197.803 22.1735 197.803 22.0498C197.803 21.7839 197.744 21.6509 197.627 21.6509C197.525 21.6509 197.387 21.7282 197.214 21.8828C197.041 22.0343 196.86 22.2369 196.671 22.4905C196.486 22.7441 196.317 23.027 196.166 23.3394C196.014 23.6486 195.908 23.9609 195.846 24.2764L195.688 25C195.604 25.0247 195.509 25.0371 195.4 25.0371C195.295 25.0371 195.19 25.0247 195.085 25L195.632 22.1426C195.663 21.9292 195.679 21.8055 195.679 21.7715C195.679 21.6169 195.648 21.5396 195.586 21.5396C195.533 21.5396 195.455 21.589 195.349 21.688C195.3 21.7375 195.246 21.7916 195.187 21.8503C195.131 21.9091 195.094 21.9508 195.076 21.9756C195.063 21.9756 195.04 21.9462 195.006 21.8875C194.972 21.8287 194.955 21.7869 194.955 21.7622C195.005 21.6787 195.094 21.5751 195.224 21.4514C195.354 21.3246 195.493 21.2118 195.642 21.1128C195.79 21.0138 195.917 20.9644 196.022 20.9644Z" fill="#FFFDD0"/>
<path opacity="0.9" d="M45.2193 43.5884C44.8153 43.4169 44.4142 43.3311 44.0158 43.3311C43.2079 43.3311 42.804 43.6299 42.804 44.2275C42.804 44.4876 42.8953 44.731 43.0779 44.9579C43.2605 45.1792 43.4818 45.3784 43.7419 45.5555C44.0019 45.727 44.262 45.9041 44.5221 46.0867C44.7821 46.2693 45.0035 46.4879 45.1861 46.7424C45.3687 46.9969 45.46 47.2736 45.46 47.5724C45.46 48.0759 45.2912 48.4577 44.9537 48.7178C44.6161 48.9723 44.1486 49.0996 43.551 49.0996C42.9589 49.0996 42.4526 48.9474 42.0321 48.6431L42.2313 48.3443C42.6297 48.6044 43.0668 48.7344 43.5427 48.7344C44.0185 48.7344 44.3837 48.6403 44.6383 48.4522C44.8928 48.2585 45.0201 47.9819 45.0201 47.6222C45.0201 47.3732 44.9288 47.138 44.7462 46.9167C44.5636 46.6898 44.3422 46.4879 44.0822 46.3108C43.8221 46.1282 43.562 45.9428 43.302 45.7547C43.0419 45.5666 42.8206 45.3425 42.638 45.0824C42.4554 44.8223 42.3641 44.5429 42.3641 44.2441C42.3641 43.8512 42.5079 43.5414 42.7957 43.3145C43.0889 43.0821 43.4818 42.9659 43.9743 42.9659C44.4723 42.9659 44.9343 43.0655 45.3604 43.2647L45.2193 43.5884ZM50.3442 43.9536H48.5182V43.6133H52.5437V43.9536H50.7177V49H50.3442V43.9536ZM59.9938 48.4439C59.6286 48.87 59.0725 49.083 58.3255 49.083C57.5785 49.083 57.0224 48.87 56.6572 48.4439C56.292 48.0178 56.1094 47.4285 56.1094 46.676V43.6133H56.4912V46.676C56.4912 48.0538 57.1026 48.7427 58.3255 48.7427C59.5483 48.7427 60.1598 48.0538 60.1598 46.676V43.6133H60.5416V46.676C60.5416 47.4285 60.359 48.0178 59.9938 48.4439ZM66.6978 48.7178C67.4061 48.7178 67.9733 48.5269 68.3993 48.1451C68.8309 47.7633 69.0467 47.1878 69.0467 46.4187C69.0467 45.6496 68.8033 45.0381 68.3163 44.5844C67.8349 44.1307 67.2401 43.9038 66.5318 43.9038C66.0283 43.9038 65.641 43.9149 65.3698 43.937V48.6597C65.7018 48.6984 66.1445 48.7178 66.6978 48.7178ZM66.5318 43.5635C67.3618 43.5635 68.0535 43.8208 68.6068 44.3354C69.1657 44.8445 69.4451 45.5389 69.4451 46.4187C69.4451 47.2985 69.1878 47.9597 68.6732 48.4024C68.1642 48.8451 67.5057 49.0664 66.6978 49.0664C66.139 49.0664 65.5635 49.0387 64.9714 48.9834V43.6133C65.4141 43.5801 65.9342 43.5635 66.5318 43.5635ZM73.5973 49V43.6133H76.1122V43.9453H73.9791V45.9041H75.9047V46.2278H73.9791V48.6514H76.1952V49H73.5973ZM80.213 49V43.5801H80.3956L83.9314 47.6471C84.0586 47.791 84.1748 47.9348 84.28 48.0787C84.3906 48.217 84.4487 48.289 84.4543 48.2945C84.4432 48.1617 84.4377 47.9016 84.4377 47.5143V43.6133H84.8195V49.0332H84.6369L81.0347 44.8998L80.5782 44.3437C80.5892 44.4544 80.5948 44.7144 80.5948 45.1239V49H80.213ZM90.2636 43.9536H88.4376V43.6133H92.4631V43.9536H90.6371V49H90.2636V43.9536ZM104.465 49.0996C103.601 49.0996 102.86 48.8063 102.24 48.2198C101.62 47.6277 101.311 46.9001 101.311 46.0369C101.311 45.1682 101.582 44.4405 102.124 43.854C102.666 43.2619 103.361 42.9659 104.207 42.9659C104.871 42.9659 105.544 43.0766 106.224 43.2979L106.116 43.6299C105.452 43.4307 104.816 43.3311 104.207 43.3311C103.482 43.3311 102.89 43.5912 102.431 44.1113C101.972 44.6314 101.742 45.2678 101.742 46.0203C101.742 46.7728 102.008 47.4147 102.539 47.9459C103.076 48.4716 103.718 48.7344 104.465 48.7344C105.117 48.7344 105.682 48.6348 106.158 48.4356L106.282 48.7178C106.072 48.8395 105.795 48.9336 105.452 49C105.115 49.0664 104.785 49.0996 104.465 49.0996ZM112.519 49.083C111.75 49.083 111.105 48.8146 110.585 48.2779C110.065 47.7412 109.805 47.0855 109.805 46.3108C109.805 45.5306 110.065 44.8721 110.585 44.3354C111.105 43.7987 111.75 43.5303 112.519 43.5303C113.288 43.5303 113.933 43.7987 114.453 44.3354C114.973 44.8721 115.233 45.5306 115.233 46.3108C115.233 47.0855 114.973 47.7412 114.453 48.2779C113.933 48.8146 113.288 49.083 112.519 49.083ZM112.519 43.8706C111.855 43.8706 111.302 44.1058 110.859 44.5761C110.422 45.0464 110.203 45.6247 110.203 46.3108C110.203 46.9914 110.422 47.5669 110.859 48.0372C111.302 48.502 111.855 48.7344 112.519 48.7344C113.188 48.7344 113.742 48.502 114.179 48.0372C114.616 47.5669 114.835 46.9914 114.835 46.3108C114.835 45.6247 114.616 45.0464 114.179 44.5761C113.742 44.1058 113.188 43.8706 112.519 43.8706ZM121.885 48.7178H121.661L120.092 44.9081C120.026 44.7587 119.959 44.5844 119.893 44.3852C119.893 44.3907 119.887 44.4212 119.876 44.4765C119.871 44.5318 119.863 44.6065 119.852 44.7006C119.84 44.7891 119.829 44.8638 119.818 44.9247L119.196 49H118.822L119.702 43.5801H119.926L121.603 47.5558C121.736 47.8878 121.802 48.0621 121.802 48.0787C121.841 47.9625 121.915 47.791 122.026 47.5641L123.894 43.5801H124.118L124.939 49H124.541L123.952 44.9081C123.913 44.637 123.894 44.4571 123.894 44.3686L123.653 44.9164L121.885 48.7178ZM131.354 48.7178H131.13L129.561 44.9081C129.495 44.7587 129.428 44.5844 129.362 44.3852C129.362 44.3907 129.356 44.4212 129.345 44.4765C129.34 44.5318 129.331 44.6065 129.32 44.7006C129.309 44.7891 129.298 44.8638 129.287 44.9247L128.665 49H128.291L129.171 43.5801H129.395L131.072 47.5558C131.204 47.8878 131.271 48.0621 131.271 48.0787C131.31 47.9625 131.384 47.791 131.495 47.5641L133.362 43.5801H133.587L134.408 49H134.01L133.421 44.9081C133.382 44.637 133.362 44.4571 133.362 44.3686L133.122 44.9164L131.354 48.7178ZM142.159 48.4439C141.794 48.87 141.238 49.083 140.491 49.083C139.744 49.083 139.188 48.87 138.822 48.4439C138.457 48.0178 138.275 47.4285 138.275 46.676V43.6133H138.656V46.676C138.656 48.0538 139.268 48.7427 140.491 48.7427C141.713 48.7427 142.325 48.0538 142.325 46.676V43.6133H142.707V46.676C142.707 47.4285 142.524 48.0178 142.159 48.4439ZM147.137 49V43.5801H147.319L150.855 47.6471C150.982 47.791 151.098 47.9348 151.204 48.0787C151.314 48.217 151.372 48.289 151.378 48.2945C151.367 48.1617 151.361 47.9016 151.361 47.5143V43.6133H151.743V49.0332H151.56L147.958 44.8998L147.502 44.3437C147.513 44.4544 147.518 44.7144 147.518 45.1239V49H147.137ZM156.224 49V43.6133H156.606V49H156.224ZM165.281 48.7344C164.866 48.9668 164.288 49.083 163.546 49.083C162.81 49.083 162.16 48.8174 161.596 48.2862C161.037 47.755 160.757 47.0965 160.757 46.3108C160.757 45.5195 161.001 44.8583 161.488 44.3271C161.98 43.7959 162.614 43.5303 163.388 43.5303C164.014 43.5303 164.625 43.6271 165.223 43.8208L165.123 44.1362C164.548 43.9591 163.953 43.8706 163.339 43.8706C162.724 43.8706 162.207 44.1058 161.787 44.5761C161.372 45.0409 161.164 45.6136 161.164 46.2942C161.164 46.9693 161.405 47.5447 161.886 48.0206C162.373 48.4965 162.935 48.7344 163.571 48.7344C164.207 48.7344 164.736 48.6459 165.156 48.4688L165.281 48.7344ZM169.397 47.1325L168.625 49H168.235L170.493 43.5801H170.717L172.991 49H172.568L171.788 47.1325H169.397ZM170.584 44.1943C170.501 44.4433 170.426 44.6508 170.36 44.8168L169.53 46.8088H171.655L170.833 44.8251C170.706 44.5152 170.623 44.305 170.584 44.1943ZM177.026 43.9536H175.2V43.6133H179.226V43.9536H177.4V49H177.026V43.9536ZM182.841 49V43.6133H183.223V49H182.841ZM190.088 49.083C189.319 49.083 188.674 48.8146 188.154 48.2779C187.634 47.7412 187.374 47.0855 187.374 46.3108C187.374 45.5306 187.634 44.8721 188.154 44.3354C188.674 43.7987 189.319 43.5303 190.088 43.5303C190.857 43.5303 191.502 43.7987 192.022 44.3354C192.542 44.8721 192.802 45.5306 192.802 46.3108C192.802 47.0855 192.542 47.7412 192.022 48.2779C191.502 48.8146 190.857 49.083 190.088 49.083ZM190.088 43.8706C189.424 43.8706 188.871 44.1058 188.428 44.5761C187.991 45.0464 187.772 45.6247 187.772 46.3108C187.772 46.9914 187.991 47.5669 188.428 48.0372C188.871 48.502 189.424 48.7344 190.088 48.7344C190.758 48.7344 191.311 48.502 191.748 48.0372C192.185 47.5669 192.404 46.9914 192.404 46.3108C192.404 45.6247 192.185 45.0464 191.748 44.5761C191.311 44.1058 190.758 43.8706 190.088 43.8706ZM196.956 49V43.5801H197.139L200.674 47.6471C200.802 47.791 200.918 47.9348 201.023 48.0787C201.134 48.217 201.192 48.289 201.197 48.2945C201.186 48.1617 201.181 47.9016 201.181 47.5143V43.6133H201.563V49.0332H201.38L197.778 44.8998L197.321 44.3437C197.332 44.4544 197.338 44.7144 197.338 45.1239V49H196.956ZM215.169 46.7175H215.492C215.481 47.2321 215.335 47.6831 215.052 48.0704L215.916 49H215.418L214.812 48.3443C214.546 48.5767 214.242 48.7593 213.899 48.8921C213.556 49.0249 213.224 49.0913 212.903 49.0913C212.366 49.0913 211.945 48.9806 211.641 48.7593C211.342 48.5324 211.193 48.217 211.193 47.8131C211.193 47.4092 211.312 47.0689 211.55 46.7922C211.788 46.51 212.122 46.2223 212.554 45.929C211.896 45.2207 211.566 44.6757 211.566 44.2939C211.566 43.9121 211.691 43.6133 211.94 43.3975C212.189 43.1762 212.551 43.0655 213.027 43.0655C213.503 43.0655 213.86 43.1789 214.098 43.4058C214.336 43.6271 214.455 43.8955 214.455 44.2109C214.455 44.5208 214.336 44.814 214.098 45.0907C213.86 45.3674 213.531 45.6689 213.11 45.9954L214.828 47.8297C214.922 47.719 215.003 47.5503 215.069 47.3234C215.135 47.0965 215.169 46.8946 215.169 46.7175ZM212.952 48.7676C213.511 48.7676 214.051 48.5435 214.571 48.0953L212.803 46.2029C211.984 46.7009 211.575 47.1989 211.575 47.6969C211.575 48.0344 211.694 48.2973 211.932 48.4854C212.169 48.6735 212.51 48.7676 212.952 48.7676ZM214.081 44.2773C214.081 44.0006 213.99 43.7848 213.807 43.6299C213.63 43.475 213.378 43.3975 213.052 43.3975C212.311 43.3975 211.94 43.6908 211.94 44.2773C211.94 44.4322 211.987 44.601 212.081 44.7836C212.181 44.9607 212.286 45.1128 212.396 45.2401C212.507 45.3618 212.662 45.5223 212.861 45.7215C213.675 45.1848 214.081 44.7034 214.081 44.2773ZM98.4714 57.6929H98.2473L96.5126 53.4931C96.413 53.2607 96.3327 53.056 96.2719 52.8789L96.1889 53.5097L95.5083 58H95.1016L96.081 52.0157H96.3134L98.1643 56.4147C98.2583 56.6194 98.333 56.8131 98.3884 56.9957C98.405 56.9348 98.4907 56.7439 98.6457 56.423L100.712 52.0157H100.936L101.841 58H101.426L100.779 53.4931C100.734 53.2109 100.712 52.9979 100.712 52.854C100.707 52.8595 100.693 52.8872 100.671 52.937C100.654 52.9813 100.621 53.0587 100.571 53.1694C100.527 53.2745 100.48 53.3852 100.43 53.5014L98.4714 57.6929ZM109.697 57.4439C109.331 57.87 108.775 58.083 108.028 58.083C107.281 58.083 106.725 57.87 106.36 57.4439C105.995 57.0178 105.812 56.4285 105.812 55.676V52.6133H106.194V55.676C106.194 57.0538 106.805 57.7427 108.028 57.7427C109.251 57.7427 109.863 57.0538 109.863 55.676V52.6133H110.244V55.676C110.244 56.4285 110.062 57.0178 109.697 57.4439ZM114.674 58V52.6133H115.056V57.6514H117.529V58H114.674ZM121.345 52.9536H119.519V52.6133H123.544V52.9536H121.718V58H121.345V52.9536ZM127.16 58V52.6133H127.542V58H127.16ZM134.523 57.7178H134.299L132.73 53.9081C132.664 53.7587 132.597 53.5844 132.531 53.3852C132.531 53.3907 132.526 53.4212 132.514 53.4765C132.509 53.5318 132.501 53.6065 132.49 53.7006C132.478 53.7891 132.467 53.8638 132.456 53.9247L131.834 58H131.46L132.34 52.5801H132.564L134.241 56.5558C134.374 56.8878 134.44 57.0621 134.44 57.0787C134.479 56.9625 134.553 56.791 134.664 56.5641L136.532 52.5801H136.756L137.577 58H137.179L136.59 53.9081C136.551 53.637 136.532 53.4571 136.532 53.3686L136.291 53.9164L134.523 57.7178ZM141.494 58V52.6133H144.008V52.9453H141.875V54.9041H143.801V55.2278H141.875V57.6514H144.091V58H141.494ZM149.836 57.7178C150.544 57.7178 151.111 57.5269 151.537 57.1451C151.969 56.7633 152.185 56.1878 152.185 55.4187C152.185 54.6496 151.941 54.0381 151.454 53.5844C150.973 53.1307 150.378 52.9038 149.67 52.9038C149.166 52.9038 148.779 52.9149 148.508 52.937V57.6597C148.84 57.6984 149.282 57.7178 149.836 57.7178ZM149.67 52.5635C150.5 52.5635 151.191 52.8208 151.745 53.3354C152.304 53.8445 152.583 54.5389 152.583 55.4187C152.583 56.2985 152.326 56.9597 151.811 57.4024C151.302 57.8451 150.644 58.0664 149.836 58.0664C149.277 58.0664 148.701 58.0387 148.109 57.9834V52.6133C148.552 52.5801 149.072 52.5635 149.67 52.5635ZM156.735 58V52.6133H157.117V58H156.735ZM161.866 56.1325L161.094 58H160.704L162.961 52.5801H163.185L165.459 58H165.036L164.256 56.1325H161.866ZM163.052 53.1943C162.969 53.4433 162.895 53.6508 162.828 53.8168L161.998 55.8088H164.123L163.301 53.8251C163.174 53.5152 163.091 53.305 163.052 53.1943ZM176.524 57.7095C177.304 57.7095 177.929 57.4992 178.399 57.0787C178.875 56.6526 179.113 56.0135 179.113 55.1614C179.113 54.3093 178.845 53.6314 178.308 53.1279C177.777 52.6244 177.118 52.3726 176.333 52.3726C175.829 52.3726 175.392 52.3864 175.021 52.4141V57.6431C175.381 57.6874 175.882 57.7095 176.524 57.7095ZM176.333 52.0074C177.246 52.0074 178.009 52.2924 178.624 52.8623C179.238 53.4267 179.545 54.1958 179.545 55.1697C179.545 55.6622 179.465 56.0993 179.304 56.4811C179.149 56.8574 178.933 57.1589 178.657 57.3858C178.087 57.8451 177.376 58.0747 176.524 58.0747C175.965 58.0747 175.331 58.0443 174.623 57.9834V52.0655C175.187 52.0268 175.757 52.0074 176.333 52.0074ZM183.781 58V52.6133H186.296V52.9453H184.163V54.9041H186.089V55.2278H184.163V57.6514H186.379V58H183.781ZM191.484 52.8457C191.186 52.8457 190.942 52.9176 190.754 53.0615C190.566 53.2054 190.472 53.4073 190.472 53.6674C190.472 53.9662 190.596 54.2346 190.845 54.4725C191.022 54.644 191.249 54.8266 191.526 55.0203C191.808 55.2084 192.002 55.344 192.107 55.427C192.212 55.51 192.339 55.6234 192.489 55.7673C192.76 56.0384 192.895 56.3511 192.895 56.7052C192.895 57.1645 192.74 57.5131 192.431 57.751C192.126 57.9834 191.697 58.0996 191.144 58.0996C190.596 58.0996 190.137 57.9557 189.766 57.668L189.965 57.3775C190.342 57.632 190.74 57.7593 191.161 57.7593C191.581 57.7593 191.908 57.6708 192.14 57.4937C192.378 57.3166 192.497 57.0676 192.497 56.7467C192.497 56.47 192.378 56.2155 192.14 55.9831C191.974 55.8171 191.75 55.6373 191.468 55.4436C191.191 55.2499 190.997 55.1116 190.887 55.0286C190.776 54.9401 190.646 54.8239 190.497 54.68C190.214 54.3978 190.073 54.0713 190.073 53.7006C190.073 53.3299 190.203 53.0394 190.463 52.8291C190.729 52.6188 191.094 52.5137 191.559 52.5137C192.024 52.5137 192.442 52.605 192.812 52.7876L192.671 53.0947C192.328 52.9287 191.933 52.8457 191.484 52.8457ZM196.916 58V52.6133H197.297V58H196.916ZM204.03 52.8706C203.416 52.8706 202.898 53.1058 202.478 53.5761C202.063 54.0409 201.855 54.6136 201.855 55.2942C201.855 55.9748 202.09 56.553 202.561 57.0289C203.031 57.4992 203.584 57.7344 204.221 57.7344C204.862 57.7344 205.36 57.6597 205.715 57.5103V55.2942H206.096V57.6846C205.665 57.9502 205.053 58.083 204.262 58.083C203.471 58.083 202.804 57.8146 202.262 57.2779C201.72 56.7412 201.448 56.0827 201.448 55.3025C201.448 54.5168 201.692 53.8583 202.179 53.3271C202.671 52.7959 203.305 52.5303 204.08 52.5303C204.705 52.5303 205.316 52.6271 205.914 52.8208L205.814 53.1362C205.239 52.9591 204.644 52.8706 204.03 52.8706ZM210.398 58V52.5801H210.581L214.117 56.6471C214.244 56.791 214.36 56.9348 214.465 57.0787C214.576 57.217 214.634 57.289 214.639 57.2945C214.628 57.1617 214.623 56.9016 214.623 56.5143V52.6133H215.005V58.0332H214.822L211.22 53.8998L210.763 53.3437C210.774 53.4544 210.78 53.7144 210.78 54.1239V58H210.398Z" fill="white"/>
</svg>
